<?xml version="1.0" encoding="UTF-8" standalone="no"?>
<!-- Generator: Adobe Illustrator 27.5.0, SVG Export Plug-In . SVG Version: 6.00 Build 0)  -->

<svg
   version="1.1"
   x="0px"
   y="0px"
   viewBox="0 0 121.24063 193.2701"
   xml:space="preserve"
   id="svg24"
   width="121.24063"
   height="193.2701"
   xmlns="http://www.w3.org/2000/svg"
   xmlns:svg="http://www.w3.org/2000/svg"><defs
   id="defs28" />

<path
   style="fill:#191919"
   d="m 4.1526179,152.21489 c 0.042,0.029 0.078,0.06 0.119,0.089 -0.026,-0.083 -0.119,-0.089 -0.119,-0.089 z"
   id="path5" /><path
   style="fill:#191919"
   d="m 4.2826179,152.34489 c 0.038,0.017 0.077,0.036 0.115,0.053 -0.042,-0.03 -0.083,-0.063 -0.126,-0.093 0.004,0.012 0.011,0.022 0.011,0.04 z"
   id="path7" /><path
   style="fill:#191919"
   d="m 105.21962,59.859889 c 1.685,-1.497 10.107,-9.264 3.275,-8.422 -2.58,0.31 -6.041,2.33 -9.037002,4.736 4.145002,-4.382 7.805002,-9.337 5.949002,-11.761 -2.714,-3.556 -9.171002,3.931 -10.294002,6.27 1.497,-2.901 2.433,-6.27 2.995,-9.452 0.655,-3.93 0.094,-7.767 -3.649,-3.462 -2.111,2.375 -3.862,5.423 -4.956,8.682 -0.012,-0.597 -0.044,-1.183 -0.116,-1.751 -0.936,-7.111 -5.615,1.591 -5.428,5.147 -0.187,-3.369 -4.118,-8.796 -4.305,-2.526 -0.031,2.053 0.589,3.974 1.58,5.763 -1.233,-0.313 -2.642,-0.305 -3.309,0.734 -1.125,1.752 0.206,3.255 1.762,4.033 1.637,0.818 3.528,1.032 5.253,1.623 -0.051,0.34 -0.058,0.705 0.014,1.109 0.201,1.139 0.921,2.113 1.104,3.266 0.282,1.784 -0.541,3.77 -0.277,5.628 0.208,1.464 0.801,2.375 1.63,2.946 -6.628,6.014 -12.501,13.568 -17.4,20.938 -0.651,0.981 -1.304,2.013 -1.94,3.079 0.733,-2.912 0.805,-6.232 0.97,-9.168 0.476,-0.984 1.112,-1.914 1.65,-2.893 5.521,-9.919 1.685,-21.991 -3.275,-31.255 -0.655,2.714 -0.748,5.521 -0.936,8.235 -0.374,6.363 -3.369,14.692 -1.029,20.774 0.89,2.523 1.89,4.233 2.409,6.555 -0.103,3.583 -0.287,7.286 -1.353,10.5 -0.003,0.01 -0.001,0.018 -0.003,0.027 -1.234,2.332001 -2.318,4.799001 -3.105,7.322001 -0.711,-14.206001 -2.799,-28.617001 -6.994,-42.210001 0.23,-2.299 0.782,-4.38 1.567,-6.376 0.289,-0.145 0.603,-0.293 0.93,-0.522 3.93,-2.714 11.136,-10.575 11.042,-15.628 -3.93,2.714 -8.796,3.089 -11.51,7.486 -1.69,2.575 -1.857,5.841 -1.871,8.907 -0.432,1.21 -0.744,2.459 -0.923,3.731 -1.598,-4.85 -3.477,-9.585 -5.665,-14.16 0.574,-0.159 1.11,-0.456 1.565,-0.942 1.872,-1.997 0.125,-3.369 0.499,-5.741 0.055,-0.361 0.173,-0.724 0.33,-1.083 0.583,-0.761 1.19,-1.503 1.852,-2.2 2.913,-3.064 6.597,-5.932 11.012,-4.479 4.59,1.51 9.172,5.333 14.38,3.771 3.993,-1.248 2.745,-4.367 -0.125,-6.239 -3.228,-2.044 -7.937,-2.325 -11.894,-2.524 6.259,-1.259 13.166,-3.315 10.396,-6.085 -1.301,-1.301 -3.567,-1.229 -6.095,-0.479 3.029,-2.895 4.927,-6.408 2.976,-10.25 -2.995,-5.8649997 -10.355,0.749 -12.726,3.992 1.996,-2.995 6.114,-15.96999972 -1.747,-10.9789997 -5.243,3.346 -8.586,14.8659997 -7.455,21.9069997 -0.093,0.009 -0.187,0.021 -0.281,0.032 -0.529,-3.7 -0.54,-7.397 -0.233,-11.17 0.254,-2.631 3.387,-19.7149997 -3.87,-14.2099997 -4.13,3.068 -2.558,10.0049997 -1.396,14.2169997 -1.139,-2.548 -2.387,-7.6369997 -4.8,-9.1009997 -5.581,-3.898 -3.604,7.3069997 -2.528,10.1269997 1.599,4.187 4.02,7.968 6.829,11.45 -0.18,0.054 -0.359,0.108 -0.536,0.163 -1.428,-2.191 -2.896,-4.378 -4.291,-6.572 -1.672,-2.838 -6.038,-14.8069997 -11.168,-11.018 -3.84,2.903 0.906,8.812 2.814,11.5 -1.607,-2.217 -3.823,-4.247 -6.211,-5.507 -9.562,-5.162 -4.498,7.486 -0.639,10.852 1.83,1.633 3.6,3.578 5.627,5.074 -2.514,-1.426 -5.067,-2.727 -6.799,-5.145 -1.841,-2.57 -4.208,-6.868 -7.36,-8.003 -6.738,-2.496 0.124,7.361 1.373,9.108 -1.747,-1.997 -3.869,-4.242 -6.114,-5.615 -2.246,-1.372 -4.3670001,-2.495 -4.9910001,0.874 -0.749,3.369 3.6180001,5.739 5.8640001,7.112 2.728,1.667 5.532,3.342 8.425,4.772 -4.871,-1.394 -10.007,-2.227 -14.6290001,-2.667 -2.37,-0.249 -8.60899998,-1.248 -7.98499998,2.495 0.499,3.245 7.36099998,4.368 9.73199998,4.617 3.2440001,0.249 6.4870001,-0.499 9.8560001,0.249 -2.744,0.874 -16.2190001,2.246 -12.3520001,6.988 2.292,2.778 7.6400001,1.727 12.7480001,-0.008 -5.31,4.308 -0.926,5.071 3.935,2.519 0.57,-0.274 1.123,-0.58 1.669,-0.897 -0.943,1.299 -1.646,2.699 -1.918,3.968 -0.263,1.312 -0.284,3.873 1.43,3.971 1.59,0.091 3.87,-1.878 4.934,-2.88 2.533,-2.383 3.191,-5.716 5.654,-7.697 2.033,-0.245 3.976,-0.974 6.066,-0.817 2.023,0.151 3.255,1.754 5.132,2.361 0.61,0.197 1.253,0.321 1.883,0.328 5.724,12.321 9.139,25.733 11.026,39.366 -1.151,-1.833 -2.704,-3.485 -4.524,-4.929 -2.218,-3.834 -7.824,-6.727 -11.483,-8.511 -8.047,-3.837 -15.534,-0.842 -23.956,-0.655 -2.62,0.094 -5.24,0 -7.86,0.375 5.989,4.866 14.598,9.826 22.458,9.919 5.802,0.094 11.698,-2.713 17.499,-1.216 0.585,0.146 1.169,0.369 1.754,0.615 2.772,1.93 5.068,4.349 6.496,7.365 1.19,9.728 1.642,19.533001 1.631,29.103001 -0.013,12.738 -1.103,25.59 -3.639,38.118 -0.981,-4.816 -3.393,-9.731 -5.166,-13.785 -0.076,-0.174 -0.16,-0.345 -0.237,-0.519 -0.108,-2.084 0.203,-4.221 0.458,-6.35 0.269,-0.549 0.566,-1.084 0.825,-1.638 2.933,-7.05 3.058,-18.466 -1.622,-24.704 -0.437,4.803 -3.057,8.733 -2.246,13.786 0.727,4.36 1.165,8.719 1.873,13.078 -0.193,1.129 -0.373,2.263 -0.41,3.37 -3.173,-6.685 -7.083,-13.145 -11.348,-19.158 0.017,-0.014 0.035,-0.023 0.051,-0.038 1.314,-1.217 1.28,-3.349 1.89,-4.907 0.149,-0.381 0.417,-0.792 0.725,-1.226 0.862,-1.21 2.036,-2.59 1.807,-3.919 1.571,-0.572 3.171,-1.031 4.826,-1.425 1.061,-0.25 5.614,-0.749 6.051,-1.997 0.437,-1.372 -2.059,-1.185 -2.995,-1.123 -1.853,0.178 -4.172,0.826 -6.148,1.906 0.165,-0.127 0.329,-0.254 0.494,-0.381 1.372,-0.998 7.112,-4.429 6.3,-6.799 -1.066,-3.144001 -6.877,0.277 -8.714,2.494 0.833,-1.201 2.018,-2.813 1.772,-4.056 -0.449,-2.263001 -3.921,0.283 -4.707,0.946 -0.867,0.734 -1.68,1.406 -2.395,2.306 -0.307,0.386 -0.595,0.781 -0.873,1.181 1.803,-3.556 4.091,-8.783001 0.507,-9.328001 -2.428,-0.404 -5.267,3.623 -5.72,6.557001 -0.34,-3.024001 -1.527,-7.732001 -4.074,-4.685001 -1.747,2.059 -0.874,6.239001 -0.561,8.547001 0.076,0.595 0.153,1.192 0.236,1.789 -1.145,-3.633 -2.581,-7.528001 -5.102,-8.071001 -2.184,-0.437 -2.869,2.308001 -2.869,3.993001 0.062,2.371 1.372,3.992 3.181,5.427 -1.809,-1.435 -3.556,-2.932 -5.365,-4.243 -0.997,-0.748 -3.244,-2.869 -4.429,-1.559 -1.185,1.31 0.561,4.492 1.31,5.49 2.18,2.81 5.829,4.614 9.069,6.051 -1.738,-0.227 -3.461,-0.316 -4.627,-0.451 -2.62,-0.312 -5.74,-0.499 -7.924,1.372 -2.1210001,1.746 -1.498,3.181 1.123,3.181 2.807,0.062 5.677,-1.31 8.485,-0.499 -2.184,-0.062 -8.734,0.624 -8.36,3.868 0.499,5.49 9.794,-0.936 11.291,-1.872 0.429,-0.249 0.859,-0.48 1.289,-0.701 0.164,0.521 0.522,0.948 1.053,1.151 1.363,0.52 3.261,0.141 4.643,-0.112 2.198,-0.403 3.912,0.86 5.98,1.472 0.673,0.198 1.551,0.254 2.245,-0.02 3.574,6.23 7.457,12.256 10.692,18.683 1.784,3.546 3.329,7.206 4.67,10.94 0.179,0.497 0.36,0.992 0.541,1.487 -1.35,-1.319 -2.929,-2.496 -4.573,-3.565 -2.468,-2.326 -4.921,-4.649 -7.772,-6.502 -3.432,-2.308 -7.111,-3.369 -11.042,-4.553 -3.369,-0.999 -6.55,-2.496 -9.919,-3.494 -2.059,-0.686 -4.367,-1.498 -6.55,-1.685 4.679,7.362 11.666,13.1 20.275,14.911 4.179,0.873 8.796,-0.25 12.789,1.185 0.366,0.122 0.741,0.261 1.119,0.408 0.488,0.344 0.974,0.692 1.457,1.045 1.628,1.191 3.082,2.656 4.765,3.768 0.604,1.709 1.15,3.426 1.482,5.19 -1.904,8.775 -4.54,17.373 -8.04,25.646 -0.188,-0.813 -0.526,-1.608 -0.952,-2.379 -0.595,-1.709 -0.964,-3.531 -1.329,-5.355 -1.497,-5.864 -3.619,-11.978 -8.485,-15.97 -5.832,-4.841 -14.504,-7.953 -21.349,-11.179 7.829,5.687 5.956,17.597 13.614,22.907 4.619,3.079 11.366,3.837 15.379,7.901 1.23,1.732 2.204,3.544 2.559,5.38 -0.871,1.999 -1.775,3.985 -2.751,5.943 -0.272,0.546 0.483,0.992 0.818,0.479 1.884,-2.883 3.507,-5.893 4.931,-8.993 3.247,-1.954 6.779,-3.848 10.218,-5.915 0.985,-0.326 1.986,-0.629 3.034,-0.928 6.488,-1.498 12.477,-1.123 18.466,-4.991 9.982,-6.613 10.106,-21.71 14.224,-32.19 -2.62,2.744 -4.866,4.616 -8.359,6.113 -9.607,4.117 -16.22,9.608 -20.712,19.339 -2.588,5.763 -4.956,9.31 -9.503,13.146 -2.3,1.373 -4.607,2.735 -6.83,4.229 3.114,-7.086 5.21,-14.621 6.861,-22.212 0.866,-3.982 1.56,-8.002 2.134,-12.039 0.002,-0.005 0.006,-0.008 0.009,-0.013 1.558,-3.775 3.839,-6.893 6.53,-9.634 1.163,-0.425 2.362,-0.597 3.669,-0.924 6.114,-1.372 13.226,-2.245 18.966,-4.866 3.992,-1.871 6.113,-5.241 8.858,-8.609 3.744002,-4.492 8.110002,-8.484 11.355002,-13.35 -3.369,1.496 -6.363,3.618 -9.732,4.99 -9.982002,3.993 -20.089002,3.244 -27.450002,12.103 -2.342,2.874 -4.858,6.292 -6.555,9.713 -2.201,2.404 -4.032,5.023 -5.268,7.864 1.07,-8.443 1.562,-16.966 1.63,-25.458 0.023,-2.794 -0.003,-5.61 -0.077,-8.44 0.876,-6.184 3.485,-11.827 6.921,-17.240001 0.009,-0.007 0.02,-0.009 0.029,-0.018 3.4,-3.019 7.031,-4.222 10.833,-4.594 0.116,0.018 0.231,0.031 0.347,0.054 4.398,0.561 7.018,3.649 10.949,5.053 4.585,1.684 11.416002,2.808 15.721002,-0.28 -2.526,-1.029 -4.96,-2.059 -7.299,-3.463 -6.726002,-3.843 -15.491002,-6.461 -22.717002,-1.997 -2.351,0.632 -4.556,1.664 -6.495,3.16 0.113,-0.167 0.222,-0.333 0.336,-0.499 4.776,-6.953 10.978,-12.653 16.127,-19.249 2.834,1.027 7.248,-0.255 9.725,1.083 0.056,0.03 0.116,0.053 0.174,0.081 1.137,2.424 0.702,5.358 1.904002,7.821 0.602,1.234 3.455,4.215 5.094,3.121 1.458,-0.973 1.44,-2.683 0.734,-4.531 3.509,2.842 7.192,4.747 9.996,3.617 5.177,-2.122 -0.114,-7.938 -3.656,-9.561 3.494,0.902 11.073,0.488 7.212,-3.541 -2.039,-2.04 -5.635,-2.546 -9.257,-2.499 5.547,-0.888 10.647,-2.591 10.942,-6.672 0.559,-6.737 -12.823,-4.866 -16.004,-1.965 z"
   id="path9" />
</svg>
