<?xml version="1.0" encoding="UTF-8" standalone="no"?>
<!-- Generator: Adobe Illustrator 27.5.0, SVG Export Plug-In . SVG Version: 6.00 Build 0)  -->

<svg
   version="1.1"
   x="0px"
   y="0px"
   viewBox="0 0 107.8307 188.95006"
   xml:space="preserve"
   id="svg24"
   width="107.8307"
   height="188.95006"
   xmlns="http://www.w3.org/2000/svg"
   xmlns:svg="http://www.w3.org/2000/svg"><defs
   id="defs28" />

<path
   style="fill:#191919"
   d="m 0,150.05487 c 0.042,0.029 0.078,0.06 0.119,0.089 -0.026,-0.083 -0.119,-0.089 -0.119,-0.089 z"
   id="path5" /><path
   style="fill:#191919"
   d="m 0.13,150.18487 c 0.038,0.017 0.077,0.036 0.115,0.053 -0.042,-0.03 -0.083,-0.063 -0.126,-0.093 0.004,0.012 0.011,0.022 0.011,0.04 z"
   id="path7" />
<path
   style="fill:#191919"
   d="m 90.238698,109.28146 c -7.954,12.949 -25.044,35.928 -19.474,52.862 -0.519,3.482 -0.662,6.973 -0.336,10.408 -1.984,-4.545 -3.817,-9.151 -5.415,-13.849 -3.72,-10.938 -5.551,-22.326 -5.589,-33.872 -0.015,-4.613 0.1,-9.233 0.323,-13.854 1.124,-3.519 4.339,-5.647 7.329,-7.614 3.005,-1.977 6.119,-3.777 9.152,-5.707001 0.297,-0.113 0.594,-0.229 0.891,-0.328 5.54,-2.04 11.468,-5.54 16.327,-8.941 9.913002,-6.998 13.509002,-20.604 14.384002,-32.363 -2.43,2.721 -4.082,6.122 -6.608,8.844 -7.386002,7.678 -16.910002,12.051 -21.770002,21.867 -1.721,3.502 -3.772,7.579 -6.5,10.846 -0.122,0.076 -0.241,0.154 -0.364,0.23 -3.41,2.107001 -9.9,5.165001 -12.628,9.370001 0.903,-14.679001 2.919,-29.344001 5.704,-43.787001 0.704,-0.028 1.54,-0.626 2.547,-2.057 4.133,-5.828 6.877,-14.859 8.166,-22.635 -0.029,6.275 0.801,12.384 4.39,17.573 2.072,3.11 5.442,8.163 9.07,9.719 0,-10.003 3.622,-28.277 -2.152,-39.220995 1.565,1.91 3.132,3.756995 4.24,5.602995 4.664004,7.905 7.774004,15.55 14.383002,22.159 -0.258,-3.629 -1.035,-7.128 -1.295,-10.755 -0.518,-5.054 0.518,-10.367 -0.518,-15.290995 -1.618,-7.047 -9.001002,-10.178 -15.451002,-12.336 3.223,0.332 6.383,1.265 9.134004,2.823 1.814,1.026 3.627998,1.855 5.551998,2.636 0.112,-0.726 -0.482,-1.585 -0.721,-2.257 -0.518,-1.455 -1.124,-2.818 -1.848,-4.186 -2.536998,-4.805 -7.909002,-7.6799992 -13.302002,-8.0079992 0.326,-0.834 0.744,-1.62 1.344,-2.32 -4.448,-1.369 -11.908,-6.147 -15.928,-2.322 -2.147,-3.42900003 -9.118,-3.14000003 -11.792,-0.438 -2.153,-0.608 -4.544,-0.656 -6.1,-0.22 -3.352,0.939 -7.015,3.263 -9.721,5.429 -2.831,2.2659997 -5.079,5.2609992 -6.359,8.6599992 1.97,-2.002 5.288,-2.815 7.969,-3.18 0.376,-0.051 0.777,-0.098 1.189,-0.132 -8.622,5.505 -8.678,11.789 -11.607,20.579995 -0.778,2.333 -2.203,4.147 -3.11,6.35 4.406,-0.13 8.941,-2.591 12.051,-5.572 0.683,-0.632 1.41,-1.277 2.164,-1.935 -0.078,0.262 -0.152,0.52 -0.22,0.769 -2.203,8.682 1.296,17.104 0.518,25.916 5.779,-2.231 9.813,-12.475 12.66,-19.992 -0.276,4.673 0.118,9.308 0.816,13.124 0.442,2.57 1.007,9.318 2.894,11.092 -2.145,10.929 -3.845,21.948 -5.054,33.019 -0.325,-1.266 -0.602,-2.546 -0.96,-3.803 -0.215,-0.756 -0.496,-1.501 -0.797,-2.239 0.051,-1.138 0.129,-2.296 0.059,-3.405 -0.194,-5.248 -3.11,-11.856 -6.608,-15.841 -4.762,-5.442 -11.954,-7.58 -17.493,-12.051 1.555,2.138 2.526,4.859 3.79,7.192 3.984,7.58 7.289,15.938 14.772,20.603 1.896,1.111 3.43,2.278 4.593,3.891 0.373,0.891 0.723,1.791 1.017,2.71 0.502,1.568 0.849,3.147 1.449,4.654 -0.942,9.019001 -1.567,18.069001 -1.835,27.133001 -0.335,11.3 1.528,22.553 4.9,33.311 0.105,0.336 0.225,0.668 0.333,1.003 -2.474,-3.43 -5.406,-6.632 -8.151,-9.789 -0.645,-2.233 -1.051,-4.571 -1.528,-6.836 -5.831,-23.519 -28.573,-36.931 -48.0100003,-48.787001 5.4420003,3.887 7.1910003,12.246001 9.3290003,18.077001 5.442,14.578 11.857,25.851 25.852,33.237 5.349,2.841 10.553,5.544 15.614,8.963 3.869,4.626 7.58,9.331 10.428,14.764 0.475,1.167 0.96,2.329 1.454,3.485 2.367,5.543 4.637,11.389 8.034,16.394 0.399,0.588 1.395,0.235 1.183,-0.499 -1.197,-4.135 -3.134,-8.041 -4.943,-11.951 -0.621,-5.46 -0.219,-10.829 0.958,-16.109 1.496,-1.453 3.632,-2.486 5.176,-3.773 7.969,-6.025 16.132,-11.273 19.047004,-21.381 3.304998,-10.885 0.973,-24.102 -0.777,-35.181 -2.333004,2.912 -4.082004,6.411 -6.221004,9.521 z m -22.694,-88.771996 c -0.029,-0.295 -0.084,-0.586 -0.157,-0.873 0.371,0.015 0.706,0.028 1.017,0.042 -0.296,0.269 -0.584,0.545 -0.86,0.831 z m 9.431,6.386 c -0.245,-2.109 -0.741,-4.191 -1.576,-6.11 0.588,0.103 1.176,0.193 1.763,0.269 0.012,1.9 -0.07,3.855 -0.187,5.841 z m 5.591,-5.967 c 0.286,-0.077 0.562,-0.172 0.83,-0.282 0.308,0.602 0.646,1.194 1.021,1.776 -0.57,-0.539 -1.185,-1.039 -1.851,-1.494 z"
   id="path300" /></svg>
