<?xml version="1.0" encoding="UTF-8" standalone="no"?>
<!-- Generator: Adobe Illustrator 27.5.0, SVG Export Plug-In . SVG Version: 6.00 Build 0)  -->

<svg
   version="1.1"
   x="0px"
   y="0px"
   viewBox="0 0 112.79694 189.68898"
   xml:space="preserve"
   id="svg24"
   width="112.79694"
   height="189.68898"
   xmlns="http://www.w3.org/2000/svg"
   xmlns:svg="http://www.w3.org/2000/svg"><defs
   id="defs28" />

<path
   style="fill:#191919"
   d="m 2.4831204,150.42433 c 0.042,0.029 0.078,0.06 0.119,0.089 -0.026,-0.083 -0.119,-0.089 -0.119,-0.089 z"
   id="path5" /><path
   style="fill:#191919"
   d="m 2.6131204,150.55433 c 0.038,0.017 0.077,0.036 0.115,0.053 -0.042,-0.03 -0.083,-0.063 -0.126,-0.093 0.004,0.012 0.011,0.022 0.011,0.04 z"
   id="path7" />
<path
   style="fill:#191919"
   d="m 112.51867,46.008385 c -1.315,-0.712 -2.667,-0.662 -4.079,-0.514 0.114,-0.034 0.232,-0.059 0.342,-0.106 0.232,-0.099 0.344,-0.438 0.271,-0.665 -0.238,-0.733 -0.711,-1.233 -1.338,-1.558 0.339,-0.216 0.663,-0.452 0.957,-0.732 0.385,-0.367 0.051,-0.883 -0.39,-0.939 -1.972,-0.256 -3.817,0.686 -5.639,1.354 -0.109,0.04 -0.22,0.081 -0.329,0.121 -0.375,0.072 -0.745,0.152 -1.11,0.24 0.931,-0.5 1.886,-0.955 2.881,-1.341 1.483,-0.577 3.755,-0.523 4.435,-2.149 0.108,-0.257 -0.032,-0.561 -0.198,-0.751 -1.251,-1.434 -4.026,-0.003 -5.464,0.587 0.155,-0.227 0.297,-0.463 0.401,-0.729 0.087,-0.22 -0.094,-0.526 -0.323,-0.568 -0.054,-0.01 -0.105,-0.002 -0.159,-0.008 0.246,-0.551 0.375,-1.132 0.278,-1.75 -0.054,-0.342 -0.509,-0.585 -0.825,-0.469 -1.326,0.485 -2.101,1.928 -2.892001,3.102 0.007,-0.015 0.014,-0.03 0.021,-0.045 0.565,-1.119 1.638001,-2.127 1.870001,-3.374 0.072,-0.389 -0.161,-0.667 -0.543,-0.713 -0.945001,-0.111 -1.679001,0.295 -2.262001,0.968 -0.064,0.012 -0.126,0.032 -0.182,0.067 -1.519,0.957 -2.072,2.536 -2.627,4.177 -0.087,0.258 -0.16,0.522 -0.241,0.783 0.242,-0.997 0.53,-1.984 0.842,-2.965 0.454,-1.434 1.175,-2.856 0.75,-4.364 -0.145,-0.513 -0.726,-0.595 -1.101,-0.29 -0.986,0.802 -1.429,2.107 -1.78,3.372 -0.128,-1.109 -0.388,-2.181 -0.946,-3.172 -0.241,-0.428 -0.806,-0.277 -0.96,0.125 -0.153,0.398 -0.261,0.809 -0.35,1.224 -0.098,-0.141 -0.201,-0.279 -0.321,-0.413 -0.293,-0.328 -0.974,-0.187 -1.047,0.276 -0.18,1.132 -0.088,2.29 0.018,3.445 -0.021,-0.124 -0.042,-0.249 -0.064,-0.374 -0.372,-2.133 -0.709,-4.346 -2.346,-5.884 -0.396,-0.372 -1.084,-0.118 -1.08,0.448 0.005,0.919 0.137,1.838 0.319,2.753 -0.084,-0.139 -0.159,-0.282 -0.247,-0.419 -0.018,-0.028 -0.045,-0.042 -0.065,-0.067 -0.042,-0.09 -0.086,-0.182 -0.128,-0.271 -0.655,-1.376 -1.304,-2.954 -2.671,-3.763 -0.425,-0.251 -0.95,0.073 -0.962,0.552 -0.04,1.729 0.953,3.461 1.7,4.972 0.347,0.7 0.738,1.346 1.166,1.961 0.036,0.119 0.071,0.238 0.108,0.358 -2.002,-2.118 -4.339,-4.494 -6.898,-5.672 -0.544,-0.251 -1.069,0.255 -0.806,0.805 0.618,1.291 1.612,2.397 2.699,3.423 -0.156,-0.006 -0.311,-0.023 -0.47,-0.012 -0.566,0.041 -0.847,0.668 -0.456,1.102 1.52,1.684 3.625,2.856 5.289,4.424 -1.699,-0.545 -3.458,-0.837 -5.137,-0.678 -0.345,0.033 -0.668,0.503 -0.322,0.778 2.562,2.033 6.128,3.108 9.308,4.004 -1.107,1.926 -1.397,4.784 0.033,6.41 0.401,0.457 0.851,0.781 1.323,1.014 -4.262,5.623 -8.768,11.027 -13.181,16.541 0.005,-1.733 -0.11,-3.494 -0.338,-5.263 0.224,-0.51 0.528,-1.005 0.701,-1.487 0.671,-1.862 1.188,-3.955 1.273,-5.937 0.145,-3.367 -1.478,-6.315 -3.279,-9.043 -0.97,-1.467 -2.01,-2.888 -3.094,-4.271 -0.534,-0.682 -1.081,-1.354 -1.636,-2.02 -0.291,-0.351 -1.657,-1.538 -1.657,-1.959 0,2.498 -0.066,4.996 -0.202,7.494 -0.202,3.241 -1.215,7.022 -0.27,10.263 1.104,3.769 4.647,6.037 7.5,8.369 0.209,1.516 0.345,3.041 0.432,4.569 -3.547,4.48 -6.81,9.299 -8.754,14.671 -0.793,-15.246 -3.284,-30.404 -7.398,-45.026 0.373,-1.465 0.829,-2.861 1.478,-4.233 1.434,-0.811 3.241,-1.105 4.717,-1.844 3.713,-1.891 4.996,-6.278 5.468,-10.262 -2.092,3.105 -6.75,3.24 -8.978,6.48 -0.864,1.244 -1.547,3.131 -1.72,4.807 -0.626,1.191 -1.105,2.447 -1.358,3.713 -1.259,-4.36 -2.653,-8.674 -4.196,-12.924 1.334,-0.442 2.578,-1.452 3.043,-2.603 0.518,-1.284 0.871,-3.203 0.749,-4.99 0.791,0.337 1.587,0.664 2.4,0.962 2.089,0.766 4.361,1.769 6.618,1.667 0.463,-0.021 0.845,-0.658 0.416,-1.005 -1.325,-1.074 -2.923,-1.538 -4.536,-2.029999 1.741,0.088 3.527,0.267 5.168,-0.199 0.447,-0.126 0.482,-0.693 0.122,-0.937 -0.079,-0.054 -0.164,-0.091 -0.245,-0.14 0.254,-0.038 0.506,-0.085 0.756,-0.148 0.487,-0.125 0.625,-0.877 0.146,-1.111 -1.58,-0.773 -3.269,-0.814 -4.998,-0.88 0.833,-0.303 1.646,-0.64 2.4,-1.054 0.21,-0.073 0.419,-0.151 0.623,-0.243 0.156,-0.07 0.228,-0.187 0.245,-0.313 0.216,-0.142 0.447,-0.265 0.653,-0.418 0.336,-0.25 0.289,-0.952 -0.243,-0.896 -0.685,0.071 -1.349,0.211 -2.006,0.375 -0.63,-0.103 -1.284,-0.117 -1.946,-0.067 0.775,-0.25 1.525,-0.545 2.21,-0.932 0.268,-0.151 0.219,-0.586 -0.086,-0.659 -0.572,-0.139 -1.154,-0.166 -1.738,-0.128 0.738,-0.565 1.436,-1.1690003 2.044,-1.8580003 0.26,-0.295 0.017,-0.858 -0.412,-0.709 -1.709,0.595 -3.407,1.45 -5.058,2.4260003 1.674,-1.5640003 3.129,-3.2710003 4.077,-5.2110003 0.183,-0.374 -0.177,-0.893 -0.58,-0.721 0.171,-0.32 0.329,-0.645 0.454,-0.982 0.201,-0.541 -0.476,-0.957 -0.921,-0.708 -1.898,1.063 -3.207,3.053 -4.554,4.718 -0.667,0.824 -1.328,1.654 -1.988,2.4840003 1.444,-3.1460003 3.4,-5.9640003 4.832,-9.2600003 0.167,-0.38199996 -0.209,-0.93999996 -0.641,-0.64099996 -1.756,1.21799996 -3.265,2.94899996 -4.483,4.91399996 0.011,-0.107 0.027,-0.212 0.032,-0.322 0.379,-1.061 0.834,-2.077 0.675,-3.224 -0.05,-0.352 -0.553,-0.523 -0.828,-0.337 -0.63,0.427 -1.065,1.065 -1.392,1.791 -0.006,-0.593 -0.054,-1.184 -0.163,-1.772 -0.122,-0.65799996 -0.987,-0.506 -1.184,0 -0.358,0.925 -0.685,1.902 -0.985,2.905 -0.446,-0.771 -1.042,-1.458 -1.831,-2.004 -0.379,-0.262 -0.749,-0.034 -0.909,0.303 -0.334,-0.941 -0.781,-1.81899996 -1.426,-2.58799996 -0.364,-0.435 -1.031,-0.059 -1.048,0.435 -0.051,1.48799996 0.158,2.98099996 0.409,4.46399996 -0.668,-1.476 -1.531,-2.813 -2.703,-3.886 -0.457,-0.41699996 -1.168,-0.009 -1.025,0.598 0.115,0.492 0.258,0.976 0.399,1.46 -0.181,0.037 -0.342,0.163 -0.416,0.362 -0.569,1.535 0.287,3.479 0.811,4.929 0.211,0.584 0.471,1.137 0.754,1.6750003 -0.084,0.059 -0.14,0.147 -0.151,0.263 -0.227,-0.288 -0.442,-0.5710003 -0.647,-0.8430003 -1.151,-1.528 -2.157,-4.513 -4.024,-5.232 -0.383,-0.147 -0.717,0.163 -0.85,0.481 -0.61,1.467 0.546,3.416 1.797,5.036 -1.087,-0.471 -2.208,-0.771 -3.359,-0.801 -0.524,-0.013 -0.812,0.676 -0.43,1.0370003 0.635,0.6 1.333,1.12 2.05,1.615 -1.243,-0.52 -2.506,-0.985 -3.81,-1.336 -0.52,-0.139 -0.864,0.499 -0.512,0.878 0.303,0.326 0.629,0.639 0.964,0.945 -0.485,0.187 -0.803,0.847 -0.318,1.247 1.511,1.247 3.456,1.959 5.181,2.872 0.354,0.188 0.702,0.387 1.05,0.586 -1.032,-0.253 -2.066,-0.501 -3.101,-0.752 -1.514,-0.367 -3.353,-1.521 -4.888,-1.018 -0.423,0.139 -0.543,0.546 -0.379,0.93 0.221,0.516 0.618,0.878 1.094,1.152 -0.621,0.078 -1.234,0.182 -1.831,0.342 -0.653,0.175 -0.562,1.019 0,1.232 0.978,0.371999 2.016,0.634999 3.086,0.818999 -0.599,0.362 -1.144,0.816 -1.61,1.389 -0.306,0.374 -0.14,1.015 0.416,1.005 1.293,-0.025 2.569,-0.205 3.845,-0.408 -1.714,0.807 -3.143,1.93 -3.635,3.575 -0.164,0.548 0.371,1.022 0.896,0.896 1.588,-0.382 2.996,-1.563 4.469,-2.269 1.713,-0.82 3.56,-1.408 5.348,-2.047 0.045,-0.016 0.07,-0.045 0.11,-0.064 1.22,2.169 3.243,4.871 5.778,5.198 0.316,0.041 0.646,0.019 0.978,-0.029 2.375,7.408 4.416,14.893 6.095,22.438 -1.468,-1.911 -2.763,-3.808 -4.67,-5.472 -2.179,-1.902 -4.597,-3.646 -7.086,-5.141 0.287,-1.457 -1.228,-3.597 -2.668,-3.9 -0.068,-0.014 -0.138,-0.016 -0.207,-0.024 0.38,-0.959 1.046,-2.122 0.592,-3.026 -0.085,-0.169 -0.342,-0.194 -0.468,-0.06 -0.336,0.362 -0.463,0.848 -0.602,1.315 0.002,-0.695 -0.092,-1.375 -0.416,-1.958 -0.097,-0.174 -0.341,-0.12 -0.4,0.052 -0.304,0.891 -0.273,1.94 -0.182,2.938 -0.302,-0.953 -0.72,-1.896 -1.436,-2.422 -0.146,-0.106 -0.406,0.034 -0.382,0.218 0.068,0.514 0.283,0.977 0.498,1.443 -0.294,-0.44 -0.626,-0.838 -1.028,-1.132 -0.145,-0.105 -0.303,0.068 -0.274,0.211 0.125,0.615 0.472,1.149 0.792,1.68 0.109,0.183 0.229,0.358 0.342,0.539 -0.161,-0.208 -0.319,-0.418 -0.464,-0.644 -0.309,-0.482 -0.514,-1.075 -1.053,-1.344 -0.122,-0.061 -0.292,-0.015 -0.325,0.133 -0.131,0.581 0.171,1.102 0.467,1.588 -0.3,-0.317 -0.669,-0.633 -1.071,-0.514 -0.09,0.026 -0.172,0.1 -0.193,0.194 -0.135,0.592 0.598,1.142 0.981,1.5 0.303,0.283 0.638,0.517 0.99,0.72 -0.399,-0.134 -0.792,-0.288 -1.174,-0.482 -0.419,-0.212 -0.909,-0.637 -1.4,-0.463 -0.094,0.034 -0.165,0.111 -0.164,0.217 0.005,0.566 0.627,0.862 1.068,1.094 0.164,0.086 0.34,0.142 0.51,0.212 -0.767,0.033 -1.518,0.206 -2.014,0.733 -0.134,0.143 -0.083,0.394 0.117,0.444 1.062,0.269 2.336,-0.048 3.438,-0.087 0.109,0.369 0.345,0.731 0.749,1.061 1.033,0.843 2.688,1.335 3.996,1.038 0.604,-0.137 0.98,-0.423 1.197,-0.786 2.069,1.81 4.397,3.327 6.518,5.079 -0.812,-0.17 -1.743,-0.074 -2.65,0.137 -1.03,-0.201 -2.161,-0.544 -3.051,-0.283 -1.89,0.539 -2.902,3.443 -4.658,4.726 2.444,-0.13 7.27,-1.242 8.422,-3.799 1.078,-0.086 2.026,0.062 3.106,0.278 1.6,1.601 2.881,3.462 4.487,5.034 1.829,8.402 3.195,16.88 4.037,25.419 -0.99,-1.629 -2.819,-2.961 -4.58,-4.099 -0.299,-0.577 -0.547,-1.173 -0.822,-1.77 -4.254,-8.372 -16.946,-9.858 -24.71,-13.301 1.013,2.025 2.093,4.051 3.106,6.145 1.215,2.498 2.431,5.266 5.132,6.549 2.497,1.147 5.266,0.54 7.898,0.742 2.539,0.212 5.405,0.8 7.99,1.661 2.351,1.541 4.655,3.278 6.127,5.486 0.93,10.137 1.12,20.357 0.458,30.633995 -1.073,16.665 -4.719,32.527 -9.917,47.97 -2,-8.381 -5.113,-16.359 -8.897,-24.062 0.285,-3.162 0.507,-6.488 0.543,-9.854 0.629,-1.458 1.542,-2.718 2.571,-3.898 1.51,-0.468 3.272,-0.492 4.771,-1.15 3.78,-1.688 5.333,-4.861 6.616,-8.507 -2.16,2.701 -6.144,0.945 -8.642,3.578 -1.435,1.542 -2.327,3.378 -3.201,5.208 -0.831,0.974 -1.564,2.01 -2.113,3.082 -0.055,-5.975 -0.772,-11.988 -2.871,-17.302 0.917,-0.488 1.594,-1.416 1.969,-2.514 0.288,-0.846995 0.456,-1.766995 0.634,-2.652995 1.079,-0.087 2.172,-0.088 3.239,0.003 0.624,0.053 2.32,0.049 2.089,-1.03 -0.029,-0.139 -0.078,-0.26 -0.136,-0.374 0.795,-0.085 1.576,-0.229 2.275,-0.639 0.308,-0.18 0.377,-0.747 0,-0.907 -1.121,-0.477 -2.454,-0.436 -3.793,-0.205 0.372,-0.258 0.677,-0.574 0.883,-0.958 0.708,-0.269 1.401,-0.564 1.99,-1.012 0.45,-0.343 0.489,-1.138 -0.17,-1.296 -0.87,-0.209 -1.767,-0.072 -2.633,0.216 0.997,-0.834 1.957,-1.783 2.379,-3.009 0.171,-0.495 -0.341,-0.859 -0.778,-0.778 -1.37,0.251 -2.508,1.254 -3.532,2.158 0.358,-0.854 0.559,-1.749 0.114,-2.563 -0.107,-0.198 -0.389,-0.328 -0.607,-0.247 -0.772,0.286 -1.254,0.944 -1.621,1.695 -0.199,-0.198 -0.532,-0.274 -0.771,-0.12 0.04,-0.763 -0.065,-1.489 -0.393,-2.128 -0.142,-0.278 -0.609,-0.36 -0.814,-0.105 -0.247,0.306 -0.433,0.629 -0.586,0.963 -0.151,-0.392 -0.352,-0.773 -0.629,-1.137 -0.389,-0.511 -1.23,-0.379 -1.25,0.338 -0.052,1.839 -0.211,3.823 -0.079,5.741 -0.146,-0.628 -0.278,-1.259 -0.393,-1.898 -0.312,-1.756 -0.216,-3.539 -0.985,-5.177 -0.153,-0.327 -0.725,-0.336 -0.875,0 -0.778,1.741 -0.696,3.896 -0.208,5.974 -0.109,-0.151 -0.234,-0.289 -0.359,-0.425 -0.042,-0.121 -0.078,-0.241 -0.121,-0.361 -0.544,-1.529 -1.06,-3.04 -2.252,-4.188 -0.384,-0.371 -0.922,-0.077 -0.972,0.402 -0.075,0.712 -0.021,1.453 0.119,2.205 -0.081,-0.044 -0.166,-0.085 -0.26,-0.113 -0.264,-0.083 -0.583,0.048 -0.715,0.29 -0.122,0.225 -0.172,0.463 -0.176,0.706 -0.163,-0.243 -0.343,-0.473 -0.555,-0.673 -0.479,-0.452 -1.423,-0.308 -1.565,0.414 -0.213,1.076 0.216,2.156 0.811,3.102 -1.93,-1.077 -3.935,-1.849 -5.863,-1.411 -0.338,0.077 -0.508,0.594 -0.217,0.825 1.33,1.064 2.944,1.723 4.453,2.516 -0.841,-0.076 -1.679,-0.06 -2.449,0.245 -0.434,0.171 -0.625,0.679 -0.275,1.047 1.744,1.835 5.294,1.954 7.912,1.706 0.073,2.313 3.234,5.334995 5.021,5.681995 0.395,0.077 0.761,0.069 1.109,0.022 1.205,4.692 1.966,9.356 2.128,14.256 0.129,3.874 -0.194,7.792 -0.063,11.673 -0.759,-1.478 -1.534,-2.948 -2.335,-4.408 -5.542,-10.104 -11.78,-20.493 -19.157,-29.394995 0.387,-0.331 0.702,-0.751 0.918,-1.225 0.984,-2.169 0.41,-4.92 0.051,-7.201 2.65,0.206 6.28,0.022 8.361,-1.569 0.424,-0.324 0.268,-0.901 -0.262,-0.967 -1.301,-0.16 -2.608,0.285 -3.875,0.547 -0.653,0.135 -1.311,0.235 -1.971,0.309 0.185,-0.135 0.367,-0.273 0.553,-0.406 1.151,-0.824 2.676,-1.301 3.665,-2.302 0.293,-0.296 0.167,-0.836 -0.248,-0.941 -0.512,-0.129 -1.026,-0.123 -1.538,-0.029 1.286,-1.034 2.661,-2.217 3.128,-3.788 0.125,-0.421 -0.311,-0.922 -0.755,-0.755 -1.76,0.659 -3.222,2.25 -4.642,3.449 -0.882,0.745 -1.724,1.482 -2.522,2.261 0.061,-0.103 0.129,-0.196 0.188,-0.302 0.029,-0.053 0.061,-0.109 0.092,-0.163 0.453,-0.466 0.88,-0.965 1.291,-1.51 0.893,-1.183 2.177,-2.806 2.191,-4.358 0.004,-0.477 -0.528,-0.764 -0.934,-0.536 -0.586,0.331 -1.034,0.882 -1.42,1.486 -0.087,-0.037 -0.182,-0.053 -0.288,-0.009 -0.443,0.186 -0.802,0.451 -1.112,0.763 0.008,-0.041 0.015,-0.082 0.022,-0.123 0.368,-1.821 1.233,-3.465 1.666,-5.257 0.082,-0.336 -0.27,-0.613 -0.575,-0.443 -1.418,0.786 -2.244,2.187 -2.732,3.791 -0.26,-0.102 -0.586,-0.033 -0.768,0.224 -0.051,0.071 -0.086,0.156 -0.132,0.23 0.185,-1.179 0.218,-2.329 -0.23,-3.339 -0.21,-0.471 -0.816,-0.32 -1.061,0 -0.708,0.927 -0.834,2.113 -0.974,3.25 -0.322,0.892 -0.316,1.854 -0.291,2.873 0.027,1.088 0.058,2.155 0.04,3.221 -0.115,-0.989 -0.12,-2.005 -0.178,-2.947 -0.087,-1.428 -0.077,-3.512 -1.452,-4.354 -0.167,-0.102 -0.337,-0.101 -0.492,-0.052 -0.122,-0.385 -0.254,-0.768 -0.41,-1.145 -0.204,-0.492 -0.813,-0.502 -1.013,0 -0.164,0.41 -0.28,0.831 -0.357,1.263 -0.476,-1.135 -1.016,-2.229 -1.651,-3.241 -0.226,-0.358 -0.864,-0.24 -0.838,0.227 0.122,2.106 0.653,4.213 1.337,6.282 -0.538,-0.907 -1.116,-1.786 -1.821,-2.581 -0.317,-0.357 -0.798,-0.037 -0.843,0.349 -0.133,1.144 0.087,2.158 0.481,3.139 -0.073,-0.059 -0.139,-0.128 -0.214,-0.184 -0.296,-0.217 -0.752999,0.074 -0.733,0.421 0.045,0.84 0.331,1.637 0.731,2.38 -1.084999,-1.01 -2.242999,-1.909 -3.4889993,-2.583 -0.37,-0.201 -0.691,0.188 -0.537,0.537 0.276,0.625 0.616,1.24 0.9820003,1.848 -0.5420003,-0.496 -1.1300003,-0.922 -1.8150003,-1.141 -0.352,-0.112 -0.653,0.096 -0.777,0.39 -0.368,-0.297 -0.749,-0.579 -1.161,-0.823 -0.313,-0.186 -0.641,0.117 -0.575,0.443 0.227,1.132 0.801,2.154 1.572,3.087 -0.816,-0.314 -1.642,-0.564 -2.482,-0.692 -0.455,-0.07 -0.848,0.44 -0.475,0.815 0.661,0.662 1.425,1.246 2.239,1.776 -2.104,-0.715 -4.21,-1.426 -6.341,-2.064 -0.267,-0.08 -0.514,0.297 -0.283,0.487 1.394,1.144 2.964,2.037 4.617,2.785 -0.339,0.036 -0.678,0.088 -1.014,0.178 -0.371,0.1 -0.397,0.578 -0.101,0.775 1.014,0.677 2.241,1.194 3.55,1.602 -1.136,0.1 -2.25,0.27 -3.311,0.599 -0.345,0.106 -0.417,0.574 -0.101,0.763 0.932,0.557 1.964,0.908 3.044,1.113 -0.971,0.488 -1.766,1.202 -1.777,2.24 -0.004,0.283 0.195,0.533 0.464,0.61 1.306,0.374 2.726,-0.671 3.949,-1.048 0.125,-0.038 0.257,-0.065 0.383,-0.101 -1.555,1.013 -2.791,2.353 -3.209,4.106 -0.101,0.42 0.263,0.771 0.677,0.677 1.758,-0.395 3.0240003,-1.716 4.4630003,-2.724 0.199,-0.14 0.409,-0.277 0.614,-0.417 -0.799,1.044 -1.47,2.158 -1.869,3.351 -0.136,0.404 0.39,0.85 0.753,0.579 2.058999,-1.534 4.050999,-3.561 5.609999,-5.704 0.378,0.252 0.787,0.479 1.218,0.691 1.67,0.82 2.962,1.872 4.969,1.828 0.353,-0.008 0.683,-0.085 0.99,-0.208 4.665,8.397995 10.373,16.216995 15.405,24.424995 -1.596,-0.912 -3.28,-1.736 -4.962,-2.45 -0.093,-0.04 -0.188,-0.074 -0.282,-0.113 -2.919,-2.768 -5.688,-5.104 -9.907,-5.679 -5.333,-0.744 -10.802,0.742 -16.1349993,0.742 4.0510003,2.565 7.8309993,6.347 12.2199993,8.101 4.185,1.755 7.358,-0.405 11.207,-1.891 0.545,-0.227 1.124,-0.404 1.711,-0.549 1.654,0.63 3.229,1.422 4.813,2.212 0.685,0.341 1.477,0.672 2.207,1.082 0.523,0.874 1.049,1.747 1.553,2.632 3.55,6.241 6.673,12.702 9.338,19.349 -1.025,-0.887 -2.109,-1.72 -3.253,-2.489 -0.191,-0.354 -0.366,-0.74 -0.656,-1.126 -4.253,-6.684 -12.76,-8.506 -20.659,-8.506 4.558,2.532 8.102,7.595 12.659,9.519 2.44,0.939 5.14,0.494 7.698,0.665 1.649,0.971 3.25,2.025 4.748,3.262 1.595,4.088 3.007,8.249 4.233,12.474 -2.229,6.466 -4.725,12.862 -7.417,19.213 -0.033,-1.82 -0.563,-3.682 -1.289,-5.448 0.786,-1.514 1.371,-3.282 1.731,-4.961 2.296,-12.692 -15.662,-17.283 -23.764,-22.819 4.996,6.887 3.78,16.338 10.802,22.279 2.436,1.992 6.409,2.898 8.954,5.018 1.146,2.782 1.803,5.662 2.228,8.889 0.005,0.035 0.029,0.053 0.039,0.085 -1.323,3.046 -2.686,6.085 -4.086,9.118 -0.263,0.568 0.522,1.054 0.854,0.499 2.776,-4.655 5.304,-9.434 7.596,-14.312 2.671,-1.348 5.373,-2.629 7.984,-4.072 3.523,-1.194 7.031,-1.863 10.762,-1.934 0.166,-0.003 0.328,0.005 0.493,0.005 3.554,2.309 5.363,7.029 9.869,8.316 5.942,1.756 13.639,-1.62 19.444001,-2.565 -3.241001,-1.62 -6.482001,-2.97 -9.451001,-5.131 -5.401,-3.915 -8.372,-5.94 -15.123,-3.375 -2.441,0.845 -4.758,1.49 -7.165,2.079 -2.076,0.126 -4.186,0.444 -6.181,1.052 0.682,-0.427 1.356,-0.868 2.016,-1.336 4.354,-3.09 7.958,-7.119 11.196,-11.328 0.775,-1.008 1.514,-2.043 2.236,-3.088 1.641,-0.976 3.533,-1.585 5.363,-2.232 1.655,-0.239 3.218,-0.167 4.81,0.156 2.494,5.68 8.683,10.283 15.269001,6.662 -0.945,-0.946 -2.362,-1.351 -3.309001,-2.43 -1.215,-1.283 -1.62,-3.174 -3.104,-4.321 -2.045,-1.547 -5.083,-1.015 -7.674,-0.585 -1.203,-0.29 -2.437,-0.434 -3.659,-0.393 2.735,-1.195 5.628,-2.632 7.874,-4.629 0.069,0.07 0.138,0.14 0.218,0.207 0.882,0.734 2.244,0.962 3.33,0.727 1.209,-0.262 2.838,-0.986 3.855001,-2.044 0.499,0.497 0.985,1.012 1.383,1.585 0.24,0.346 0.931,1.601 1.503,1.027 0.57,-0.57 -0.149,-1.57 -0.533,-2.042 -0.112,-0.138 -0.232,-0.266 -0.352,-0.394 0.126,0.064 0.256,0.119 0.38,0.185 0.738,0.393 1.432,0.858 2.247,1.075 0.226,0.06 0.406,-0.185 0.296,-0.386 -0.266,-0.483 -0.663,-0.878 -1.124,-1.216 0.647,0.097 1.333,0.303 1.932,0.117 0.213,-0.066 0.296,-0.293 0.198,-0.488 -0.115,-0.229 -0.29,-0.389 -0.495,-0.509 0.056,-0.023 0.113,-0.03 0.167,-0.06 0.168,-0.091 0.225,-0.373 0.065,-0.502 -0.176,-0.142 -0.364,-0.231 -0.558,-0.301 0.219,-0.015 0.429,-0.061 0.618,-0.159 0.148,-0.077 0.182,-0.273 0.107,-0.411 -0.411,-0.762 -1.484,-0.817 -2.261,-0.92 -0.109,-0.015 -0.221,-0.018 -0.33,-0.028 0.353,-0.108 0.68,-0.267 0.956,-0.504 0.528,-0.021 1.052,-0.05 1.546,-0.265 0.203,-0.088 0.21,-0.392 0.069,-0.532 -0.877,-0.869 -2.407,-0.607 -3.787,-0.311 0.13,-0.047 0.262,-0.091 0.391,-0.141 0.544,-0.211 1.106,-0.38 1.52,-0.781 0.296,-0.152 0.543,-0.352 0.669,-0.64 0.079,-0.181 0.056,-0.39 -0.131,-0.498 -0.804,-0.467 -1.877,0.181 -2.669,0.468 -0.301,0.109 -0.613,0.22 -0.924,0.339 0.131,-0.139 0.272,-0.263 0.396,-0.414 0.485,-0.59 1.017,-1.311 0.843,-2.108 -0.04,-0.186 -0.246,-0.226 -0.395,-0.161 -0.657,0.289 -0.968,1.005 -1.354,1.57 -0.011,0.016 -0.023,0.032 -0.034,0.048 0.007,-0.035 0.016,-0.069 0.023,-0.104 0.118,-0.63 0.285,-1.362 -0.092,-1.928 -0.125,-0.188 -0.372,-0.229 -0.541,-0.069 -0.297,0.279 -0.406001,0.64 -0.472001,1.019 -10e-4,-0.025 -0.005,-0.049 -0.005,-0.074 -0.011,-0.691 0.064,-1.309 -0.107,-1.987 -0.046,-0.183 -0.309,-0.265 -0.439,-0.116 -0.938,1.07 -0.777,2.755 -0.295,4.061 -2.064,-0.407 -3.771,1.531 -5.025,2.845 -1.078,1.131 -2.016,2.871 -1.199,4.286 -3.056,1.369 -5.872,3.289 -8.931,4.677 -1.723,0.782 -3.627,1.36 -5.315,2.263 5.293,-7.999 9.233,-16.926 12.848,-25.753 0.033,-0.08 0.025,-0.152 -0.001,-0.215 0.403,0.08 0.838,0.083 1.299,-0.017 1.266,-0.274 2.823,-0.963 3.891,-1.777 1.032,0.813 2.072,1.616 3.161,2.351 1.424001,0.962 3.032001,2.195 4.816001,2.202 0.513,0.002 0.845,-0.578 0.585,-1.019 -0.575,-0.978 -1.539,-1.639 -2.529,-2.219 0.369,-0.033 0.565,-0.386 0.402,-0.72 -0.096,-0.198 -0.214,-0.379 -0.346,-0.548 1.618,0.525 3.214,1.347 4.926,1.424 0.604,0.027 0.766,-0.686 0.448,-1.081 -0.812,-1.005 -1.993,-1.669 -3.321,-2.15 1.78,0.301 3.473,0.738 5.272,0.378 0.59,-0.118 0.564,-0.879 0.152,-1.168 -2.233,-1.567 -5.546,-2.106 -8.715,-2.103 2.138,-0.526 4.654,-0.641 6.559,-1.716 0.4,-0.227 0.439,-0.898 0,-1.115 -1.484,-0.731 -3.248,-0.678 -5.066,-0.284 1.061,-0.431 2.065,-0.97 2.788,-1.852 0.344,-0.418 0.104,-0.926 -0.411,-0.994 -1.759,-0.232 -3.512,0.523 -5.126,1.222 0.299,-0.251 0.595,-0.507 0.898,-0.751 1.107,-0.893 2.34,-1.722 3.253,-2.821 0.271,-0.326 0.129,-0.937 -0.376,-0.907 -0.973,0.057 -1.878,0.393 -2.724,0.887 0.436,-0.663 0.819,-1.352 1.088,-2.083 0.209,-0.57 -0.467,-0.879 -0.902,-0.693 -1.161,0.496 -2.065001,1.375 -2.867001,2.349 0.017,-0.134 0.047,-0.267 0.049,-0.401 0.009,-0.483 -0.564,-0.828 -0.981,-0.564 -0.063,0.04 -0.114,0.096 -0.174,0.14 0.389,-0.987 0.671,-2 0.593,-3.087 -0.033,-0.456 -0.607,-0.79 -0.961,-0.398 -0.26,0.287 -0.485,0.601 -0.696,0.926 -0.006,-0.064 -0.003,-0.126 -0.011,-0.19 -0.065,-0.557 -0.755,-0.82 -1.086,-0.294 -0.38,0.604 -0.766,1.28 -1.138,2.002 0.16,-1.099 0.055,-2.121 -0.635,-2.875 -0.283,-0.311 -0.835,-0.306 -1.119,0 -0.549,0.59 -0.751,1.355 -0.888,2.143 -0.106,-0.682 -0.309,-1.335 -0.814,-1.82 -0.272,-0.261 -0.794,-0.244 -0.975,0.125 -0.356,0.73 -0.358,1.574 -0.271,2.412 -0.424,-1.023 -0.947,-1.978 -1.605,-2.793 -0.464,-0.575 -1.606,-0.123 -1.513,0.627 0.229,1.817 0.86,3.52 1.389,5.267 0.03,0.099 0.056,0.198 0.085,0.297 -0.761,-1.229 -1.711,-2.609 -3.085,-2.994 -0.443,-0.125 -1.019,0.236 -0.969,0.738 0.138,1.401 1.143,2.523 1.909,3.663 0.169,0.252 0.33,0.508 0.493,0.764 -1.707,-0.897 -3.563,-1.424 -5.376,-1.165 -0.446,0.064 -0.589,0.738 -0.268,1.016 1.23,1.063 2.801,1.725 4.248,2.456 1.244,0.628 2.478,1.311 3.699,2.001 -0.383,1.57 0.19,3.546 0.623,4.962 0.302,0.988 0.942,1.733 1.784,2.085 -0.039,0.026 -0.073,0.061 -0.099,0.109 -3.64,6.99 -6.992,14.135 -10.954,20.94 0.408,-1.607 0.624,-3.23 0.631,-4.867 0.227,-0.506 0.463,-1.012 0.699,-1.518 1.283,-2.633 2.768,-5.4 2.431,-8.371 -0.54,-4.929 -4.523,-10.329 -8.169,-13.436 0.202,4.524 -3.376,8.844 -1.958,13.299 1.31,3.93 4.763,6.599 6.202,10.391 -0.022,1.866 -0.267,3.74 -0.588,5.693 -0.003,0.018 0.008,0.028 0.009,0.043 -1.126,1.885 -2.29,3.748 -3.538,5.563 -2.538,3.692 -5.479,7.053 -8.767,10.07 0.764,-1.801 1.021,-3.82 1.132,-5.788 1.055,-7.419 5.74,-15.439 -1.675,-21.989 -0.81,4.725 -4.455,11.207 -3.105,15.932 0.918,3.278 3.989,5.161 3.921,8.728 -0.209,1.361 -0.567,2.686 -1.147,3.886 -0.528,0.466 -1.039,0.949 -1.586,1.397 -3.611,2.957 -7.928,4.646 -11.9,6.928 8.705,-19.129 13.771,-39.756 15.465,-60.717 1.719,-1.654 3.23,-3.478 4.603,-5.417 0.651,-0.342 1.335,-0.613 1.988,-0.847 4.321,-1.553 8.776,-2.633 11.612,-6.683995 3.308,-4.793 2.498,-12.017 2.7,-17.621 -2.025,1.418 -3.646,3.713 -5.536,5.333 -2.835,2.43 -5.738,4.524 -7.967,7.561 -2.025,2.768 -3.713,5.805995 -3.915,9.248995 -0.105,1.049 -0.011,2.14 -0.024,3.239 -1.04,1.555 -2.154,3.064 -3.407,4.488 0.6,-7.765 0.75,-15.570995 0.439,-23.362995 1.68,-4.35 3.943,-8.311 6.572,-12.067 0.014,-0.006 0.025,-0.007 0.039,-0.015 1.929,-1.207 3.996,-2.212 6.057,-3.174 1.073,-0.502 2.198,-0.882 3.314,-1.28 0.23,0.234 0.566,0.419 1.049,0.526 1.628,0.361 3.6,-0.174 5.189,-0.569 0.962,-0.24 1.802,-0.546 2.395,-1.106 0.388,0.332 0.761,0.68 1.136,1.026 0.317,0.293 1.069,0.948 1.487,0.436 0.538,-0.661 -0.156,-1.462 -0.851,-2.063 0.335,0.104 0.669,0.209 1.003,0.319 0.551,0.181 1.739,0.569 1.974,-0.283 0.294,-1.069 -1.13,-1.512 -2.441,-1.712 0.682,-0.181 1.308,-0.48 1.733,-0.987 0.13,-0.156 0.17,-0.404 0,-0.556 -0.677,-0.6 -1.504,-0.57 -2.343,-0.386 0.4,-0.244 0.749,-0.533 0.973,-0.89 0.32,-0.51 -0.112,-1.022 -0.621,-1.084 -0.662,-0.08 -1.247,0.271 -1.833,0.531 -0.073,0.033 -0.145,0.075 -0.218,0.11 0.299,-0.926 0.538,-1.967 -0.131,-2.547 -0.189,-0.162 -0.392,-0.18 -0.614,-0.079 -0.554,0.252 -0.824,0.994 -0.955,1.546 -0.122,0.517 -0.189,1.011 -0.182,1.516 -1.96,-0.264 -3.802,0.652 -5.323,1.955 -0.735,0.629 -1.615,1.851 -1.789,2.921 -2.751,0.837 -5.426,2.433 -7.755,4.065 1.382,-1.872 2.833,-3.708 4.336,-5.529 3.913,-4.738 8.223,-9.318 11.321,-14.648 2.19,0.362 4.653,-0.946 6.101,-2.55 1.079,1.093 2.146001,2.199 3.190001,3.321 1.185,1.273 2.55,3.854 4.443,3.949 0.291,0.014 0.523,-0.207 0.61,-0.464 0.371,-1.095 -0.26,-2.21 -1.113,-3.193 1.643,0.908 3.385,1.675 5.284,1.343 0.359,-0.063 0.422,-0.54 0.204,-0.772 -0.642,-0.683 -1.416,-1.213 -2.237,-1.682 0.121,-0.028 0.242,-0.056 0.36,-0.103 0.454,-0.181 0.636,-0.693 0.285,-1.079 -0.808,-0.888 -2.091,-1.082 -3.199,-1.417 -0.873,-0.265 -1.737,-0.562 -2.603,-0.851 0.738,0.139 1.479,0.268 2.229,0.379 1.867,0.278 3.997,0.848 5.783,0.099 0.42,-0.176 0.491,-0.648 0.12,-0.926 -0.802,-0.6 -1.749,-0.839 -2.728,-0.977 -0.895,-0.655 -2.205,-0.778 -3.291,-0.964 -0.899,-0.155 -1.805,-0.271 -2.71,-0.39 0.438,-0.012 0.875,-0.026 1.313,-0.046 0.107,0.005 0.213,0.008 0.319,0.014 2.53,0.132 5.015,0.802 7.55,0.763 0.643,-0.009 0.744,-0.766 0.301,-1.108 -0.183,-0.141 -0.376,-0.266 -0.57,-0.39 0.331,-0.116 0.656,-0.249 0.962,-0.427 0.359,-0.213 0.376,-0.782 -0.003,-0.987 z M 53.531669,8.2603857 c 0.095,0.457 0.15,0.932 0.179,1.415 -0.061,-0.165 -0.112,-0.332 -0.188,-0.492 -0.046,-0.097 -0.129,-0.155 -0.224,-0.195 -0.092,-0.872 -0.18,-1.749 -0.292,-2.613 0.2,0.622 0.392,1.245 0.525,1.885 z M 101.21467,50.557385 c -0.026,-0.014 -0.052,-0.028 -0.077,-0.042 0.039,0.009 0.077,0.019 0.116,0.028 -0.012,0.007 -0.028,0.007 -0.039,0.014 z m -0.239,-4.831 c 0.048,-0.016 0.098,-0.03 0.145,-0.046 0.727,-0.094 1.454,-0.181 2.182,-0.242 1.104,-0.091 2.368,0.186 3.552,0.228 -0.256,0.025 -0.511,0.055 -0.767,0.083 -1.689,-0.159 -3.443,-0.117 -5.112,-0.023 z"
   id="path302" /></svg>
