<?xml version="1.0" encoding="UTF-8" standalone="no"?>
<!-- Generator: Adobe Illustrator 27.5.0, SVG Export Plug-In . SVG Version: 6.00 Build 0)  -->

<svg
   version="1.1"
   x="0px"
   y="0px"
   viewBox="0 0 103.52492 188.99913"
   xml:space="preserve"
   id="svg24"
   width="103.52493"
   height="188.99913"
   xmlns="http://www.w3.org/2000/svg"
   xmlns:svg="http://www.w3.org/2000/svg"><defs
   id="defs28" />

<path
   style="fill:#191919"
   d="m 0,150.0794 c 0.042,0.029 0.078,0.06 0.119,0.089 C 0.093,150.0854 0,150.0794 0,150.0794 Z"
   id="path5" /><path
   style="fill:#191919"
   d="m 0.13,150.2094 c 0.038,0.017 0.077,0.036 0.115,0.053 -0.042,-0.03 -0.083,-0.063 -0.126,-0.093 0.004,0.012 0.011,0.022 0.011,0.04 z"
   id="path7" />
<path
   style="fill:#191919"
   d="m 92.989841,130.55127 c 0.333,0.191 0.691,0.327 1.058,0.438 1.496,0.618 3.233,0.709 4.788999,0.375 2.416,-0.519 4.704,-2.505 4.688,-5.109 -0.017,-2.896 -3.163,-4.627 -5.678,-4.9 -2.448999,-0.266 -5.304999,1.04 -6.753999,3.005 -1.097,1.485 -0.961,3.034 -0.144,4.306 -8.251,4.334 -16.383,9.111 -24.1,14.236 -2.607,1.732 -5.033,3.61 -7.342,5.595 2.173,-5.767 4.808,-11.712 6.438,-17.728 1.464,0.436 3.03,0.523 4.385,0.218 3.214,-0.723 5.371,-4.322 4.712,-7.491 -0.692,-3.332 -4.156,-6.094 -7.619,-5.436 -0.85,0.162 -1.637,0.517 -2.322,1.004 -2.917,1.417 -5.08,4.133 -3.933,7.564 0.496,1.481 1.607,2.617 2.974,3.384 -2.527,6.666 -5.289,13.434 -6.632,20.252 -4.193,3.818 -8.033,7.964 -11.897,12.193 1.567,-4.873 2.956,-9.785 4.244,-14.632 3.36,-12.638 5.756,-25.539 7.22,-38.537 2.309,-0.866 4.393,-2.382 6.238,-4.306 0.094,0 0.191,-0.014 0.291,-0.058 2.169,-0.946 4.287,-2.011 6.495,-2.865 1.103,-0.427 2.24,-0.674 3.382,-0.902 0.358,0.855 1.064,1.598 1.77,2.143 2.331,1.8 6.37,3 9.051,1.281 1.565,-1.002 2.09,-2.863 1.857,-4.630996 -0.395,-3.001002 -2.378,-4.925002 -5.343,-5.554002 -2.667,-0.567 -5.736,0.8 -6.517,3.458 -0.493,0.395 -0.853,0.925 -0.994,1.643 -2.72,0.304002 -5.399,1.604998 -7.862,2.946998 2.94,-3.958998 5.098,-8.909998 6.377,-13.504998 1.543,-0.041 3.102,-0.553 4.346,-1.412 2.787,-1.926 4.042,-5.647 1.975,-8.558 -1.893,-2.665 -5.635,-3.391 -8.528,-2.022 -1.868,0.884 -2.861,2.393 -3.073,4.102 -1.281,1.667 -1.098,3.988 0.454,5.857 0.645,0.775 1.444,1.304 2.317,1.631 -2.889,7.29 -5.11,15.770998 -12.097,19.476998 0.325,-3.014 0.617,-6.032 0.84,-9.054998 0.548,-7.423 0.79,-15.072 0.578,-22.763 1.406,-4.149 3.194,-7.964 5.347,-11.571 3.259,-2.137 6.47,-3.516 10.394,-4.388 2.086,-0.465 4.244,-0.651 6.382,-0.919 0.432,1.173 1.388,2.147 2.41,2.837 2.771,1.872 7.447,2.377 9.576,-0.668 1.201,-1.718 0.748,-4.487 -0.32,-6.132 -1.474,-2.268 -4.626,-3.5 -7.221,-2.701 -0.555,0.171 -1.041,0.452 -1.46,0.804 -1.51,0.909 -2.851,2.046 -3.16,3.772 -4.643,0.205 -10.06,1.277 -14.055,3.46 1.783,-2.589 3.726,-5.111 5.845,-7.622 4.542,-5.381 9.742,-10.388 13.955,-16.07 2.268,1.162 5.346,0.848 7.361,-0.56 2.32,-1.62 3.434,-4.835 2.139,-7.445 -1.336,-2.694 -5.031,-4.119 -7.792,-2.824 -0.734,0.345 -1.343,0.868 -1.843,1.484 -0.02,0.009 -0.038,0.009 -0.057,0.019 -3.127,1.766 -3.762,5.126 -1.538,7.931 0.113,0.142 0.237,0.274 0.362,0.402 -5.236,5.742 -10.449,11.549 -15.361,17.559 0.509,-3.966 0.606,-8.054 -0.012,-12.01 1.272,-0.172 2.485,-0.748 3.453,-1.871 1.8,-2.09 1.769,-5.278 0.263,-7.511 -1.784,-2.646 -5.474,-3.266 -8.277,-1.978 -1.544,0.709 -2.395,1.851 -2.731,3.124 -2.363,3.518 1.365,7.583 5.407,8.21 0.399,4.502 0.719,8.936 0.62,13.58 -3.885,4.843 -7.797,10.415 -9.871,16.462 -0.4,-7.657 -1.279,-15.32 -2.797,-22.808 0.013,-0.125 0,-0.259 -0.077,-0.399 -0.004,-0.009 -0.009,-0.016 -0.014,-0.022 -1.411,-6.844 -3.358,-13.535 -5.954,-19.942 0.488,-1.816 1.037,-3.535 1.875,-5.254 0.435,-0.894 1.03,-1.76 1.558,-2.651 1.063,0.619 2.262,0.946 3.432,0.797 2.84,-0.362 4.263,-2.815 4.694,-5.44 0.29,-1.768 0.035,-3.715 -1.407,-4.853 -1.651,-2.1689994 -4.833,-2.7759994 -7.06,-1.1209996 -0.827,0.1899996 -1.582,0.6039996 -2.119,1.2779996 -0.893,1.118 -1.145,2.43 -0.961,3.711 -0.122,1.495 0.603,3.075 1.756,4.299 -0.621,0.955 -1.118,2.017 -1.604,2.979 -0.539,1.069 -1.034,2.213 -1.377,3.39 -1.86,-4.205 -4.007,-8.278 -6.494,-12.171 2.815,-1.876 3.238,-5.8309994 1.764,-8.6659994 -1.18,-2.272 -3.762,-4.073 -6.391,-4.486 -0.624,-0.229 -1.294,-0.293 -2.002,-0.086 -0.071,0.02 -0.127,0.06 -0.194,0.085 -2.9,0.50800002 -5.396,3.383 -5.169,6.398 0.124,1.626 1.055,2.854 2.302,3.7129994 0.25,0.465 0.536,0.92 0.9,1.346 1.844,2.154 4.701,3.28 7.365,2.392 5.334,8.89 9.016,18.592 11.461,28.681 -2.443,-3.277 -5.233,-6.264 -8.197,-9.187 -1.974,-1.947 -3.994,-3.944 -6.08,-5.874 0.927,-1.095 1.417,-2.685 1.175,-4.846 -0.841,-7.518 -11.806,-7.484 -14.824,-1.536 -1.616,3.185 -0.057,7.477 3.162,8.944 2.517,1.148 5.539,0.588 7.819,-0.931 0.101,-0.027 0.203,-0.053 0.301,-0.085 5.917,5.788 12.585,10.917 17.573,17.621 3.554,17.104 3.754,35.141 2.497,52.111 -0.866,11.695998 -2.645,23.112998 -5.135,34.337998 -2.56,-9.796 -4.374,-19.786 -6.566,-29.666 1.197,-4.132998 0.864,-8.482998 1.697,-12.712998 0.585,-2.967 1.626,-5.826 2.697,-8.668 0.061,0.021 0.12,0.049 0.181,0.069 1.992,0.661 4.056,0.03 5.213,-1.724 1.632,-2.473 0.776,-5.998 -0.903,-8.168 -2.136,-2.757 -5.768,-4.026 -8.662,-1.618 -1.958,1.628 -1.659,4.193 -0.641,6.272 0.311,1.813 1.723,3.518 3.497,4.554 -1.059,2.333 -1.879,4.752 -2.55,7.314 -1.042,3.984 -0.758,8.041 -1.116,12.060998 -2.112,-9.226998 -4.774,-19.376998 -9.99,-27.528998 4.305,-5.156 -0.732,-13.778 -7.419,-12.007 -3.009,0.796 -4.654,4.613 -4.089,7.482 0.353,1.794 1.535,3.165 3.055,4.018 0.222,0.313 0.47,0.616 0.754,0.91 1.645,1.697 4.057,1.982 5.989,0.99 4.502,9.431 7.845,18.905 10.275,29.304998 1.05,4.494 1.986,9.012 2.984,13.51 -4.333,-4.961 -8.108,-10.521 -12.66,-15.288 4.014,-4.407998 0.274,-11.582998 -5.567,-12.035998 -3.361,-0.26 -5.391,2.364 -5.902,5.374 -0.855,1.998 -0.297,4.072002 0.996,5.701998 0.372,0.583 0.836,1.097 1.398,1.504 0.337,0.244 0.708,0.43 1.092,0.587 2.121,1.163 4.725,1.386 6.814,-0.098 4.488,5.511 8.834,11.177 13.971,16.064 0.093,0.089 0.194,0.126 0.294,0.142 1.258,5.545 2.654,11.049 4.511,16.436 -3.109,13.353 -7.202,26.446 -11.952,39.424 -0.511,-4.982 -2.354,-9.823 -4.608,-14.386 -0.343,-3.949 0.124,-7.682 0.996,-11.671 0.416,-1.909 0.925,-3.791 1.271,-5.693 0.786,0.243 1.593,0.4 2.381,0.445 2.75,0.155 5.369,-1.808 5.725,-4.577 0.329,-2.56 -1.704,-4.636 -3.824,-5.696 -2.221,-1.111 -5.24,-1.471 -7.269,0.223 -0.682,0.569 -1.139,1.325 -1.409,2.154 -0.966,1.184 -1.073,2.791 -0.042,4.341 0.669,1.005 1.621,1.792 2.694,2.377 -1.328,4.545 -2.628,9.697 -2.437,14.429 -0.355,-0.649 -0.711,-1.294 -1.07,-1.93 -4.361,-7.738 -9.54,-14.971 -14.286,-22.47 0.922,-0.772 1.642,-1.843 2.123,-3.081 1.163,-2.997 -0.769,-5.985 -3.128,-7.674 -2.473,-1.771 -5.8790004,-1.715 -8.181,0.253 -1.826,1.56 -2.617,4.802 -1.28,6.88 0.029,0.044 0.066,0.081 0.096,0.124 0.96,2.286 3.3679996,4.349 5.898,4.727 1.134,0.169 2.164,0.021 3.069,-0.366 5.929,11.883 15.246,22.477 19.663,34.9 -4.843,-3.841 -10.002,-7.187 -15.736,-9.295 -0.007,-0.21 -0.021,-0.423 -0.054,-0.648 -0.384,-2.573 -2.399,-4.872 -4.806,-5.72 -2.453,-0.866 -5.1220004,0.176 -6.98,1.795 -1.836,1.598 -2.694,4.219 -1.728,6.5 1.137,2.686 4.3189996,4.064 7.071,4.169 2.541,0.097 5.504,-1.287 6.017,-3.94 0.063,-0.114 0.117,-0.232 0.169,-0.355 1.593,0.609 3.176,1.239 4.705,1.992 4.381,2.157 7.807,5.85 12.133,7.952 0.74,2.503 1.267,5.086 1.519,7.771 -1.125,2.994 -2.274,5.983 -3.46,8.969 -0.348,0.877 1.032,1.398 1.487,0.626 4.272,-7.253 7.569,-15.181 10.311,-23.278 2.338,-2.299 4.619,-4.618 6.916,-6.904 0.019,-0.001 0.036,0.003 0.056,0.001 2.519,-0.402 4.758,-0.613 7.313,-0.414 1.151,0.09 2.308,0.252 3.466,0.391 0.021,0.368 0.086,0.734 0.211,1.092 0.002,0.447 0.079,0.918 0.241,1.408 0.8,2.419 3.187,3.92 5.635,4.127 2.063,0.175 3.91,-0.946 4.852,-2.633 0.164,-0.252 0.315,-0.526 0.432,-0.846 0.159,-0.437 0.224,-0.908 0.211,-1.386 0.096,-2.4 -1.85,-4.79 -3.854,-5.832 -2.45,-1.273 -5.435,-0.396 -7.048,1.79 -0.142,0.192 -0.253,0.391 -0.349,0.59 -2.906,-0.67 -6.219,-1.034 -8.944,-0.476 4.005,-3.904 8.143,-7.65 12.809,-10.963 0.087,0.096 0.206,0.156 0.362,0.139 7.104,-0.772 13.685,-0.552 20.617,0.071 1.112,3.868 6.961,6.712 10.187999,3.743 4.562,-4.197 -2.706999,-10.283 -7.179999,-9.318 -1.139,0.246 -1.931,0.969 -2.405,1.887 -0.103,0.075 -0.193,0.171 -0.261,0.302 -0.284,0.543 -0.439,1.092 -0.497,1.635 -6.178,-1.417 -13.013,-0.703 -19.171,0.398 7.671,-5.144 16.145,-9.113 23.849,-14.202 0.276,0.22 0.569,0.425 0.882,0.606 z m -23.083,-5.282 c -0.015,-0.031 -0.006,-0.023 0,0 z m 0.266,0.362 c 0.023,0.02 0.03,0.032 0.002,0.011 -0.001,-0.005 -0.001,-0.009 -0.002,-0.011 z m 19.629,-65.622998 c 0.102,-0.131 0.203,-0.262 0.285,-0.403 -0.062,0.154 -0.157,0.288 -0.285,0.403 z m 0.345,-0.529 c 0.002,-0.003 0.003,-0.006 0.004,-0.008 0,10e-4 0,10e-4 0,10e-4 -0.001,0.002 -0.003,0.004 -0.004,0.007 z m -53.077,-52.3239994 c -10e-4,0.371 -0.158,0.477 0,0 z m -7.31,61.2399994 c -0.053,0.03 -0.125,0.062 -0.216,0.088 0.092,-0.057 0.163,-0.098 0.21,-0.12 0.002,0.012 0.003,0.021 0.006,0.032 z"
   id="path306" /></svg>
