<?xml version="1.0" encoding="UTF-8" standalone="no"?>
<!-- Generator: Adobe Illustrator 27.5.0, SVG Export Plug-In . SVG Version: 6.00 Build 0)  -->

<svg
   version="1.1"
   x="0px"
   y="0px"
   viewBox="0 0 102.39246 190.02518"
   xml:space="preserve"
   id="svg24"
   width="102.39247"
   height="190.02518"
   xmlns="http://www.w3.org/2000/svg"
   xmlns:svg="http://www.w3.org/2000/svg"><defs
   id="defs28" />

<path
   style="fill:#191919"
   d="m 0,150.59242 c 0.042,0.029 0.078,0.06 0.119,0.089 -0.026,-0.083 -0.119,-0.089 -0.119,-0.089 z"
   id="path5" /><path
   style="fill:#191919"
   d="m 0.13,150.72242 c 0.038,0.017 0.077,0.036 0.115,0.053 -0.042,-0.03 -0.083,-0.063 -0.126,-0.093 0.004,0.012 0.011,0.022 0.011,0.04 z"
   id="path7" />
<path
   style="fill:#191919"
   d="m 93.667466,116.03556 c -1.991,0.876 -3.254,2.688 -4.922,3.959 -4.759,1.485 -9.507,3.146 -14.156,4.859 -0.924,0.341 -1.839,0.706 -2.748,1.083 2.103,-1.323 4.042,-3.067 5.689,-5.037 0.217,-0.107 0.433,-0.215 0.665,-0.301 2.081,-0.67 4.565,-1.007 5.605,-3.255 1.141,-2.484 -0.201,-5.672 -0.034,-8.324 -1.073,1.042 -1.913,2.351 -2.986,3.391 -1.242,1.175 -2.552,2.081 -3.323,3.625 -0.706,1.508 -0.714,3.627 -1.338,5.309 -1.622,1.928 -3.51,3.65 -5.567,5.1 -0.021,0.015 -0.028,0.035 -0.036,0.055 -1.463,0.643 -2.902,1.335 -4.311,2.091 -1.871,1.003 -3.604,2.424 -5.251,3.849 0.96,-1.815 1.903,-3.64 2.812,-5.482 2.816,-5.717 5.496,-11.601 7.842,-17.615 1.577,-1.933 4.684,-3.197 6.958,-4.076 0.342,0.169 0.677,0.422 1.107,0.602 7.586,3.557 19.199,-0.537 22.018004,-8.728004 -1.813004,0 -3.289004,1.276 -5.169004,1.075 -2.618,-0.202 -4.765,-1.946 -7.518,-1.611 -2.819,0.335 -5.169,2.484 -7.25,4.362004 -1.742,1.544 -3.19,3.085 -4.972,4.354 -1.39,0.614 -3.226,1.437 -4.624,2.584 2.595,-6.833 4.737,-13.828004 6.14,-20.935004 0.623,0.158 1.279,0.24 1.995,0.211 2.308,-0.094 4.443,-0.996 6.568,-1.811 1.751,-0.672 3.399,-1.463 4.973,-2.489 1.089,-0.711 2.042,-1.466 3.049,-2.273 0.828,-0.662 1.821,-1.44 1.341,-2.666 -0.738,-1.879 -3.826,0.27 -4.632,1.008 0.413,-0.379 0.286,-1.828 -0.179,-2.133 -0.684,-0.448 -1.545,-0.279 -2.373,0.069 0.227,-0.629 0.364,-1.284 0.309,-1.989 -0.133,-1.717 -1.775,-2.068 -3.219,-1.954 -1.489,0.119 -1.817,0.265 -2.007,-1.378 -0.113,-0.979 -0.578,-2.343 -1.727,-2.469 -0.864,-0.095 -1.602,0.938 -2.51,0.582 -0.874,-0.341 -1.346,-2.201 -1.839,-2.918 -0.785,-1.141 -1.951,-1.957 -3.314,-1.22 -0.871,0.471 -1.627,1.364 -2.121,2.265 -0.165,-0.422 -0.393,-0.763 -0.728,-0.939 -2.484,-1.409 -2.082,2.886 -3.155,3.022 -1.208,0.201 -2.954,-4.969 -4.162,-1.075 -1.321,4.257 3.419,10.507 8.038,14.183 0.612,0.642 1.263,1.216 1.793,1.697 1.015,0.919 2.055,1.643 3.221,2.07 -4.26,14.055004 -8.978,27.622004 -15.486,40.837004 -1.738,3.528 -3.659,6.995 -5.627,10.448 0.208,-1.353 0.273,-2.742 0.345,-4.056 0.315,-1.283 0.656,-2.36 1.408,-3.489 1.812,-2.551 3.558,-4.498 3.558,-7.854 0.066,-3.692 -1.611,-7.988 -3.893,-10.875 -0.671,1.745 -1.745,3.356 -2.618,5.035 -1.812,3.423 -3.759,7.585 -2.014,11.411 0.671,1.477 1.812,2.685 2.282,4.228 0.298,0.796 0.34,1.591 0.505,2.387 -0.101,1.877 -0.33,3.773 -0.882,5.497 -3.451,5.996 -6.966,11.981 -9.87,18.204 0.741,-4.704 1.425,-9.418 2.062,-14.138 1.182,-8.747 2.145,-17.52 2.948,-26.309 1.39,-2.903 2.873,-5.757 4.471,-8.551 0.703,-0.435 1.405,-0.861 2.108,-1.257 3.356,-1.813 7.115,-2.686 8.86,-6.376 2.081,-4.364004 1.543,-11.748004 0.939,-16.447004 -0.873,1.142 -1.812,1.88 -3.087,2.686 -2.684,1.611 -4.497,3.222 -5.773,6.243 -1.945,4.518 -3.466,10.084004 -3.987,15.124004 -1.242,2.211 -2.388,4.477 -3.374,6.81 0.488,-5.51 0.93,-11.023 1.279,-16.544004 0.693,-10.939 1.364,-21.926 1.74,-32.896 0.686,-1.639 1.579,-3.138 2.606,-4.545 1.299,-0.624 2.656,-0.997 4.037,-1.266 1.497,0.802 3.195,2.134 4.948,2.437 3.289,0.537 7.182,-1.745 9.196,-4.229 -5.315,-2.397 -10.065,-2.282 -14.555,1.172 -1.031,0.261 -2.03,0.595 -2.979,1.028 2.936,-3.742 6.716,-6.907 9.72,-10.59 1.279,-0.859 2.673,-1.3 4.116,-1.558 5.577,5.657 9.983,2.463 15.378,-1.8 -3.424,0.47 -6.579,-1.478 -9.935,-1.209 -2.284,0.247 -3.834,1.233 -5.633,2.329 -1.104,0.265 -2.159,0.647 -3.11,1.202 1.803,-2.356 3.404,-4.979 4.506,-7.768 0.135,-0.127 0.272,-0.257 0.411,-0.395 1.813,-1.61 3.625,-2.686 3.826,-5.303 0.145,-1.782 -0.191,-3.593 -0.804,-5.263 -0.482,-1.314 -1.253,-3.362 -2.431,-4.208 -0.214,0.651 -0.104,1.182 -0.501,1.814 -0.614,0.977 -1.371,1.853 -1.91,2.88 -0.772,1.467 -0.982,3.122 -0.73,4.745 0.268,1.727 1.198,3.188 1.541,4.821 -0.329,0.931 -0.701,1.852 -1.142,2.76 -1.459,3.012 -3.508,5.719 -5.669,8.254 -0.941,1.104 -1.978,2.174 -3.031,3.245 0.494,-1.132 0.769,-2.392 0.902,-3.684 0.203,-0.363 0.433,-0.706 0.685,-1.066 1.744,-2.35 3.087,-3.424 3.087,-6.512 0,-3.558 -0.872,-6.847 -1.343,-10.337 -2.281,2.752 -6.444,7.384 -5.705,11.143 0.463,2.373 1.671,4.646 2.383,6.947 -0.167,1.585 -0.485,3.147 -1.177,4.694 -2.688,2.739 -5.31,5.58 -6.653,9.106 0.06,-1.84 0.132,-3.681 0.171,-5.519 0.2,-9.259 -0.102,-18.734 -2.3,-27.758 0.464,-0.19 0.918,-0.444 1.36,-0.781 4.548,-1.685 8.869,-3.401 12.861,-6.426 3.894,-2.954 14.634,-11.144 13.157,-17.0509993 -1.611,-7.115 -7.518,0.94 -10.606,0.538 -3.624,-0.403 -3.222,-6.311 -8.189,-2.552 -0.313,0.237 -0.602,0.522 -0.884,0.826 -0.029,-0.673 -0.08,-1.343 -0.186,-1.984 -0.462,-2.807 -1.745,-5.10500001 -4.591,-5.01500001 -2.563,0.082 -4.838,2.71800001 -7.316,1.71300001 -3.155,-1.27900001 -4.906,-2.40500001 -7.538,1.371 -0.821,1.178 -1.786,2.485 -3.096,2.478 -1.41,-0.009 -2.258,-1.587 -3.621,-1.694 -2.971,-0.232 -4.95,3.842 -5.027,7.0609993 -0.024,1.017 0.083,2.016 0.287,2.991 -1.096,-0.766 -2.3,-1.367 -3.471,-1.436 -2.819,-0.134 -2.417,1.343 -4.43,2.417 -2.282,1.477 -6.712,1.074 -7.384,3.893 -1.074,4.564 6.176,7.519 9.13,8.592 7.356,2.665 14.885,3.798 22.58,4.425 1.972,0.77 4.045,1.353 5.997,0.934 1.949,9.415 2.064,19.233 1.802,28.787 -0.298,10.837 -1.024,21.702 -1.758,32.533 -0.328,-1.435 -0.714,-2.861 -1.156,-4.275 -0.041,-0.634 -0.043,-1.277 -0.078,-1.922 -0.201,-3.021 0.269,-6.711 -0.94,-9.53 -1.678,-3.827 -5.706,-6.177 -8.726,-8.795 0.403,4.297 -0.806,9.802 1.476,13.56 1.994,3.191 5.369,5.527 7.912,8.181 0.52,1.539 0.984,3.101 1.383,4.689 -0.086,1.266 -0.172,2.534 -0.256,3.799 -0.699,10.461004 -1.682,20.904004 -2.888,31.320004 -0.686,-9.249 -2.91,-18.398 -5.582,-27.238 -2.954,-9.774004 -6.769,-19.509004 -11.695,-28.479004 2.19,-0.82 3.955,-3.313 5.018,-5.159 0.873,-1.478 4.297,-11.814 -0.335,-9.935 -1.208,0.538 -1.813,2.552 -2.081,3.76 -0.681,-1.734 -2.046,-1.295 -2.886,-0.163 -0.336,-1.203 -0.539,-2.55 -1.384,-3.368 -0.725,-0.7 -1.902,-0.93 -2.769,-0.344 -0.867,0.587 -0.889,2.622 -1.929,1.258 -0.781,-1.025 -1.729,-3.205 -3.374,-2.09 -1.193,0.81 -0.953,2.526 -0.892,3.762 -1.26,-0.483 -2.091,-1.457 -3.136,-2.264 -1.579,-1.221 -2.717,-0.618 -2.848,1.392 -0.075,1.159 0.097,2.351 0.439,3.51 -0.14,-0.049 -0.279,-0.112 -0.419,-0.148 -1.746,-0.403 -3.222,0.402 -3.4899996,2.282 -0.47,2.819 2.5499996,5.169 4.6989996,6.243 3.108,1.579 6.756,1.778 10.145,2.271 0.882,0.128 1.589,0.072 2.268,-0.13 0.804,-0.053 1.532,-0.264 2.159,-0.607 3.626,8.642 7.308,17.209 10.281,26.098004 -1.211,-1.1 -2.623,-2.012004 -4.128,-2.787004 -0.504,-0.94 -1.229,-1.778 -1.891,-2.613 0.083,-0.352 0.219,-0.696 0.297,-1.085 0.739,-2.754 0.47,-3.895 -1.678,-5.976 -2.148,-2.08 -4.698,-3.558 -6.579,-5.974 0.202,2.887 1.343,8.257 3.155,10.605 1.02,1.236 2.469,1.659 3.834,2.327 0.507,0.699 1.035,1.431 1.611,2.108 -2.083,-0.949 -4.273,-1.68 -6.293,-2.315 -0.062,-0.02 -0.126,-0.034 -0.188,-0.053 -1.025,-0.715 -2.186,-1.245 -3.244,-1.915 -0.122,-0.077 -0.242,-0.159 -0.363,-0.238 -0.02,-0.302 -0.018,-0.603 -0.089,-0.921 -1.007,-4.833 -6.511,-5.974 -10.539,-7.786 1.275,1.946 2.215,4.027 3.826,5.907 1.534,1.853 3.255,2.19 5.385,2.912 0.561,0.438 1.154,0.848 1.765,1.216 -1.852,-0.382 -3.751,-0.619 -5.656,-0.686 -2.155,-0.819 -4.189,-1.998 -6.496,-2.301 -1.678,-0.268 -3.2889996,0.067 -4.8999996,0.27 -1.879,0.268 -4.43,-0.136 -6.108,0.604 2.886,1.745 6.578,4.632 9.8679996,5.303 2.819,0.538 3.826,-1.477 5.907,-2.752 0.295,-0.189 0.537,-0.344 0.781,-0.472 3.05,0.125 6.065,0.613 9.141,1.496 0.932,0.267 1.901,0.573 2.878,0.903 -1.319,0.053 -2.678,0.238 -4.017,0.545 -2.343,-0.388 -4.395,-1.133 -6.903,-0.258 -3.155,1.075 -6.645,4.699004 -8.727,7.250004 6.876,1.455 13.741,1.071 16.449,-6.186004 1.6,-0.383 3.258,-0.611 5.032,-0.64 0.029,0 0.051,-0.011 0.077,-0.017 1.584,0.613 3.152,1.323 4.606,2.180004 -0.517,0.086 -1.03,0.269 -1.518,0.529 -2.202,0.127 -4.416,-0.099 -5.985,1.785 -1.812,2.215 -2.551,5.704 -3.826,8.322 2.618,-1.274 6.175,-2.08 8.189,-4.228 1.334,-1.397 1.287,-2.979 1.392,-4.738 0.035,-0.027 0.067,-0.06 0.104,-0.087 0.761,-0.571 1.675,-0.923 2.624,-0.952 0.976,0.645 1.876,1.363 2.683,2.161 0.114,0.353 0.237,0.704 0.349,1.059 3.103,9.814 4.926,19.845 6.637,29.965 -0.452,3.748 -0.933,7.493 -1.446,11.232 -0.936,6.829 -2.011,13.64 -3.155,20.436 -0.032,0.089 -0.068,0.176 -0.1,0.265 -0.025,0.071 -0.01,0.135 0.024,0.188 -0.11,0.653 -0.217,1.309 -0.329,1.962 -0.135,0.791 -0.28,1.582 -0.429,2.374 -1.164,-5.531 -2.999,-10.906 -5.523,-15.968 -0.328,-1.515 -0.628,-3.011 -0.742,-4.577 -0.045,-0.625 -0.037,-1.243 -0.007,-1.858 0.191,-0.156 0.443,-0.255 0.738,-0.513 2.416,-1.88 3.491,-2.417 3.558,-5.907 0.067,-2.954 0.268,-7.316 -1.275,-9.935 -1.544,3.154 -4.162,6.31 -4.968,9.733 -0.576,2.65 0.331,4.414 1.109,6.6 -0.062,1.357 0.063,2.744 0.328,4.063 -1.094,-1.938 -2.361,-3.857 -3.819,-5.6 -0.026,-0.373 -0.049,-0.743 -0.101,-1.104 -0.47,-3.088 -2.215,-4.9 -5.102,-6.041 -3.826,-1.544 -7.988,-2.686 -11.881,-4.096 0.738,3.693 2.954,7.52 6.377,8.996 3.386,1.532 6.952,2.285 10.356,3.8 1.59,1.977 3.012,4.105 4.256,6.448 1.159,2.182 2.142,4.443 3.033,6.743 -0.096,-0.161 -0.179,-0.326 -0.286,-0.484 -0.579,-0.855 -1.365,-1.569 -2.178,-2.22 -0.452,-0.745 -0.722,-1.535 -1.151,-2.272 -3.357,-5.773 -14.165,-7.25 -20.138,-6.914 3.625,3.088 5.772,8.659 11.008,9.397 2.793,0.357 5.847,-1.07 8.653,-0.567 2.539,1.777 3.945,4.119 5.445,6.755 0.741,2.133 1.436,4.281 2.139,6.42 -1.148,5.974 -2.549,11.983 -3.082,18.003 -0.05,0.558 0.764,0.603 0.927,0.125 1.042,-3.05 1.814,-6.23 2.468,-9.449 0.837,-1.633 2.251,-3.108 3.682,-4.44 0.047,0.028 0.105,0.041 0.167,0.022 2.837,-0.829 5.486,-0.941 8.105,-0.64 0.827,1.015 1.468,2.143 2.49,3.12 0.809,0.77 1.693,1.467 2.662,2.023 1.3,0.748 2.754,1.317 4.217,1.642 2.158,0.479 4.196,-0.314 6.258,-0.724 0.53,-0.105 1.429,-0.206 1.822,-0.627 -1.046,-0.825 -2.407,-1.127 -3.442,-1.955 -2.711,-2.167 -4.295,-6.134 -8.345,-5.696 -1.624,0.176 -3.708,0.505 -5.316,1.221 -2.717,-0.253 -5.476,0.024 -7.841,0.901 0.605,-0.548 1.195,-1.071 1.722,-1.569 2.893,-2.737 6.411,-4.716 10.011,-6.358 1.446,-0.659 2.932,-1.239 4.437,-1.781 1.737,0.005 3.358,0.173 4.983,0.469 1.388,0.819 1.757,2.039 2.88,3.343 1.913,2.265 4.783,2.567 7.501,3.121 1.158,0.201 2.266,0.554 3.374,0.906 -3.122,-5.085 -6.395,-10.17 -13.04,-8.861 -0.519,0.08 -1.011,0.228 -1.517,0.384 -0.666,-0.088 -1.337,-0.121 -2.006,-0.121 2.729,-0.922 5.491,-1.778 8.181,-2.783 0.209,0.034 0.419,0.069 0.628,0.104 2.77,0.554 5.639,1.208 8.458,0.705 3.978,-0.756 7.552,-4.683 10.522,-7.301 0,0 0,0 0,-0.05 -1.41,0.05 -2.719,0.603 -4.078,0.704 -3.877,0.303 -7.804,-1.61 -11.478,0.151 -2.266,1.063 -4.355,3.063 -5.852,5.138 -3.678,1.277 -7.348,2.593 -10.918,4.096 1.002,-0.963 1.952,-2.045 2.736,-3.222 0.302,-0.158 0.604,-0.316 0.894,-0.474 4.028,-2.467 6.041,-6.494 5.588,-11.378 -2.064,2.366 -4.934,3.726 -6.544,6.545 -1.011,1.757 -1.063,3.477 -1.06,5.392 -0.936,1.297 -1.994,2.521 -3.135,3.756 -0.012,0.013 -0.016,0.025 -0.024,0.039 -0.866,0.383 -1.727,0.774 -2.577,1.186 -1.673,0.811 -3.284,1.74 -4.813,2.786 1.124,-1.547 2.04,-3.275 2.773,-5.097 0.114,-0.09 0.231,-0.177 0.352,-0.265 1.159,-0.837 2.451,-1.57 3.357,-2.698 0.56,-0.695 1.056,-1.46 1.411,-2.279 0.316,-0.729 0.683,-1.47 0.945,-2.215 0.906,-2.669 0.453,-6.898 -0.05,-9.717 -1.359,1.309 -2.316,3.121 -3.625,4.53 -1.46,1.562 -3.222,3.071 -4.179,5.085 -1.373,2.841 -0.12,5.014 0.83,7.605 -1,2.454 -2.36,4.645 -4.005,6.687 -0.991,0.807 -1.94,1.666 -2.826,2.597 -1.205,1.265 -2.793,2.591 -3.941,4.119 0.703,-3.719 1.275,-7.469 1.922,-11.115 0.314,-1.772 0.615,-3.547 0.907,-5.322 4.813,-9.564 10.389,-18.731 15.452,-28.172 1.736,-1.069 3.257,-2.469 4.922,-3.658 2.148,-0.8 4.266,-1.115 6.519,-1.044 1.49,0.86 2.147,2.776 3.33,3.987 2.719,2.719 4.833,0.471 7.921,0.168 1.377,-0.135 2.854,0.201 3.927,1.074 -3.591,-3.826 -7.853,-9.129 -13.728,-6.579 -0.348,0.156 -0.694,0.332 -1.038,0.515 -1.587,-0.055 -3.161,0.08 -4.607,0.471 2.541,-1.36 5.264,-2.425 7.955,-3.418 1.673,-0.616 3.386,-1.161 5.107,-1.693 0.022,0.005 0.041,0.015 0.066,0.015 1.467,0.027 2.9,0.172 4.326,0.361 0.16,0.272 0.183,0.638 0.373,0.965 0.471,0.939 1.578,1.745 2.45,2.383 1.679,1.242 3.424,1.98 5.471,2.45 1.142,0.235 2.786,0.738 3.961,0.402 -0.503,-1.073 -1.712,-1.745 -2.315,-2.785 -0.672,-1.208 -1.041,-3.021 -2.183,-3.894 -1.501,-1.185 -4.343,-0.653 -6.391,-0.269 -1.182,-0.19 -2.393,-0.271 -3.58,-0.3 1.999,-0.614 3.997,-1.239 5.947,-1.963 0.362,0.08 0.717,0.193 1.07,0.282 1.913,0.47 3.894,0.234 5.807,-0.168 2.014,-0.436 3.994,-1.342 5.202004,-3.088 0.571,-0.839 0.906,-1.778 1.645,-2.551 -2.918004,0.842 -5.838004,-0.633 -8.725004,0.608 z"
   id="path304" /></svg>
