<?xml version="1.0" encoding="UTF-8" standalone="no"?>
<!-- Generator: Adobe Illustrator 27.5.0, SVG Export Plug-In . SVG Version: 6.00 Build 0)  -->

<svg
   version="1.1"
   x="0px"
   y="0px"
   viewBox="0 0 96.737378 189.35567"
   xml:space="preserve"
   id="svg24"
   width="96.737389"
   height="189.35567"
   xmlns="http://www.w3.org/2000/svg"
   xmlns:svg="http://www.w3.org/2000/svg"><defs
   id="defs28" />

<path
   style="fill:#191919"
   d="m 0,150.25766 c 0.042,0.029 0.078,0.06 0.119,0.089 -0.026,-0.083 -0.119,-0.089 -0.119,-0.089 z"
   id="path5" /><path
   style="fill:#191919"
   d="m 0.13,150.38766 c 0.038,0.017 0.077,0.036 0.115,0.053 -0.042,-0.03 -0.083,-0.063 -0.126,-0.093 0.004,0.012 0.011,0.022 0.011,0.04 z"
   id="path7" />
<path
   style="fill:#191919"
   d="m 60.840391,119.469 c 1.691,-0.219 3.447,-0.649 5.125,-1.091 3.27,-0.865 6.347,-2.404 9.616,-3.366 4.52,-1.25 8.463,-1.923 11.443,-5.865 4.039,-5.289 5.193,-12.502 6.443,-18.945 1.154,-6.251 2.404,-12.598 3.27,-18.944 -2.211,2.02 -4.231,4.231 -6.731,5.866 -10.193,6.539 -25.099,6.731 -30.1,19.618 -2.743,7.131 -0.795,14.262 0.148,21.476 -2.365,4.969 -3.904,10.146 -5.183,15.485 -0.352,1.467 -0.7,2.951 -0.922,4.434 -1.809,-7.036 -3.017,-14.272 -3.715,-21.53 -1.232,-12.836 -0.977,-25.953 0.701,-38.889 1.529,-2.747 3.256,-5.269 5.25,-7.641 1.678,0.022 3.447,-0.476 5.002,-0.839 4.094,-0.955 8.274,-1.843 12.271,-3.142 5.247,-1.706 10.236,-4.57 13.224,-9.355 1.967,-3.151 2.694,-6.907 2.761,-10.583 0.03,-1.575 -0.286,-3.113 -0.29,-4.704 -0.005,-2.046 -0.263,-4.101 -0.646,-6.109 -3.704,2.453 -6.886,5.395 -11.017,7.232 -8.703,3.74 -15.533,4.841 -19.57,14.332 -1.548,3.787 -1.524,7.734 -2.291,11.645 -1.73,2.035 -3.239,4.2 -4.338,6.502 1.587,-10.918 4.212,-21.678 7.838,-32.009 1.257,-1.355 3.306,-1.874 4.91,-2.466 6.731,-2.692 11.829,-5.962 14.233,-13.271 2.98,-8.943 -4.617,-18.464 -5.867,-27.31 -2.02,2.98 -3.365,6.154 -5.385,9.039 -5.097,7.213 -14.04,10.963 -13.751,20.868 0.186,4.725 1.536,9.98 4.816,13.455 -6.047,15.444 -9.078,32.354 -9.728,49.163 -0.883,-2.998 -2.093,-5.884 -3.486,-8.689 0.204,-1.643 0.53,-3.218 0.705,-4.789 0.673,-6.058 -0.577,-13.27 -4.232,-18.367 -2.693,-3.75 -7.021,-6.059 -10.578,-8.943 -3.174,-2.5 -6.155,-5.289 -9.232,-7.981 -0.289,3.269 -0.866,6.539 -0.962,9.808 -0.193,9.425 5.096,21.252 12.789,26.926 3.031,2.339 6.763,2.109 10.143,3.514 1.83,3.623 3.426,7.353 4.769,11.203 -0.186,7.875 0.14,15.709 0.92,23.341 0.112,1.103 0.243,2.212 0.383,3.324 -1.306,-1.475 -2.714,-2.902 -4.204,-4.279 -0.414,-1.516 -0.686,-3.103 -0.951,-4.694 -1.25,-6.348 -3.077,-12.598 -8.366,-16.829 -8.463,-6.828 -20.772,-6.539 -30.3879999,-11.251 -0.193,3.558 1.923,7.02 3.558,10.001 4.3269999,8.078 10.2889999,18.752 20.0019999,20.964 4.182,1.024 8.514,0.69 12.729,1.273 2.642,2.197 5.228,4.458 7.863,6.69 0.876,6.346 2.195,12.791 4.03,19.104 0.153,1.053 0.449,2.091 0.944,3.104 2.524,7.874 5.899,15.471 10.275,22.337 -2.036,-1.743 -4.184,-3.373 -6.277,-4.926 -0.628,-1.167 -0.954,-2.524 -1.389,-3.828 -1.731,-4.809 -4.711,-9.904 -8.942,-12.886 -7.309,-5.289 -16.252,-5.193 -24.138,-9.04 1.058,3.559 1.73,7.213 2.982,10.675 3.268,9.327 9.521,16.54 19.81,17.021 4.127,0.177 8.256,-0.2 12.383,0.171 1.261,1.02 2.508,2.057 3.734,3.116 2.327,2.013 4.404,4.355 6.669,6.439 4.471,5.551 9.757,10.416 15.985,14.265 0.39,0.24 0.709,-0.344 0.352,-0.602 -1.867,-1.35 -3.641,-2.774 -5.341,-4.255 0.003,-0.072 -0.007,-0.145 -0.045,-0.211 -1.655,-2.928 -3.255,-5.464 -4.236,-8.753 -0.46,-1.539 -0.81,-3.11 -1.089,-4.696 1.166,-1.738 2.995,-3.218 4.475,-4.607 6.06,-5.962 10.194,-11.732 9.329,-20.676 -0.866,-9.424 -8.848,-18.078 -8.174,-27.407 -1.539,4.04 -5.001,7.213 -7.309,10.771 -8.783,12.843 -11.99,29.484 0.101,41.008 0.472,3.577 1.263,7.601 2.917,10.792 -10.911,-11.008 -17.96,-24.857 -22.169,-39.75 0.115,-3.517 1.354,-7.194 2.156,-10.395 0.958,-3.806 2.352,-7.485 3.988,-11.049 z"
   id="path308" /></svg>
