<?xml version="1.0" encoding="UTF-8" standalone="no"?>
<!-- Uploaded to: SVG Repo, www.svgrepo.com, Generator: SVG Repo Mixer Tools -->

<svg
   width="340.15747"
   height="217.80147"
   viewBox="0 0 340.15746 217.80146"
   version="1.1"
   id="svg13"
   xml:space="preserve"
   sodipodi:docname="init.svg"
   inkscape:version="1.2.2 (b0a8486541, 2022-12-01)"
   xmlns:inkscape="http://www.inkscape.org/namespaces/inkscape"
   xmlns:sodipodi="http://sodipodi.sourceforge.net/DTD/sodipodi-0.dtd"
   xmlns="http://www.w3.org/2000/svg"
   xmlns:svg="http://www.w3.org/2000/svg"><sodipodi:namedview
     id="namedview900"
     pagecolor="#ffffff"
     bordercolor="#000000"
     borderopacity="0.25"
     inkscape:showpageshadow="2"
     inkscape:pageopacity="0.0"
     inkscape:pagecheckerboard="0"
     inkscape:deskcolor="#d1d1d1"
     showgrid="false"
     inkscape:zoom="3.1367825"
     inkscape:cx="170.07874"
     inkscape:cy="109.02892"
     inkscape:window-width="1920"
     inkscape:window-height="1011"
     inkscape:window-x="0"
     inkscape:window-y="32"
     inkscape:window-maximized="1"
     inkscape:current-layer="svg13" /><defs
     id="defs17" /><path
     id="path485"
     d="m 79.711982,153.54055 c -1.545645,-7.5816 -6.668843,-14.12135 -13.917466,-17.52941 -7.218829,-3.3975 -15.680687,-3.21757 -22.741237,0.24587 -7.452149,-2.51239 -15.865138,-1.58648 -22.578833,2.72406 l -0.0041,2.6e-4 c -6.753233,4.34227 -10.925292,11.49115 -11.4673939,19.15963 -6.0573051,5.05416 -9.4679769,12.64422 -8.95162123,20.52625 0.51651183,7.88213 4.88854923,14.96219 11.55807013,19.18647 1.538505,7.53629 6.603962,14.08398 13.873859,17.49898 7.218555,3.39336 15.680408,3.21342 22.740958,-0.25001 7.45188,2.50823 15.864865,1.58235 22.57883,-2.72406 6.741624,-4.329 10.967557,-11.48142 11.510811,-19.19575 3.826696,-3.20991 6.58381,-7.43595 7.963443,-12.10447 l 76.081988,-4.98573 -1.08625,-16.57646 -76.086002,4.98607 c -1.977101,-4.44854 -5.262394,-8.2828 -9.475016,-10.9617 z m -17.886735,44.8556 c -2.995413,1.92346 -6.92794,1.99391 -10.014134,0.18178 l -4.860508,-2.84868 -4.44698,3.4627 c -2.823089,2.19968 -6.731425,2.64278 -9.956362,1.12691 -3.070596,-1.44688 -4.887287,-4.3369 -4.815676,-7.56291 l 0.193239,-6.00582 -5.645135,-2.05646 c -3.274739,-1.19628 -5.44273,-3.92178 -5.65182,-7.11277 -0.209113,-3.19097 1.584957,-6.17193 4.671417,-7.78509 l 5.328205,-2.77973 -0.975113,-5.92509 c -0.549202,-3.17284 0.936137,-6.29173 3.795511,-8.13139 2.995646,-1.91935 6.92407,-1.98949 10.009994,-0.18153 l 4.864922,2.85257 4.446985,-3.4627 c 2.823085,-2.19967 6.731703,-2.63863 9.956632,-1.12278 2.838393,1.33309 4.653821,3.88607 4.845013,6.80353 l -0.193572,6.76331 5.624412,2.05782 c 3.270588,1.19658 5.434457,3.92231 5.643279,7.10915 0.208813,3.18684 -1.580784,6.17168 -4.663398,7.7804 l -5.290855,2.96873 1.052127,6.46526 c 0.192533,2.93817 -1.274163,5.70623 -3.918174,7.40276 z"
     style="stroke-width:4.15301" /><path
     id="path489"
     d="M 87.329438,128.81218 C 87.97214,121.10137 84.88867,113.38725 78.886767,108.08304 72.910517,102.79731 64.737784,100.59685 56.989255,101.9411 50.540808,97.439532 42.205784,95.968803 34.552612,98.223437 l -0.0041,-9.01e-4 c -7.700018,2.274004 -13.709591,7.965884 -16.380618,15.174564 -7.231685,3.15249 -12.6341538,9.48142 -14.349091,17.19193 -1.7148177,7.71064 0.496101,15.73273 5.7132215,21.65799 -0.6368414,7.66531 2.3889755,15.37087 8.4093555,20.6877 5.977152,5.28168 14.149869,7.48214 21.898402,6.13788 6.449356,4.4975 14.784368,5.96826 22.436643,3.71766 7.685162,-2.26453 13.747437,-7.9447 16.432426,-15.19707 4.573365,-2.00786 8.405048,-5.29105 11.038623,-9.38527 l 74.426846,16.55208 3.60632,-16.21582 -74.430778,-16.5529 c -0.650128,-4.8245 -2.72823,-9.42626 -6.020471,-13.1791 z m -29.748949,38.03894 c -3.414634,1.00618 -7.209103,-0.0291 -9.663209,-2.63404 l -3.866507,-4.09753 -5.239652,2.07652 c -3.326761,1.3195 -7.202458,0.64884 -9.872829,-1.71065 -2.541656,-2.24989 -3.474836,-5.53351 -2.501334,-8.60997 l 1.86987,-5.71059 -4.841824,-3.55715 c -2.807832,-2.06668 -4.124422,-5.29083 -3.430196,-8.41239 0.694203,-3.12155 3.252307,-5.47972 6.667319,-6.16252 l 5.893963,-1.17383 0.72575,-5.96078 c 0.362682,-3.19954 2.663135,-5.77668 5.923681,-6.74058 3.413717,-1.00217 7.204149,0.0324 9.659169,2.63313 l 3.869654,4.10249 5.239657,-2.07653 c 3.326757,-1.31949 7.201557,-0.64478 9.871927,1.71469 2.350739,2.07547 3.377175,5.0353 2.742454,7.8893 l -2.082608,6.43759 4.821557,3.55264 c 2.803732,2.06583 4.116314,5.28903 3.422986,8.40653 -0.693332,3.1175 -3.248232,5.48064 -6.658302,6.16027 l -5.911114,1.36572 -0.803325,6.50086 c -0.639222,2.87425 -2.823379,5.11987 -5.837091,6.00679 z"
     style="stroke-width:4.15301" /><path
     id="path481"
     d="M 106.75523,109.32418 C 109.76501,102.196 109.23459,93.905395 105.18079,86.997123 101.14562,80.114401 94.063109,75.480444 86.280907,74.347275 81.553009,68.06288 74.089215,64.071958 66.11441,63.83365 l -0.0036,-0.0021 c -8.025364,-0.234479 -15.50754,3.30524 -20.288766,9.325155 -7.853584,0.746117 -14.95698,5.080131 -18.985691,11.874428 -4.028644,6.794463 -4.423275,15.106277 -1.308533,22.360617 -2.99006,7.08676 -2.511754,15.35128 1.55567,22.2773 4.037291,6.87915 11.119794,11.5131 18.901999,12.64627 4.730025,6.28081 12.193798,10.27176 20.166498,10.51363 8.008295,0.23884 15.53691,-3.27334 20.344998,-9.33043 4.971073,-0.48535 9.634048,-2.4135 13.410725,-5.48516 l 65.58344,38.88623 8.47241,-14.28906 -65.58695,-38.88822 c 0.88313,-4.78733 0.33984,-9.80725 -1.62141,-14.39811 z m -40.107167,26.89563 c -3.558213,-0.1061 -6.842269,-2.27055 -8.364142,-5.50972 l -2.399793,-5.09712 -5.625658,0.34333 c -3.572179,0.21898 -7.046874,-1.62419 -8.850641,-4.69737 -1.715424,-2.92906 -1.580796,-6.33999 0.30155,-8.9609 l 3.553748,-4.84542 -3.494838,-4.88699 c -2.025483,-2.83769 -2.27365,-6.311443 -0.642702,-9.062095 1.630927,-2.750652 4.795746,-4.195914 8.2537,-3.782346 l 5.966653,0.718142 2.544251,-5.43915 c 1.340117,-2.927906 4.328197,-4.661442 7.726821,-4.563078 3.556095,0.10964 6.836579,2.272006 8.360574,5.507604 l 2.401247,5.102811 5.625662,-0.343329 c 3.572171,-0.218988 7.044756,1.627762 8.848523,4.700941 1.588163,2.703947 1.642966,5.83611 0.151834,8.35098 l -3.98211,5.47017 3.47698,4.8764 c 2.021874,2.83559 2.266503,6.3072 0.637673,9.05428 -1.628842,2.74707 -4.792153,4.19806 -8.244435,3.78301 l -6.042657,-0.54111 -2.785994,5.9283 c -1.501727,2.53273 -4.27615,3.98737 -7.416217,3.89265 z"
     style="stroke-width:4.15301" /><path
     id="path483"
     d="m 151.19106,79.753139 c 6.57589,-4.077674 10.9345,-11.150015 11.61886,-19.130555 0.6848,-7.948937 -2.41694,-15.823887 -8.11291,-21.246292 -0.22634,-7.861009 -4.01085,-15.431549 -10.38119,-20.234999 l -0.002,-0.0038 c -6.41381,-4.829534 -14.5656,-6.265113 -21.94661,-4.115657 -6.84036,-3.930017 -15.14209,-4.498468 -22.35653,-1.28215 -7.214494,3.216498 -12.340288,9.771518 -13.990991,17.491766 -6.535859,4.055269 -10.921936,11.076204 -11.605421,19.079104 -0.681002,7.947246 2.420721,15.822188 8.116705,21.244597 0.230118,7.859311 4.014628,15.429858 10.381186,20.23499 6.397352,4.823247 14.571131,6.308125 21.995551,4.143861 4.33729,2.476906 9.257,3.598305 14.1143,3.274287 L 160.0696,168.84589 175.24198,162.08144 144.193,92.440206 c 3.48749,-3.39644 5.94536,-7.807061 6.99806,-12.687067 z m -48.27469,-1.230635 c -2.84246,-2.143026 -4.271578,-5.807381 -3.641497,-9.330347 l 0.987417,-5.546592 -4.789394,-2.971127 c -3.041736,-1.885797 -4.812117,-5.398139 -4.508009,-8.948573 0.292912,-3.381751 2.374083,-6.087526 5.424943,-7.138523 l 5.7005,-1.900386 -0.0278,-6.007979 c -0.0129,-3.486386 1.79217,-6.464669 4.71286,-7.766823 2.92068,-1.302167 6.33869,-0.652537 8.92164,1.683462 l 4.45422,4.03443 5.21982,-2.968349 c 2.78579,-1.614888 6.22618,-1.302652 8.94288,0.741823 2.83867,2.144695 4.26609,5.805283 3.63981,9.326554 l -0.98952,5.552075 4.7894,2.971127 c 3.04173,1.885796 4.80832,5.399837 4.50422,8.950263 -0.26662,3.124493 -2.03214,5.712264 -4.70246,6.90281 l -6.41115,2.162662 0.0191,5.989012 c 0.0112,3.48259 -1.79555,6.457077 -4.71245,7.757536 -2.9169,1.300456 -6.337,0.656362 -8.91447,-1.677561 l -4.61853,-3.933901 -5.6998,3.227812 c -2.68931,1.199014 -5.79415,0.782663 -8.30195,-1.109414 z"
     style="stroke-width:4.15301" /><path
     id="path487"
     d="m 175.15843,78.642679 c 7.39522,-2.276017 13.40545,-8.011235 16.09202,-15.557081 2.67897,-7.515154 1.67653,-15.91936 -2.45748,-22.609403 1.77536,-7.66125 0.0353,-15.94423 -4.9081,-22.206633 l -6.7e-4,-0.0041 C 178.90543,11.966789 171.38453,8.510131 163.69968,8.7167605 158.08013,3.1799657 150.1942,0.52402544 142.39981,1.8048714 c -7.79446,1.2810058 -14.41552,6.3212067 -17.9708,13.3701116 -7.35082,2.264504 -13.37456,7.943029 -16.06597,15.510725 -2.67487,7.514486 -1.67244,15.918683 2.46158,22.608722 -1.77125,7.660581 -0.0311,15.943556 4.9081,22.206633 4.96444,6.288411 12.49411,9.79834 20.22471,9.588398 3.567,3.496216 8.04128,5.829017 12.82188,6.747862 l 12.36503,75.235847 16.3921,-2.69402 -12.36575,-75.239811 c 4.23505,-2.400579 7.73146,-6.043354 9.98774,-10.49666 z M 128.77525,65.20538 c -2.2058,-2.794026 -2.65855,-6.701054 -1.15533,-9.94892 l 2.36224,-5.114639 -3.87896,-4.088954 c -2.46381,-2.595774 -3.28522,-6.442337 -2.09034,-9.799469 1.14124,-3.19681 3.84077,-5.286087 7.05846,-5.528719 l 5.99612,-0.392043 1.49741,-5.818442 c 0.87196,-3.375613 3.37357,-5.798519 6.52907,-6.317114 3.15548,-0.518615 6.29687,0.976886 8.20269,3.891738 l 3.28499,5.032448 5.8021,-1.547017 c 3.10435,-0.85532 6.35297,0.319491 8.46212,2.986299 2.20173,2.79467 2.65378,6.697631 1.15466,9.944829 l -2.36567,5.119402 3.87896,4.088963 c 2.46381,2.595769 3.28113,6.443014 2.08625,9.800138 -1.05057,2.954635 -3.41481,5.00985 -6.29981,5.484003 l -6.75006,0.465452 -1.50078,5.797957 c -0.87268,3.371498 -3.37492,5.790316 -6.52631,6.308238 -3.1514,0.517913 -6.2962,-0.972763 -8.19725,-3.884215 l -3.46943,-4.976892 -6.3322,1.67622 c -2.90551,0.477525 -5.80316,-0.712876 -7.74891,-3.179263 z"
     style="stroke-width:4.15301" /><path
     id="path443"
     d="m 204.34746,83.341797 c 7.73749,0.03073 15.18356,-3.653138 19.99644,-10.055769 4.79647,-6.375603 6.34364,-14.696769 4.39073,-22.314698 3.97744,-6.784296 4.7843,-15.209532 1.93142,-22.660402 l 5.8e-4,-0.0041 C 227.79072,20.810781 221.64135,15.270229 214.24399,13.177732 210.52939,6.2180456 203.79299,1.3330808 195.971,0.23337151 188.14888,-0.86620779 180.32679,1.972282 174.83274,7.6417126 c -7.69167,-0.028573 -15.13376,3.5972314 -19.95776,10.0192784 -4.79237,6.376181 -6.33953,14.69734 -4.38662,22.315273 -3.97331,6.784878 -4.78021,15.210106 -1.93142,22.660394 2.86529,7.481973 9.00716,13.075988 16.44918,15.17895 2.36329,4.400226 5.93925,7.960224 10.22895,10.261724 l -10.61352,75.502848 16.45027,2.31246 10.61401,-75.506847 c 4.75796,-1.02968 9.18094,-3.465239 12.66163,-7.043996 z M 164.07473,56.6947 c -1.2731,-3.324357 -0.54118,-7.18882 1.86148,-9.841278 l 3.77888,-4.178485 -2.48444,-5.058992 c -1.57848,-3.211976 -1.21647,-7.128572 0.9244,-9.977202 2.04192,-2.71157 5.24135,-3.901613 8.38518,-3.174497 l 5.84058,1.412342 3.16305,-5.108006 c 1.83813,-2.962488 4.94804,-4.529973 8.11473,-4.084818 3.16668,0.445137 5.71979,2.808707 6.67056,6.159012 l 1.63633,5.782655 5.9995,0.252004 c 3.2182,0.108476 5.96922,2.197887 7.18799,5.371992 1.26904,3.323758 0.53765,7.184131 -1.8609,9.837171 l -3.78357,4.182014 2.48445,5.058997 c 1.57847,3.211976 1.21235,7.128003 -0.92852,9.976629 -1.8832,2.507406 -4.75241,3.764853 -7.64767,3.357854 l -6.58214,-1.566908 -3.16015,5.087444 c -1.83759,2.958344 -4.94689,4.521743 -8.10946,4.077168 -3.16257,-0.444587 -5.72039,-2.804566 -6.6676,-6.150207 l -1.82898,-5.784576 -6.54403,-0.286641 c -2.91581,-0.40986 -5.32715,-2.409582 -6.44965,-5.343697 z"
     style="stroke-width:4.15301" /><path
     id="path479"
     d="m 227.00621,95.835758 c 7.41832,2.199602 15.59874,0.75181 22.01413,-4.044056 6.39206,-4.77452 10.21085,-12.32782 10.47283,-20.187724 5.7205,-5.396515 8.85791,-13.257329 8.20917,-21.20928 l 0.002,-0.0038 c -0.65816,-8.001762 -5.00686,-15.044587 -11.52048,-19.127748 -1.61362,-7.722154 -6.70964,-14.300339 -13.9093,-17.549648 -7.19981,-3.249218 -15.50404,-2.718404 -22.36763,1.182647 -7.37496,-2.184607 -15.53526,-0.791506 -21.96676,4.019878 -6.38828,4.776226 -10.20707,12.329515 -10.46905,20.189423 -5.7167,5.398235 -8.85413,13.259032 -8.20916,21.209276 0.65192,7.985287 4.97841,15.077326 11.53197,19.183058 1.03437,4.886426 3.46839,9.306458 6.94046,12.718663 l -31.36287,69.496023 15.14152,6.83324 31.36445,-69.499716 c 4.8558,0.34607 9.78434,-0.751307 14.12902,-3.210252 z M 195.82313,58.963329 c -0.28967,-3.547988 1.49669,-7.052086 4.54683,-8.924245 l 4.7991,-2.950976 -0.9659,-5.552735 c -0.61432,-3.525769 0.8316,-7.183649 3.68548,-9.31753 2.72037,-2.030176 6.12522,-2.275058 8.93895,-0.695413 l 5.21009,2.993695 4.46868,-4.015907 c 2.5952,-2.328084 6.01992,-2.960454 8.93467,-1.645047 2.91475,1.315385 4.70252,4.300138 4.67551,7.782633 l -0.0511,6.009499 5.68805,1.924507 c 3.05861,1.006697 5.11324,3.783791 5.3929,7.172312 0.28593,3.546272 -1.49876,7.046591 -4.54512,8.920465 l -4.8046,2.953049 0.96591,5.552743 c 0.61431,3.525765 -0.8354,7.181942 -3.68926,9.315823 -2.51072,1.878783 -5.61756,2.28091 -8.28248,1.078253 l -5.87853,-3.350034 -4.46013,3.996981 c -2.59354,2.324247 -6.01651,2.952879 -8.92747,1.639188 -2.91096,-1.313712 -4.70425,-4.296339 -4.67514,-7.773356 l -0.13327,-6.065369 -6.20101,-2.110446 c -2.68381,-1.211191 -4.43754,-3.806915 -4.6921,-6.938086 z"
     style="stroke-width:4.15301" /><path
     id="path506"
     d="m 242.12955,118.82333 c 6.36582,4.39842 14.59069,5.56756 22.17977,3.00565 7.56028,-2.54887 13.53952,-8.5392 16.23386,-15.92752 7.11556,-3.34894 12.54291,-9.843525 14.40037,-17.60266 l 0.003,-0.0031 c 1.86399,-7.809416 -0.0777,-15.855674 -4.99774,-21.762701 0.86898,-7.840942 -1.92753,-15.678125 -7.75896,-21.00612 -5.83159,-5.327961 -13.88884,-7.407097 -21.62549,-5.835043 -6.32928,-4.370678 -14.518,-5.58554 -22.12723,-3.013903 -7.55721,2.551677 -13.53646,8.542002 -16.23079,15.930328 -7.11249,3.351745 -12.53985,9.846307 -14.40036,17.602648 -1.86481,7.791815 0.0407,15.877934 4.99144,21.818837 -0.53723,4.965733 0.40085,9.923664 2.63899,14.246754 l -51.42789,56.28942 12.26411,11.20493 51.43055,-56.29244 c 4.50714,1.8396 9.53249,2.33007 14.42657,1.34488 z M 223.96577,74.079194 c 0.82855,-3.462028 3.61645,-6.236448 7.09768,-7.066742 l 5.47903,-1.311428 0.8096,-5.577669 c 0.5131,-3.541912 3.0253,-6.568407 6.40143,-7.708486 3.21703,-1.082946 6.52905,-0.256489 8.71168,2.120176 l 4.02012,4.466076 5.49632,-2.426314 c 3.19072,-1.405112 6.64222,-0.940615 9.00306,1.216349 2.36086,2.156938 3.13128,5.549765 2.02214,8.851027 l -1.91825,5.695345 4.807,3.598658 c 2.59361,1.908327 3.68227,5.186826 2.8938,8.494193 -0.83156,3.459233 -3.61671,6.230584 -7.09487,7.063681 l -5.4849,1.31169 -0.8096,5.577677 c -0.5131,3.541903 -3.02837,6.565603 -6.40449,7.705683 -2.97071,1.00422 -6.0484,0.41996 -8.20689,-1.55209 l -4.54453,-5.0127 -5.48232,2.41099 c -3.18793,1.402 -6.63661,0.93448 -8.99438,-1.21968 -2.35777,-2.154163 -3.13411,-5.546691 -2.02468,-8.842089 l 1.76042,-5.805811 -5.23667,-3.93496 c -2.17381,-1.986067 -3.03293,-4.998591 -2.30069,-8.053559 z"
     style="stroke-width:4.15301" /><path
     id="path441"
     d="m 262.03109,168.35027 c 2.65298,7.26852 8.68943,12.97613 16.36334,15.27145 7.64288,2.28932 15.98447,0.8564 22.45327,-3.61589 7.74235,1.37938 15.92498,-0.78402 21.92513,-6.04258 l 0.004,-8.8e-4 c 6.03455,-5.29582 9.10022,-12.98439 8.49902,-20.64846 5.24075,-5.89662 7.48801,-13.90859 5.80838,-21.62687 -1.67979,-7.71835 -7.05352,-14.07171 -14.27578,-17.26011 -2.6392,-7.22477 -8.61972,-12.9488 -16.3157,-15.247824 -7.64199,-2.285254 -15.98359,-0.852334 -22.45239,3.619954 -7.74146,-1.37531 -15.92409,0.78806 -21.92512,6.04258 -6.02504,5.28098 -9.14346,12.98104 -8.5366,20.69063 -3.30832,3.74195 -5.40816,8.33017 -6.08017,13.15166 l -74.50116,16.21428 3.53268,16.23203 74.50508,-16.2152 c 2.615,4.10612 6.43262,7.41074 10.99596,9.43523 z m 11.03641,-47.01232 c 2.677,-2.34644 6.55561,-2.99933 9.87642,-1.66497 l 5.22926,2.09633 3.88425,-4.08392 c 2.46575,-2.59393 6.26504,-3.61189 9.67913,-2.59107 3.25122,0.97548 5.47644,3.5641 5.88407,6.76507 l 0.6996,5.96806 5.8877,1.19649 c 3.41595,0.69737 5.96419,3.07119 6.64423,6.19587 0.68006,3.12467 -0.65207,6.33874 -3.46515,8.39181 l -4.85702,3.53922 1.84308,5.71494 c 1.01369,3.05631 0.007,6.361 -2.54757,8.60438 -2.67787,2.3424 -6.55244,2.9944 -9.87237,1.6641 l -5.23419,-2.09951 -3.88426,4.08393 c -2.46575,2.59392 -6.26592,3.60782 -9.68001,2.58702 -3.00471,-0.89738 -5.17868,-3.1529 -5.80044,-6.00973 l -0.81165,-6.71723 -5.86741,-1.2009 c -3.41188,-0.6983 -5.95607,-3.07296 -6.63522,-6.19358 -0.67914,-3.12062 0.64798,-6.33786 3.45791,-8.38598 l 4.79207,-3.72057 -1.99936,-6.23772 c -0.62618,-2.87714 0.41377,-5.83211 2.77693,-7.90201 z"
     style="stroke-width:4.15301" /><path
     id="path477"
     d="m 258.23711,192.04147 c 0.72222,7.70378 5.1132,14.75606 11.95376,18.9231 6.81205,4.15336 15.24428,4.88352 22.63604,2.19864 7.13912,3.29843 15.60289,3.28167 22.7408,-0.28266 l 0.004,1.8e-4 c 7.18064,-3.59165 12.09655,-10.25095 13.45933,-17.81681 6.56523,-4.37417 10.77154,-11.55392 11.10494,-19.4458 0.33324,-7.892 -3.25288,-15.40078 -9.42999,-20.3171 -0.71999,-7.65796 -5.05271,-14.71194 -11.91368,-18.88817 -6.81223,-4.1492 -15.24445,-4.87936 -22.6362,-2.19447 -7.1393,-3.29427 -15.60307,-3.27754 -22.74081,0.28265 -7.16767,3.5797 -12.13752,10.23674 -13.50638,17.84807 -4.14939,2.78022 -7.34453,6.68563 -9.21773,11.17891 l -76.17729,-3.21655 -0.70084,16.59721 76.18132,3.21666 c 1.48777,4.63519 4.34213,8.80019 8.24258,11.91614 z m 22.60202,-42.67445 c 3.1847,-1.59054 7.10205,-1.2381 9.97571,0.89507 l 4.52635,3.35438 4.79324,-2.96491 c 3.04315,-1.88352 6.97639,-1.90434 10.01981,-0.0508 2.89739,1.76838 4.3931,4.83684 3.97533,8.0365 l -0.83733,5.9503 5.39153,2.65101 c 3.12729,1.54115 4.98994,4.48378 4.85502,7.67877 -0.13489,3.19496 -2.23882,5.96593 -5.48072,7.23818 l -5.596,2.19124 0.33295,5.99557 c 0.20516,3.21347 -1.60664,6.15475 -4.6471,7.67658 -3.1845,1.58641 -7.09772,1.23413 -9.97156,-0.89489 l -4.53032,-3.3587 -4.79325,2.96491 c -3.04314,1.88352 -6.97621,1.90018 -10.01963,0.0466 -2.67875,-1.63028 -4.20939,-4.36354 -4.08605,-7.28465 l 0.91901,-6.70338 -5.3708,-2.65013 c -3.12311,-1.54101 -4.98163,-4.48342 -4.84689,-7.67425 0.13477,-3.19082 2.23465,-5.96613 5.47225,-7.23439 l 5.57916,-2.38314 -0.35146,-6.54087 c 0.12421,-2.94187 1.8798,-5.53634 4.69076,-6.93901 z"
     style="stroke-width:4.15325;stroke-dasharray:none" /><path
     id="path1649"
     style="fill:#000000;fill-opacity:1;stroke:none;stroke-width:13.5997"
     d="m 170.07776,14.784522 a 94.116745,94.116745 0 0 0 -94.115235,94.115238 94.116745,94.116745 0 0 0 94.115235,94.11719 94.116745,94.116745 0 0 0 94.11719,-94.11719 94.116745,94.116745 0 0 0 -94.11719,-94.115238 z m 0,17.322265 a 76.793051,76.793051 0 0 1 4.1582,0.113282 76.793051,76.793051 0 0 1 4.14453,0.33789 76.793051,76.793051 0 0 1 4.1211,0.560547 76.793051,76.793051 0 0 1 4.08594,0.785156 76.793051,76.793051 0 0 1 4.03515,1.001954 76.793051,76.793051 0 0 1 3.97656,1.222656 76.793051,76.793051 0 0 1 3.90235,1.433594 76.793051,76.793051 0 0 1 3.82226,1.642578 76.793051,76.793051 0 0 1 3.72461,1.847656 76.793051,76.793051 0 0 1 3.6211,2.046875 76.793051,76.793051 0 0 1 3.5039,2.240235 76.793051,76.793051 0 0 1 3.37891,2.427734 76.793051,76.793051 0 0 1 3.24023,2.605469 76.793051,76.793051 0 0 1 3.09571,2.777344 76.793051,76.793051 0 0 1 2.9414,2.939453 76.793051,76.793051 0 0 1 2.77735,3.095702 76.793051,76.793051 0 0 1 2.60547,3.242188 76.793051,76.793051 0 0 1 2.42578,3.378906 76.793051,76.793051 0 0 1 2.24023,3.503906 76.793051,76.793051 0 0 1 2.04688,3.619143 76.793051,76.793051 0 0 1 1.84765,3.72656 76.793051,76.793051 0 0 1 1.64453,3.82031 76.793051,76.793051 0 0 1 1.4336,3.9043 76.793051,76.793051 0 0 1 1.2207,3.97656 76.793051,76.793051 0 0 1 1.00391,4.03516 76.793051,76.793051 0 0 1 0.7832,4.08398 76.793051,76.793051 0 0 1 0.5625,4.121105 76.793051,76.793051 0 0 1 0.33789,4.14648 76.793051,76.793051 0 0 1 0.11133,4.15625 76.793051,76.793051 0 0 1 -0.94531,12.01367 76.793051,76.793051 0 0 1 -2.8125,11.7168 76.793051,76.793051 0 0 1 -4.61133,11.13281 76.793051,76.793051 0 0 1 -6.29688,10.27539 76.793051,76.793051 0 0 1 -7.82617,9.16211 76.793051,76.793051 0 0 1 -9.16211,7.82617 76.793051,76.793051 0 0 1 -10.27539,6.29688 76.793051,76.793051 0 0 1 -11.13281,4.61132 76.793051,76.793051 0 0 1 -11.7168,2.8125 76.793051,76.793051 0 0 1 -12.01367,0.94532 76.793051,76.793051 0 0 1 -12.01172,-0.94532 76.793051,76.793051 0 0 1 -11.71875,-2.8125 76.793051,76.793051 0 0 1 -11.13281,-4.61132 76.793051,76.793051 0 0 1 -10.27344,-6.29688 76.793051,76.793051 0 0 1 -9.16406,-7.82617 76.793051,76.793051 0 0 1 -7.82617,-9.16211 76.793051,76.793051 0 0 1 -6.29492,-10.27539 76.793051,76.793051 0 0 1 -4.611335,-11.13281 76.793051,76.793051 0 0 1 -2.81445,-11.7168 76.793051,76.793051 0 0 1 -0.94531,-12.01367 76.793051,76.793051 0 0 1 0.94531,-12.011725 76.793051,76.793051 0 0 1 2.81445,-11.71875 76.793051,76.793051 0 0 1 4.611335,-11.13281 76.793051,76.793051 0 0 1 6.29492,-10.273438 76.793051,76.793051 0 0 1 7.82617,-9.164062 76.793051,76.793051 0 0 1 9.16406,-7.826172 76.793051,76.793051 0 0 1 10.27344,-6.294921 76.793051,76.793051 0 0 1 11.13281,-4.611329 76.793051,76.793051 0 0 1 11.71875,-2.814453 76.793051,76.793051 0 0 1 12.01172,-0.945313 z" /></svg>
