<?xml version="1.0" encoding="UTF-8" standalone="no"?>
<!-- Uploaded to: SVG Repo, www.svgrepo.com, Generator: SVG Repo Mixer Tools -->

<svg
   width="462.6824mm"
   height="272.51266mm"
   viewBox="0 0 104.92325 61.798148"
   version="1.1"
   id="svg13"
   xml:space="preserve"
   sodipodi:docname="init.svg"
   inkscape:version="1.2.2 (b0a8486541, 2022-12-01)"
   xmlns:inkscape="http://www.inkscape.org/namespaces/inkscape"
   xmlns:sodipodi="http://sodipodi.sourceforge.net/DTD/sodipodi-0.dtd"
   xmlns="http://www.w3.org/2000/svg"
   xmlns:svg="http://www.w3.org/2000/svg"><sodipodi:namedview
     id="namedview475"
     pagecolor="#ffffff"
     bordercolor="#000000"
     borderopacity="0.25"
     inkscape:showpageshadow="2"
     inkscape:pageopacity="0.0"
     inkscape:pagecheckerboard="0"
     inkscape:deskcolor="#d1d1d1"
     inkscape:document-units="mm"
     showgrid="false"
     inkscape:zoom="0.68859142"
     inkscape:cx="728.29836"
     inkscape:cy="524.25864"
     inkscape:window-width="1920"
     inkscape:window-height="1011"
     inkscape:window-x="0"
     inkscape:window-y="32"
     inkscape:window-maximized="1"
     inkscape:current-layer="svg13" /><defs
     id="defs17" /><path
     id="path721"
     style="fill:#000000;stroke:#000000;stroke-width:0.618727;stroke-dasharray:none"
     d="m 49.979319,42.210617 c 0,0.09595 -0.0035,0.190997 -0.01049,0.285153 -0.0071,0.09535 -0.01765,0.189755 -0.03157,0.283066 -0.01412,0.09465 -0.03172,0.188113 -0.0527,0.280331 -0.02118,0.09326 -0.04579,0.18528 -0.07367,0.275807 -0.02814,0.09127 -0.05956,0.181055 -0.09421,0.269245 -0.03495,0.08894 -0.07308,0.176233 -0.11434,0.261739 -0.04136,0.08575 -0.08585,0.16972 -0.13333,0.251746 -0.04768,0.08237 -0.09833,0.16281 -0.151823,0.241158 -0.05364,0.07855 -0.110164,0.155005 -0.169372,0.229226 -0.05936,0.07437 -0.121449,0.146454 -0.186126,0.216152 -0.06463,0.06965 -0.131838,0.136859 -0.201436,0.201536 -0.0698,0.06483 -0.14203,0.127066 -0.21655,0.186573 -0.07417,0.05926 -0.15063,0.115781 -0.229176,0.169471 -0.07845,0.05359 -0.158982,0.104347 -0.241506,0.152122 -0.08218,0.04753 -0.166339,0.09212 -0.252243,0.133628 -0.08556,0.04126 -0.172902,0.07944 -0.261888,0.114389 -0.08809,0.0346 -0.177823,0.06602 -0.268947,0.09411 -0.09063,0.02794 -0.182695,0.05255 -0.276006,0.07377 -0.09222,0.02093 -0.185678,0.03853 -0.280331,0.0527 -0.09341,0.01392 -0.187915,0.02451 -0.283414,0.03157 -0.09406,0.0069 -0.189008,0.01044 -0.284805,0.01044 -0.09112,0 -0.181949,-0.0032 -0.272228,-0.0097 -0.09083,-0.0065 -0.181204,-0.01626 -0.270886,-0.02913 -0.08988,-0.01293 -0.179066,-0.02903 -0.267455,-0.04827 -0.08894,-0.01934 -0.177127,-0.04186 -0.264274,-0.06746 -0.08715,-0.0256 -0.173349,-0.05429 -0.258408,-0.08605 -0.08496,-0.03167 -0.168726,-0.06642 -0.251249,-0.104098 -0.08247,-0.03763 -0.163655,-0.0783 -0.243345,-0.121797 -0.07974,-0.0435 -0.157938,-0.08993 -0.234545,-0.139196 -0.07621,-0.04897 -0.15073,-0.100719 -0.22351,-0.155204 -0.07248,-0.05429 -0.143223,-0.111258 -0.212025,-0.170913 -0.06831,-0.05916 -0.134623,-0.120952 -0.198952,-0.18523 -0.06443,-0.06443 -0.12632,-0.130944 -0.185628,-0.199349 -0.0596,-0.06885 -0.116626,-0.139594 -0.170913,-0.212175 -0.05443,-0.07268 -0.106087,-0.14715 -0.155005,-0.223211 -0.04921,-0.07661 -0.09565,-0.154856 -0.139146,-0.234546 -0.04355,-0.07979 -0.08421,-0.16102 -0.121896,-0.243593 -0.03763,-0.08247 -0.07238,-0.16629 -0.104049,-0.251249 -0.03172,-0.08496 -0.06035,-0.171112 -0.08595,-0.258209 -0.0256,-0.08715 -0.04807,-0.175338 -0.06746,-0.264274 -0.01924,-0.08849 -0.03535,-0.177823 -0.04827,-0.267804 -0.01287,-0.08968 -0.02257,-0.17996 -0.02908,-0.270786 -0.0064,-0.09013 -0.0096,-0.180706 -0.0096,-0.271681 0,-0.0959 0.0035,-0.190997 0.01049,-0.285104 0.0071,-0.0954 0.0176,-0.189804 0.03152,-0.283115 0.01417,-0.0946 0.03177,-0.188113 0.0527,-0.280331 0.02123,-0.09326 0.04583,-0.18523 0.07372,-0.275758 0.02809,-0.09127 0.05956,-0.181054 0.09416,-0.269294 0.03495,-0.08889 0.07313,-0.176183 0.114339,-0.261689 0.04141,-0.08575 0.0859,-0.16972 0.13338,-0.251796 0.04763,-0.08237 0.09828,-0.16276 0.151774,-0.241108 0.05364,-0.0786 0.110164,-0.155005 0.169372,-0.229226 0.05941,-0.07437 0.121498,-0.146504 0.186175,-0.216202 0.06463,-0.06965 0.131789,-0.136859 0.201387,-0.201486 0.0698,-0.06483 0.142029,-0.127067 0.216549,-0.186573 0.07417,-0.05926 0.15063,-0.115831 0.229177,-0.169521 0.07845,-0.05359 0.158982,-0.104347 0.241505,-0.152072 0.08218,-0.04758 0.16634,-0.09217 0.252244,-0.133628 0.0856,-0.04131 0.172951,-0.07949 0.261887,-0.114439 0.08814,-0.03455 0.177823,-0.06597 0.268997,-0.09406 0.09058,-0.02794 0.182645,-0.05255 0.276006,-0.07377 0.09217,-0.02098 0.185678,-0.03858 0.280282,-0.0527 0.09341,-0.01397 0.187964,-0.02451 0.283463,-0.03157 0.09401,-0.007 0.189008,-0.01049 0.284805,-0.01049 0.0959,0 0.190997,0.0035 0.285104,0.01049 0.0954,0.0071 0.189804,0.01765 0.283115,0.03157 0.0946,0.01412 0.188113,0.03172 0.280331,0.0527 0.09326,0.02118 0.18523,0.04579 0.275758,0.07367 0.09127,0.02814 0.181054,0.05956 0.269294,0.09421 0.08889,0.03495 0.176183,0.07308 0.261689,0.11434 0.08575,0.04136 0.16972,0.08585 0.251796,0.13333 0.08237,0.04768 0.16276,0.09833 0.241108,0.151823 0.0786,0.05364 0.155005,0.110164 0.229226,0.169372 0.07437,0.05936 0.146504,0.121449 0.216202,0.186126 0.06965,0.06463 0.136859,0.131838 0.201486,0.201436 0.06483,0.0698 0.127067,0.14203 0.186573,0.21655 0.05926,0.07417 0.115831,0.15063 0.169471,0.229176 0.05364,0.07845 0.104348,0.158982 0.152122,0.241506 0.04758,0.08217 0.09217,0.16629 0.133628,0.252243 0.04126,0.08556 0.07949,0.172902 0.11439,0.261888 0.0346,0.08809 0.06602,0.177823 0.09411,0.268947 0.02794,0.09063 0.05255,0.182645 0.07377,0.276006 0.02093,0.09222 0.03858,0.185678 0.0527,0.280282 0.01397,0.09346 0.02451,0.187964 0.03157,0.283463 0.007,0.09406 0.01049,0.189008 0.01049,0.284805 z" /><path
     id="path506"
     d="m 63.105305,32.178479 c 1.532821,1.059093 3.513284,1.34061 5.340654,0.72373 1.820435,-0.613742 3.260175,-2.05615 3.908943,-3.83518 1.713352,-0.806389 3.0202,-2.370216 3.467456,-4.238534 l 6.74e-4,-7.37e-4 c 0.44883,-1.880425 -0.01871,-3.817879 -1.203401,-5.240229 0.209239,-1.888016 -0.464131,-3.775127 -1.868276,-5.058052 -1.404187,-1.282917 -3.344286,-1.783551 -5.20719,-1.405017 -1.524024,-1.052413 -3.495783,-1.344939 -5.328004,-0.725716 -1.819696,0.614417 -3.259436,2.056824 -3.908203,3.835855 -1.712613,0.807065 -3.019465,2.370887 -3.467456,4.238532 -0.449026,1.876187 0.0098,3.823239 1.201887,5.253746 -0.129359,1.195696 0.09652,2.389514 0.635441,3.430469 l -12.383294,13.553899 2.953068,2.698029 12.383935,-13.554626 c 1.085271,0.442956 2.295323,0.561056 3.473766,0.323831 z M 58.731658,21.404564 c 0.199506,-0.83362 0.870804,-1.501671 1.709046,-1.701597 l 1.319294,-0.315778 0.194941,-1.343044 c 0.123551,-0.852855 0.728461,-1.581603 1.541398,-1.856122 0.774626,-0.260762 1.572127,-0.06176 2.097681,0.510516 l 0.968002,1.075384 1.323457,-0.584231 c 0.768292,-0.338336 1.599375,-0.22649 2.167842,0.292884 0.568468,0.519368 0.753979,1.336325 0.48691,2.131234 l -0.461895,1.371379 1.157474,0.866519 c 0.624515,0.459505 0.886652,1.248933 0.696798,2.045312 -0.200232,0.832947 -0.870867,1.500259 -1.708371,1.70086 l -1.320706,0.315841 -0.194942,1.343046 c -0.123551,0.852853 -0.7292,1.580928 -1.542135,1.855448 -0.715316,0.241804 -1.456391,0.101122 -1.976132,-0.373728 l -1.094275,-1.207005 -1.320084,0.58054 c -0.767622,0.337587 -1.598026,0.225014 -2.165754,-0.293685 -0.567726,-0.5187 -0.75466,-1.335585 -0.48752,-2.129082 l 0.423889,-1.397978 -1.260934,-0.947497 c -0.52343,-0.478224 -0.730297,-1.203608 -0.553981,-1.939212 z"
     inkscape:transform-center-x="-14.170967"
     inkscape:transform-center-y="-16.557837" /><path
     id="path441"
     d="m 67.897386,44.104045 c 0.638809,1.750183 2.092322,3.124515 3.940119,3.677204 1.840324,0.551243 3.848893,0.206211 5.406511,-0.870668 1.864277,0.332141 3.834567,-0.188783 5.27934,-1.45499 l 9.77e-4,-2.12e-4 c 1.453056,-1.275177 2.191238,-3.126504 2.046475,-4.971932 1.261917,-1.419842 1.803033,-3.349041 1.398597,-5.207521 -0.404476,-1.858498 -1.698413,-3.388319 -3.437458,-4.156053 -0.63549,-1.739648 -2.075537,-3.117934 -3.928648,-3.671515 -1.840111,-0.550265 -3.848679,-0.205233 -5.406298,0.871646 -1.864063,-0.33116 -3.834354,0.189757 -5.279339,1.45499 -1.450766,1.271604 -2.201648,3.125699 -2.055523,4.982087 -0.796609,0.90102 -1.302228,2.005816 -1.46404,3.16678 l -17.939095,3.904228 0.850633,3.908502 17.940038,-3.90445 c 0.629664,0.98871 1.548906,1.784427 2.647711,2.271904 z m 2.657451,-11.320071 c 0.644593,-0.564999 1.578522,-0.722208 2.378138,-0.400907 l 1.259149,0.504775 0.935288,-0.983366 c 0.593727,-0.624591 1.508554,-0.869704 2.330631,-0.623903 0.78286,0.234887 1.318669,0.858199 1.416823,1.628958 l 0.168457,1.437046 1.417695,0.288102 c 0.822526,0.167919 1.436115,0.739511 1.59986,1.491901 0.163751,0.752386 -0.157011,1.526301 -0.834371,2.020659 l -1.169519,0.852206 0.443794,1.376099 c 0.244086,0.735925 0.0018,1.53166 -0.613428,2.071844 -0.644802,0.564025 -1.577758,0.721019 -2.377163,0.400697 l -1.260337,-0.50554 -0.935289,0.983366 c -0.593726,0.624589 -1.508768,0.868727 -2.330843,0.622928 -0.723503,-0.216079 -1.246973,-0.759185 -1.396686,-1.44708 L 71.3916,40.884322 69.978789,40.595157 c -0.821545,-0.168143 -1.434158,-0.739935 -1.597691,-1.491348 -0.163531,-0.751412 0.156027,-1.526091 0.832629,-2.019257 l 1.153878,-0.895873 -0.481423,-1.501976 c -0.150778,-0.692785 0.09963,-1.404312 0.668655,-1.902723 z"
     inkscape:transform-center-x="-20.308439"
     inkscape:transform-center-y="-7.6858954" /><path
     id="path443"
     d="m 54.007775,23.634901 c 1.863106,0.0074 3.656042,-0.879637 4.814932,-2.421323 1.154941,-1.535178 1.527482,-3.538827 1.057243,-5.373144 0.957724,-1.633587 1.152009,-3.662295 0.465064,-5.456386 l 1.4e-4,-9.89e-4 C 59.652666,8.5780917 58.171961,7.2439854 56.390755,6.7401342 55.49632,5.064315 53.874266,3.888067 51.990812,3.6232686 c -1.883484,-0.2647671 -3.76696,0.4187113 -5.08987,1.7838504 -1.852073,-0.00688 -3.64405,0.8661754 -4.805618,2.4125366 -1.153951,1.5353171 -1.526492,3.5389644 -1.056252,5.3732824 -0.95673,1.633727 -1.151023,3.662433 -0.465064,5.456384 0.68993,1.80158 2.168828,3.14856 3.960788,3.654931 0.569055,1.059528 1.430109,1.916738 2.463024,2.470915 l -2.555624,18.180289 3.961051,0.556816 2.555742,-18.181252 c 1.145667,-0.247936 2.210674,-0.834393 3.048786,-1.69612 z m -9.697247,-6.41634 c -0.30655,-0.80047 -0.130311,-1.730992 0.448225,-2.369676 L 45.668667,13.84275 45.07044,12.624598 c -0.380083,-0.77341 -0.292915,-1.716485 0.222586,-2.402405 0.491671,-0.6529173 1.262061,-0.9394673 2.019061,-0.7643853 l 1.406352,0.340077 0.761627,-1.229954 c 0.442604,-0.7133359 1.191438,-1.0907696 1.953943,-0.983581 0.762502,0.1071843 1.377265,0.6763069 1.606199,1.483025 l 0.394012,1.3924023 1.444617,0.06068 c 0.774908,0.02612 1.437325,0.529228 1.730791,1.293519 0.305571,0.800326 0.129461,1.729863 -0.448085,2.368687 l -0.911044,1.006985 0.598229,1.218153 c 0.380081,0.77341 0.291923,1.716348 -0.223576,2.402267 -0.453456,0.603757 -1.14433,0.906537 -1.841478,0.808536 l -1.584912,-0.377295 -0.76093,1.225003 c -0.442473,0.712338 -1.191158,1.088788 -1.952673,0.981739 -0.761513,-0.107052 -1.377408,-0.67531 -1.605487,-1.480905 l -0.440398,-1.392865 -1.575735,-0.06902 c -0.702095,-0.09869 -1.28272,-0.580202 -1.553007,-1.286706 z"
     inkscape:transform-center-x="-4.4880875"
     inkscape:transform-center-y="-21.761358" /><path
     id="path477"
     d="m 66.983836,49.808637 c 0.173902,1.854987 1.231205,3.553103 2.878338,4.556483 1.640271,1.000085 3.670663,1.175899 5.45052,0.529407 1.719025,0.794228 3.757012,0.790193 5.475745,-0.06806 l 9.99e-4,4.2e-5 c 1.729022,-0.86483 2.912721,-2.468319 3.240866,-4.2901 1.580837,-1.053252 2.593673,-2.78206 2.673951,-4.682343 0.08024,-1.900309 -0.783259,-3.708344 -2.270642,-4.892144 -0.173365,-1.843955 -1.21664,-3.542478 -2.868687,-4.54807 -1.640314,-0.999084 -3.670703,-1.174899 -5.45056,-0.528407 -1.719068,-0.793225 -3.757053,-0.789197 -5.475746,0.06806 -1.7259,0.861955 -2.922587,2.464899 -3.252194,4.297628 -0.999131,0.669446 -1.768486,1.609829 -2.219532,2.691762 l -18.342689,-0.774512 -0.168754,3.996435 18.343659,0.774536 c 0.358237,1.116105 1.045537,2.118995 1.984726,2.869282 z m 5.442328,-10.275558 c 0.766842,-0.382986 1.710099,-0.298122 2.402044,0.215524 l 1.089898,0.807698 1.154163,-0.71392 c 0.732758,-0.453531 1.67984,-0.458543 2.412664,-0.01223 0.69766,0.425807 1.057811,1.164658 0.957218,1.935104 l -0.201622,1.432768 1.298225,0.638335 c 0.753018,0.371095 1.201524,1.079649 1.169037,1.848967 -0.03248,0.769313 -0.539085,1.436535 -1.3197,1.742879 l -1.347457,0.527628 0.08017,1.443668 c 0.0494,0.773771 -0.386861,1.481999 -1.118971,1.84844 -0.766796,0.381992 -1.709058,0.297167 -2.401047,-0.21548 l -1.090853,-0.808739 -1.154165,0.71392 c -0.732757,0.45353 -1.679797,0.457543 -2.412621,0.01123 -0.645015,-0.392556 -1.013578,-1.050695 -0.983879,-1.754067 l 0.221289,-1.614103 -1.293232,-0.638124 c -0.752012,-0.37106 -1.199525,-1.079561 -1.16708,-1.847878 0.03245,-0.768317 0.53808,-1.436582 1.31766,-1.741966 l 1.343404,-0.573834 -0.08463,-1.574973 c 0.02991,-0.708371 0.452636,-1.333093 1.129487,-1.670841 z"
     inkscape:transform-center-x="-20.710645"
     inkscape:transform-center-y="0.089328897"
     style="stroke-width:1.00006;stroke-dasharray:none" /><path
     id="path479"
     d="m 59.463764,26.643315 c 1.786252,0.529641 3.756011,0.181028 5.300769,-0.973766 1.539142,-1.149654 2.458667,-2.968409 2.521748,-4.860991 1.377437,-1.299424 2.132891,-3.192225 1.976681,-5.106971 l 4.11e-4,-9.11e-4 c -0.15848,-1.92674 -1.205599,-3.622578 -2.774011,-4.60576 C 66.100819,9.2355027 64.873751,7.6515451 63.14015,6.8691456 61.406512,6.0867684 59.40694,6.2145826 57.754261,7.1539147 55.978447,6.6278843 54.013534,6.9633283 52.464896,8.1218588 50.926665,9.2719237 50.00714,11.090676 49.94406,12.983259 c -1.376523,1.299838 -2.131983,3.192635 -1.976681,5.10697 0.156976,1.922773 1.19875,3.630461 2.776777,4.619078 0.249065,1.1766 0.835153,2.240897 1.67119,3.06252 l -7.551848,16.733911 3.645918,1.645372 7.55223,-16.7348 c 1.169224,0.08333 2.355964,-0.180907 3.402118,-0.772995 z m -7.508557,-8.878492 c -0.06975,-0.854318 0.360388,-1.698068 1.094829,-2.148864 l 1.155573,-0.710564 -0.232579,-1.33704 c -0.147921,-0.848968 0.200241,-1.729747 0.887425,-2.243563 0.655036,-0.488845 1.474889,-0.54781 2.152405,-0.167448 l 1.254534,0.72085 1.07601,-0.966988 c 0.624899,-0.560578 1.449535,-0.712846 2.151376,-0.39611 0.701841,0.316731 1.132316,1.035428 1.125812,1.873976 l -0.01231,1.447024 1.369621,0.463401 c 0.736482,0.242402 1.231215,0.911097 1.298554,1.727017 0.06885,0.853905 -0.360886,1.696745 -1.094416,2.147954 l -1.156898,0.711063 0.232581,1.337042 c 0.147919,0.848967 -0.201154,1.729336 -0.888335,2.243152 -0.604555,0.452391 -1.352649,0.549219 -1.994333,0.259632 l -1.415489,-0.806653 -1.073952,0.962431 c -0.624497,0.559654 -1.448711,0.711022 -2.149641,0.394699 -0.700927,-0.316328 -1.132733,-1.034513 -1.125723,-1.871742 l -0.03209,-1.460477 -1.493139,-0.508173 C 52.438789,19.1438 52.016509,18.518777 51.955214,17.764824 Z"
     inkscape:transform-center-x="-11.101582"
     inkscape:transform-center-y="-20.047156" /><path
     id="path481"
     d="m 30.508596,29.891184 c 0.724724,-1.71639 0.597003,-3.71268 -0.379109,-5.376119 -0.971626,-1.657287 -2.67702,-2.773095 -4.550892,-3.04595 -1.138428,-1.513216 -2.935631,-2.474188 -4.85588,-2.53157 l -8.6e-4,-5.11e-4 c -1.932423,-0.05646 -3.734052,0.795867 -4.885321,2.245399 -1.89106,0.179657 -3.601483,1.223242 -4.571554,2.859237 -0.970055,1.636035 -1.065078,3.637432 -0.315081,5.384201 -0.719975,1.706417 -0.604804,3.696427 0.374589,5.364138 0.972137,1.656427 2.677529,2.772234 4.551402,3.04509 1.13894,1.512353 2.936138,2.47333 4.85588,2.53157 1.928313,0.05751 3.741124,-0.788184 4.898861,-2.246669 1.196982,-0.116866 2.319777,-0.581144 3.229161,-1.320768 l 15.791802,9.363394 2.040066,-3.440655 -15.792645,-9.363874 c 0.212648,-1.152738 0.08183,-2.361481 -0.390419,-3.466913 z m -9.657383,6.476186 c -0.85678,-0.02555 -1.647546,-0.546726 -2.013997,-1.326683 l -0.577845,-1.227334 -1.354599,0.08267 c -0.860143,0.05273 -1.696813,-0.391086 -2.131141,-1.131077 -0.413056,-0.705286 -0.380639,-1.526601 0.07261,-2.157689 l 0.855705,-1.166726 -0.84152,-1.176736 c -0.487715,-0.683286 -0.547471,-1.519729 -0.154756,-2.182057 0.39271,-0.662328 1.154765,-1.010332 1.987404,-0.910749 l 1.436707,0.172921 0.612629,-1.30969 c 0.322686,-0.705009 1.042184,-1.122426 1.860537,-1.098741 0.85627,0.0264 1.646176,0.547075 2.013138,1.326173 l 0.578195,1.228703 1.3546,-0.08267 c 0.860141,-0.05273 1.696303,0.391948 2.130631,1.131937 0.382413,0.651082 0.395609,1.405274 0.03656,2.010829 l -0.95885,1.317158 0.83722,1.174186 c 0.486846,0.68278 0.54575,1.518708 0.153545,2.180175 -0.392208,0.661465 -1.1539,1.010848 -1.985173,0.910909 l -1.455008,-0.130294 -0.670838,1.427473 c -0.3616,0.609854 -1.029652,0.960116 -1.785747,0.937308 z"
     inkscape:transform-center-x="17.399326"
     inkscape:transform-center-y="-12.752522" /><path
     id="path483"
     d="m 41.208276,22.77079 c 1.583404,-0.981861 2.632912,-2.684806 2.797698,-4.606436 0.164892,-1.91402 -0.581973,-3.810225 -1.953504,-5.115883 -0.0545,-1.892848 -0.96577,-3.7157543 -2.49968,-4.8723743 l -4.06e-4,-9.136e-4 C 38.008004,7.0122824 36.04514,6.6666101 34.26787,7.1841763 32.620785,6.2378698 30.621816,6.1009927 28.884653,6.8754482 27.14748,7.649947 25.913243,9.2283267 25.515771,11.087281 c -1.573766,0.976466 -2.629887,2.667033 -2.794463,4.594047 -0.163978,1.913613 0.582884,3.809816 1.954417,5.115475 0.05541,1.892439 0.96668,3.715347 2.49968,4.872372 1.540415,1.161387 3.508575,1.51893 5.296297,0.997798 1.044373,0.596413 2.228988,0.866434 3.398575,0.788414 l 7.475857,16.767997 3.653349,-1.628807 -7.476266,-16.768875 c 0.839751,-0.817827 1.43158,-1.879858 1.685059,-3.054912 z M 29.584239,22.474466 C 28.899805,21.958448 28.555688,21.07611 28.707405,20.227817 l 0.237759,-1.335561 -1.153235,-0.715416 c -0.732418,-0.45408 -1.158707,-1.299815 -1.085481,-2.154722 0.07053,-0.81429 0.571654,-1.465812 1.306269,-1.718881 l 1.372621,-0.457593 -0.0067,-1.446658 c -0.0031,-0.839485 0.431535,-1.556624 1.134808,-1.870169 0.703268,-0.313548 1.52629,-0.157124 2.148237,0.40536 l 1.072528,0.971448 1.256877,-0.714747 c 0.670791,-0.388848 1.499199,-0.313665 2.153352,0.178623 0.683523,0.51642 1.027229,1.397851 0.876429,2.245736 l -0.238267,1.336881 1.153237,0.715416 c 0.732417,0.45408 1.157794,1.300224 1.08457,2.155129 -0.0642,0.752345 -0.489318,1.375453 -1.132305,1.662124 l -1.543737,0.520746 0.0046,1.442091 c 0.0027,0.838571 -0.43235,1.554796 -1.134709,1.867933 -0.702359,0.313136 -1.525883,0.158045 -2.146509,-0.403939 l -1.112094,-0.947242 -1.372452,0.777223 c -0.647558,0.28871 -1.395171,0.188457 -1.999023,-0.267135 z"
     inkscape:transform-center-x="11.122561"
     inkscape:transform-center-y="-20.002472" /><path
     id="path485"
     d="M 23.996867,40.538021 C 23.624692,38.712452 22.39108,37.137749 20.645688,36.317124 18.90747,35.49904 16.869944,35.542367 15.169838,36.376327 13.375439,35.771369 11.34968,35.994319 9.7330931,37.03225 l -9.968e-4,6.4e-5 c -1.6261074,1.045572 -2.6306952,2.766947 -2.7612276,4.613436 -1.4585352,1.216988 -2.279789,3.044596 -2.155456,4.942506 0.1243706,1.897932 1.1771111,3.602737 2.7830613,4.619899 0.3704558,1.814659 1.5901644,3.391274 3.340679,4.213569 1.738152,0.817085 3.775677,0.773758 5.475783,-0.0602 1.794334,0.603956 3.820092,0.381013 5.436744,-0.655924 1.623312,-1.042378 2.640872,-2.764605 2.771682,-4.622135 0.921428,-0.772912 1.585312,-1.790498 1.917513,-2.914628 L 44.860616,45.968326 44.599059,41.97689 26.278351,43.177482 C 25.802286,42.106321 25.011222,41.183071 23.996867,40.538021 Z M 19.68993,51.338777 c -0.721264,0.463147 -1.668175,0.480112 -2.411298,0.04377 l -1.170359,-0.685932 -1.070786,0.833781 c -0.67977,0.529659 -1.620856,0.636353 -2.397387,0.271349 -0.739367,-0.348395 -1.176807,-1.04428 -1.159564,-1.821071 l 0.04653,-1.446138 -1.359289,-0.495174 C 9.3792544,47.751312 8.8572251,47.09504 8.8068784,46.326684 8.7565261,45.558332 9.1885194,44.840547 9.9317063,44.452116 l 1.2829757,-0.669329 -0.234797,-1.4267 c -0.132242,-0.763987 0.225412,-1.514983 0.913919,-1.957954 0.72132,-0.462158 1.667243,-0.479048 2.410301,-0.04371 l 1.171422,0.686869 1.070787,-0.833782 c 0.679769,-0.529658 1.620923,-0.635353 2.397452,-0.270352 0.683455,0.320993 1.120591,0.935723 1.166628,1.638216 l -0.04661,1.628535 1.354299,0.4955 c 0.787523,0.288126 1.30856,0.944452 1.358842,1.71181 0.05028,0.767356 -0.380636,1.486074 -1.122897,1.873439 l -1.273982,0.714837 0.253341,1.556766 c 0.04636,0.707481 -0.306805,1.374 -0.943455,1.782508 z"
     inkscape:transform-center-x="21.139941"
     inkscape:transform-center-y="0.56796136" /><path
     id="path487"
     d="m 46.979364,22.503403 c 1.780693,-0.548041 3.227891,-1.929021 3.874789,-3.745981 0.645069,-1.80957 0.403692,-3.833214 -0.591734,-5.444106 0.427488,-1.844748 0.0085,-3.8392023 -1.181819,-5.347123 l -1.62e-4,-9.871e-4 C 47.881603,6.4485518 46.070649,5.616225 44.220219,5.6659792 42.86709,4.3327774 40.968241,3.693255 39.091436,4.0016692 37.214611,4.3101219 35.620329,5.5237491 34.764257,7.2210511 32.994255,7.7663198 31.543802,9.1336487 30.89574,10.95587 c -0.644081,1.809409 -0.402706,3.833051 0.592722,5.443942 -0.426498,1.844587 -0.0075,3.83904 1.181819,5.347123 1.195385,1.514183 3.00845,2.359337 4.869896,2.308785 0.858896,0.841852 1.936256,1.403566 3.087374,1.624814 l 2.97737,18.115999 3.947045,-0.648693 -2.977543,-18.116952 c 1.019756,-0.578034 1.861653,-1.455176 2.404941,-2.527485 z m -11.16858,-3.23556 C 35.27965,18.595071 35.170633,17.6543 35.532593,16.872248 l 0.568803,-1.231551 -0.934012,-0.984577 c -0.59326,-0.625035 -0.791047,-1.551247 -0.503333,-2.359609 0.274799,-0.769758 0.924817,-1.272834 1.699602,-1.331257 l 1.443803,-0.0944 0.360562,-1.4010193 c 0.209958,-0.812812 0.81232,-1.3962224 1.572131,-1.5210945 0.759806,-0.1248771 1.516218,0.2352237 1.975121,0.9370895 l 0.790991,1.2117603 1.397084,-0.3725053 c 0.747494,-0.205952 1.529727,0.07693 2.037588,0.7190693 0.530155,0.672927 0.639004,1.612719 0.278031,2.39461 l -0.569628,1.232698 0.934013,0.984579 c 0.593259,0.625034 0.79006,1.55141 0.502347,2.35977 -0.252966,0.711445 -0.822251,1.206319 -1.516929,1.32049 l -1.625343,0.112076 -0.361372,1.396087 c -0.210132,0.811821 -0.812645,1.394247 -1.571467,1.518957 -0.758822,0.124708 -1.516059,-0.234231 -1.97381,-0.935278 l -0.835403,-1.198383 -1.524728,0.403616 c -0.699616,0.114983 -1.397338,-0.171653 -1.865854,-0.765533 z"
     inkscape:transform-center-x="5.0964603"
     inkscape:transform-center-y="-21.440126" /><path
     id="path489"
     d="m 25.83107,34.58369 c 0.154756,-1.856682 -0.587711,-3.714161 -2.032906,-4.991359 -1.439018,-1.272748 -3.406926,-1.802596 -5.27269,-1.478914 -1.552718,-1.08393 -3.559704,-1.438066 -5.402507,-0.895174 l -9.76e-4,-2.17e-4 c -1.854083,0.547556 -3.3011248,1.918102 -3.9442801,3.653876 -1.7413134,0.759086 -3.0421709,2.283024 -3.4551097,4.139634 -0.41291,1.856642 0.1194559,3.788277 1.3756835,5.215016 -0.1533447,1.845727 0.5752401,3.701143 2.0248841,4.981379 1.4392352,1.271773 3.4071392,1.801622 5.2729042,1.477938 1.552937,1.082951 3.55992,1.437093 5.402507,0.895174 1.850506,-0.545275 3.310238,-1.913001 3.956755,-3.659296 1.101218,-0.48347 2.023847,-1.274028 2.657984,-2.259874 l 17.9212,3.985568 0.868365,-3.9046 -17.922148,-3.985763 C 27.124192,36.59539 26.623807,35.487334 25.83107,34.58369 Z m -7.163233,9.159375 c -0.822208,0.242277 -1.735876,-0.007 -2.326799,-0.634249 l -0.931014,-0.986642 -1.261653,0.500004 c -0.801049,0.317721 -1.734276,0.156234 -2.377273,-0.411905 -0.612004,-0.54175 -0.836704,-1.332412 -0.602295,-2.073192 l 0.450245,-1.375049 -1.16586,-0.856523 C 9.7770915,37.407874 9.4600707,36.631531 9.627233,35.879892 c 0.1671567,-0.751636 0.783121,-1.319458 1.60542,-1.483868 l 1.419204,-0.282647 0.174753,-1.435292 c 0.08733,-0.770415 0.641255,-1.390964 1.42636,-1.623061 0.821987,-0.241313 1.734683,0.0078 2.325826,0.634029 l 0.931772,0.987837 1.261654,-0.500006 c 0.801048,-0.317719 1.734059,-0.155256 2.377056,0.412879 0.566033,0.499752 0.813188,1.212447 0.660354,1.89966 l -0.50147,1.550105 1.16098,0.855437 c 0.675109,0.49743 0.991165,1.273543 0.824219,2.024204 -0.166947,0.750661 -0.78214,1.319681 -1.603249,1.483327 l -1.423334,0.328851 -0.193432,1.56534 c -0.153918,0.692089 -0.67984,1.232811 -1.40551,1.446371 z"
     inkscape:transform-center-x="20.577874"
     inkscape:transform-center-y="-7.9017024" /></svg>
