<?xml version="1.0" encoding="UTF-8" standalone="no"?>
<!-- Uploaded to: SVG Repo, www.svgrepo.com, Generator: SVG Repo Mixer Tools -->

<svg
   width="462.6824mm"
   height="272.51266mm"
   viewBox="0 0 104.92325 61.798148"
   version="1.1"
   id="svg13"
   xml:space="preserve"
   xmlns="http://www.w3.org/2000/svg"
   xmlns:svg="http://www.w3.org/2000/svg"><defs
     id="defs17" /><path
     id="path506"
     d="m 36.778644,25.34347 c 1.772353,-0.574443 3.198868,-1.976777 3.818694,-3.80315 0.618107,-1.818957 0.346683,-3.83879 -0.672572,-5.434711 0.400026,-1.850897 -0.04857,-3.838903 -1.26115,-5.32897 l -1.76e-4,-9.84e-4 C 37.442199,9.2769837 35.619075,8.4716607 33.76959,8.5489077 c -1.372792,-1.312946 -3.280935,-1.92418 -5.15295,-1.587909 -1.872034,0.33631 -3.448104,1.573494 -4.278859,3.2833313 -1.761703,0.571512 -3.191677,1.960245 -3.812588,3.791895 -0.617122,1.81878 -0.345699,3.838611 0.673557,5.434533 -0.399039,1.85072 0.04955,3.838726 1.261149,5.328969 1.217755,1.496253 3.04318,2.314369 4.903668,2.23616 0.871316,0.828994 1.956902,1.374638 3.11118,1.578754 l 3.246256,18.069753 3.93697,-0.707276 -3.246444,-18.070704 c 1.011053,-0.593123 1.839822,-1.482682 2.367115,-2.562944 z M 25.563215,22.274239 c -0.54107,-0.664806 -0.664058,-1.603852 -0.31376,-2.391197 l 0.550438,-1.239867 -0.94854,-0.970589 c -0.602484,-0.616149 -0.814012,-1.53932 -0.538343,-2.351868 0.26333,-0.773757 0.905801,-1.286437 1.679631,-1.356367 l 1.442241,-0.115845 0.339702,-1.406224 c 0.197856,-0.815842 0.791483,-1.408139 1.549353,-1.544289 0.757866,-0.136154 1.519547,0.212667 1.988828,0.907635 l 0.80891,1.199872 1.391394,-0.393224 c 0.744351,-0.217038 1.530702,0.05419 2.04805,0.688709 0.540095,0.664975 0.662898,1.603045 0.313585,2.390214 l -0.551246,1.241027 0.948541,0.97059 c 0.602482,0.616148 0.813027,1.539498 0.53736,2.352045 -0.242367,0.715125 -0.804234,1.218404 -1.497139,1.342887 l -1.623497,0.136216 -0.340586,1.401303 c -0.198044,0.814854 -0.791836,1.40617 -1.548721,1.542143 -0.756885,0.13597 -1.519372,-0.211676 -1.98749,-0.905843 l -0.853124,-1.185834 -1.518562,0.42623 c -0.697826,0.125365 -1.39973,-0.150872 -1.87702,-0.737724 z" /><path
     id="path441"
     d="m 49.163112,28.779766 c 1.778373,0.555525 3.752988,0.235552 5.31435,-0.896688 1.555674,-1.127182 2.501516,-2.932391 2.592072,-4.823857 1.396163,-1.279286 2.179024,-3.160917 2.050635,-5.077728 l 4.25e-4,-9.05e-4 C 58.990109,16.051749 57.967727,14.340884 56.413758,13.33503 56.052257,11.47017 54.84832,9.8685608 53.126265,9.0610696 51.404171,8.2535993 49.402954,8.3523626 47.736808,9.2675963 45.96882,8.7158341 43.999243,9.0227081 42.433945,10.158628 c -1.554768,1.127607 -2.50061,2.932814 -2.591166,4.824281 -1.395254,1.279712 -2.178121,3.161339 -2.050634,5.077727 0.129037,1.92485 1.145904,3.647486 2.709408,4.658914 0.231952,1.180093 0.802526,2.252786 1.62654,3.086466 l -7.794056,16.62248 3.62164,1.698144 7.794452,-16.623364 c 1.167889,0.100294 2.358342,-0.146676 3.412983,-0.72351 z m -7.378835,-8.986592 c -0.05734,-0.855241 0.385009,-1.692656 1.125919,-2.132739 l 1.165771,-0.693708 -0.21314,-1.340277 c -0.135576,-0.851026 0.225339,-1.726657 0.919912,-2.230439 0.662084,-0.479257 1.482689,-0.526334 2.154611,-0.136174 l 1.243933,0.738992 1.089938,-0.951261 c 0.632975,-0.551442 1.459734,-0.691722 2.156902,-0.364826 0.697167,0.326889 1.11716,1.051761 1.09848,1.890127 l -0.03332,1.446692 1.362747,0.483242 c 0.732884,0.253071 1.217854,0.928879 1.273336,1.745693 0.05644,0.854815 -0.385489,1.691327 -1.125493,2.131836 l -1.167101,0.694187 0.21314,1.340279 c 0.135575,0.851024 -0.226245,1.726233 -0.920816,2.230015 -0.61109,0.443525 -1.360484,0.529514 -1.997892,0.230643 l -1.403626,-0.827123 -1.087816,0.946735 c -0.632557,0.550527 -1.458883,0.68991 -2.155145,0.363439 -0.69626,-0.326472 -1.117591,-1.050851 -1.098424,-1.887891 l -0.01087,-1.460789 -1.485601,-0.529802 c -0.64194,-0.300995 -1.0551,-0.932085 -1.10544,-1.686848 z" /><path
     id="path443"
     d="m 24.465899,27.381623 c 1.137486,-1.475582 1.521765,-3.438696 1.000893,-5.295714 -0.5181,-1.849928 -1.883568,-3.362836 -3.626395,-4.103376 -0.716062,-1.753025 -2.209705,-3.139544 -4.052195,-3.683496 l -7.01e-4,-7.12e-4 c -1.854497,-0.546155 -3.813672,-0.180149 -5.295791,0.928853 -1.874556,-0.307284 -3.794176,0.266891 -5.1484889,1.602314 -1.3543065,1.335466 -1.9553026,3.24686 -1.6743035,5.126949 -1.130357,1.467146 -1.5251767,3.420994 -1.0022168,5.282978 0.518812,1.849226 1.8842786,3.362133 3.6271068,4.102673 0.7167763,1.752321 2.2104134,3.138844 4.0521934,3.683495 1.850254,0.54613 3.818558,0.189378 5.30921,-0.926636 1.187336,0.191456 2.391299,0.02806 3.458908,-0.455918 L 34.004694,46.715417 36.852859,43.906872 23.961592,30.83381 c 0.498877,-1.060729 0.679836,-2.262988 0.504307,-3.452187 z m -10.987076,3.806599 c -0.822098,-0.242651 -1.454281,-0.94783 -1.610279,-1.795347 l -0.24664,-1.333949 -1.331069,-0.264624 C 9.4455721,27.626502 8.7493176,26.984459 8.5175089,26.158328 8.2974443,25.371173 8.5377143,24.585119 9.1365814,24.090083 L 10.26092,23.179401 9.7464087,21.827313 c -0.2978641,-0.784871 -0.1428864,-1.609001 0.4053883,-2.149647 0.54827,-0.540647 1.37378,-0.683359 2.1537,-0.375253 l 1.345463,0.532691 0.925624,-1.110775 c 0.491407,-0.599736 1.293416,-0.820403 2.078826,-0.589331 0.821389,0.243341 1.452868,0.947819 1.609579,1.794635 l 0.246629,1.335363 1.331071,0.264623 c 0.845261,0.167801 1.540805,0.810547 1.772615,1.636676 0.204221,0.726938 0.02514,1.459681 -0.47614,1.953986 l -1.262357,1.029928 0.511001,1.348527 c 0.297151,0.784162 0.141482,1.607576 -0.40608,2.14752 -0.547564,0.539941 -1.373075,0.684078 -2.151583,0.375975 l -1.374004,-0.496122 -1.011881,1.209876 c -0.504836,0.497814 -1.240009,0.666621 -1.965433,0.452234 z" /></svg>
