<?xml version="1.0" encoding="UTF-8"?>
<svg xmlns="http://www.w3.org/2000/svg" 
     viewBox="0 0 1748.721 1029.9691" 
     width="1748.721mm" 
     height="1029.9691mm">
    <path d="M 6.7300 43.1400 L 8.5300 45.7400 L 8.8900 45.9400 L 8.8000 46.3200 L 9.2100 47.3600 L 10.1600 48.0300 L 11.5200 48.5300 L 11.4800 49.9800 L 11.7700 51.0500 L 12.6400 51.8000 L 13.8700 52.0000 L 15.0300 51.5300 L 16.1000 50.6900 L 17.2700 51.3800 L 18.4900 51.6900 L 19.6800 51.3300 L 20.4100 50.5500 L 20.6300 49.5500 L 20.4000 48.1400 L 22.7800 46.7700 L 24.3100 44.5000 L 25.7600 43.6000 L 26.2100 43.0800 L 26.2700 43.1700 L 28.7900 43.0000 L 42.7200 46.0900 L 26.5400 47.1600 L 25.8000 48.7500 L 24.6200 50.0800 L 23.7900 52.7000 L 21.8500 54.7000 L 19.1900 55.6400 L 16.4100 55.3600 L 13.6900 56.0100 L 10.9300 55.4200 L 8.7500 53.6800 L 7.5900 51.2000 L 5.6500 49.2200 L 4.8100 46.5800 L 5.2900 43.8600 L 6.5700 42.1600 Z M 76.1100 35.8800 L 78.8900 35.5300 L 81.5600 36.4100 L 83.5500 38.3700 L 84.4300 40.9600 L 86.1500 43.1300 L 86.7000 45.8500 L 85.9200 48.5100 L 84.0300 50.5300 L 82.9300 53.0400 L 80.7800 54.8200 L 78.0500 55.4800 L 75.3100 54.8900 L 72.5300 55.2400 L 69.8600 54.3600 L 67.8700 52.4000 L 66.9800 49.8000 L 65.7700 48.5100 L 64.9900 46.9300 L 46.6500 46.1600 L 46.8200 42.1600 L 65.1600 42.9400 L 66.0700 41.4400 L 67.3800 40.2500 L 68.4800 37.7300 L 70.6300 35.9500 L 73.3700 35.3000 Z M 72.4200 39.5300 L 71.6100 40.2200 L 71.2900 41.2000 L 71.3800 42.7700 L 70.0300 43.3500 L 69.0900 44.0500 L 68.7200 45.0900 L 69.0000 46.1600 L 69.8800 46.9400 L 71.1800 47.5800 L 70.9500 49.1900 L 71.1900 50.1800 L 71.9400 50.9400 L 73.1400 51.2800 L 74.3500 50.9300 L 75.5000 50.2200 L 76.6000 51.0300 L 77.7700 51.4700 L 79.0000 51.2400 L 79.8500 50.4700 L 80.1200 49.3900 L 80.0400 47.9500 L 81.3800 47.4200 L 82.3200 46.7300 L 82.7000 45.6800 L 82.4100 44.6100 L 81.5300 43.8300 L 80.2400 43.1900 L 80.4400 41.7600 L 80.2600 40.6600 L 79.4800 39.8300 L 78.2700 39.4900 L 77.0700 39.8400 L 75.9100 40.5500 L 74.8200 39.7400 L 73.6500 39.3000 Z M 77.5100 42.8400 L 78.7500 42.9700 L 79.5100 42.6100 L 79.4400 43.1800 L 79.6500 43.7300 L 81.0900 44.5100 L 81.7000 45.0500 L 81.8600 45.6400 L 81.7800 45.8400 L 80.0400 46.7800 L 77.2400 46.9100 L 74.6400 47.9500 L 71.9500 47.7800 L 71.9800 47.5900 L 71.7000 46.9700 L 70.3300 46.2600 L 69.7000 45.7100 L 69.5500 45.1200 L 69.7500 44.5400 L 70.4100 44.0600 L 71.9500 43.3400 L 71.9900 43.2500 L 72.0700 43.4000 L 72.9800 43.9400 L 74.2300 43.9600 L 75.3100 43.3200 L 76.2400 42.3400 Z M 9.6900 32.1900 L 10.4700 34.7600 L 10.1800 34.9100 L 9.6200 35.8700 L 9.7200 36.9800 L 10.4500 37.9000 L 11.6100 38.7600 L 11.1600 40.1300 L 11.1500 41.2400 L 11.7700 42.2100 L 12.9000 42.7400 L 14.1400 42.6200 L 15.4100 42.1200 L 16.3400 43.1000 L 17.4100 43.7500 L 18.6600 43.7400 L 19.5800 43.1900 L 20.0700 42.2900 L 20.2200 41.0400 L 20.6200 41.1500 L 23.7300 40.5700 L 25.9700 38.8500 L 27.6400 38.4400 L 28.3800 37.9900 L 29.8800 38.3200 L 40.9900 44.8900 L 26.4100 41.6600 L 25.2500 42.9800 L 23.7500 43.9200 L 22.2200 46.2000 L 19.7900 47.5800 L 16.9800 47.7400 L 14.3900 46.6800 L 11.5900 46.5400 L 9.1200 45.2000 L 7.5000 42.9200 L 7.0900 40.2200 L 5.7800 37.7800 L 5.7200 35.0100 L 6.9500 32.5300 L 9.1700 30.8700 L 10.1100 29.4500 Z M 22.8500 19.4900 L 23.9300 21.1200 L 24.6300 23.8000 L 26.6200 26.2500 L 29.5000 27.5600 L 30.8900 27.5100 L 30.5000 29.8900 L 30.9600 31.6000 L 30.8900 33.3500 L 40.0500 38.7800 L 42.7100 44.7200 L 43.0300 44.9600 L 43.6300 44.9700 L 44.9900 44.3400 L 45.4600 44.7700 L 44.6500 46.1600 L 28.8500 36.7900 L 27.3500 37.6900 L 25.6300 38.1100 L 23.4700 39.8100 L 20.7300 40.3600 L 18.0100 39.6400 L 15.8700 37.8300 L 13.2600 36.8300 L 11.3200 34.7900 L 10.4900 32.1200 L 10.9400 29.4200 L 10.4600 26.6900 L 11.2600 24.0400 L 13.2000 22.0600 L 15.8300 21.1800 L 17.9800 19.4900 L 20.7200 18.9300 Z M 67.5400 13.1200 L 70.3100 13.2000 L 72.7500 14.5200 L 74.2900 16.8300 L 74.6100 19.5800 L 75.8300 22.0300 L 75.8200 24.8200 L 74.8200 26.8000 L 73.0200 27.5200 L 70.1700 27.6700 L 67.3000 29.2500 L 65.5400 31.7500 L 65.3200 33.0300 L 63.1000 32.1700 L 61.3300 32.2700 L 59.6300 31.8500 L 52.3800 39.7700 L 45.9200 41.2200 L 45.6600 41.9500 L 45.9900 43.3400 L 45.9500 44.2200 L 44.2900 42.7100 L 56.6700 29.1500 L 56.1000 27.5000 L 56.0400 25.7200 L 54.8200 23.2600 L 54.8400 20.4700 L 56.0900 17.9500 L 58.3000 16.2300 L 59.8200 13.8700 L 62.2100 12.3900 L 64.9900 12.1300 Z M 41.8500 4.2100 L 43.7500 5.3700 L 41.5000 7.2600 L 41.0300 8.2700 L 40.8400 8.1000 L 39.7400 7.9400 L 38.7400 8.4500 L 38.1600 9.4600 L 37.8000 10.8700 L 36.3600 10.9600 L 35.3200 11.3600 L 34.6600 12.2900 L 34.5800 13.5400 L 35.1600 14.6500 L 36.1000 15.6400 L 35.5300 16.8700 L 35.3300 18.1100 L 35.8100 19.2600 L 36.6500 19.9100 L 37.6700 20.0300 L 39.2000 19.6200 L 40.0300 20.8200 L 40.9100 21.6000 L 42.0100 21.7600 L 43.9900 22.9100 L 45.0100 24.2800 L 45.2700 24.4700 L 44.5700 25.0300 L 45.4200 30.1900 L 43.7300 42.2700 L 43.5100 42.5200 L 43.5500 43.0200 L 43.7300 43.1900 L 43.8500 43.4900 L 44.1600 43.6900 L 43.6000 43.7900 L 40.6200 25.6800 L 38.9700 25.1000 L 37.5400 24.0500 L 34.8500 23.4800 L 32.6700 21.7400 L 31.4700 19.1900 L 31.4800 16.3900 L 30.5700 13.7500 L 30.8900 10.9500 L 32.4000 8.6000 L 34.7600 7.2200 L 36.5400 5.0900 L 39.0900 4.0000 Z M 33.5800 6.9700 L 31.9100 7.9700 L 30.1300 10.7000 L 30.1000 10.8700 L 29.6800 11.2600 L 29.3700 12.3900 L 29.3800 13.8400 L 28.0100 14.3000 L 27.1100 14.9500 L 26.7000 16.0200 L 26.9400 17.2400 L 27.7900 18.1700 L 28.9400 18.8900 L 28.7000 20.2200 L 28.8300 21.4700 L 29.5800 22.4700 L 30.5600 22.8800 L 31.5800 22.7400 L 32.2300 22.3600 L 34.4300 24.1600 L 37.2100 24.7900 L 38.5800 25.8000 L 39.6800 26.1900 L 40.0000 26.9100 L 42.5800 42.5100 L 35.8700 27.4500 L 34.1200 27.3100 L 32.4700 26.6600 L 29.7300 26.7900 L 27.1700 25.6600 L 25.3700 23.5000 L 24.6700 20.7900 L 23.1200 18.4600 L 22.7200 15.6800 L 23.5900 13.0200 L 25.5100 11.0800 L 26.6900 8.5700 L 28.8800 6.8700 L 31.6100 6.3800 Z M 78.6000 27.4400 L 81.0200 28.8300 L 82.5300 31.1100 L 84.7500 32.7800 L 85.9600 35.2700 L 85.8900 38.0400 L 84.9000 39.8600 L 84.3100 38.1100 L 81.8700 35.6700 L 81.7800 35.6400 L 81.5000 35.1600 L 80.4600 34.6300 L 79.0400 34.3400 L 78.8700 32.9000 L 78.4200 31.8900 L 77.4500 31.2800 L 76.2000 31.2600 L 75.1200 31.9000 L 74.1900 32.8800 L 72.9300 32.3800 L 71.6800 32.2500 L 70.5500 32.7800 L 69.9500 33.6600 L 69.8800 34.6800 L 70.1000 35.3900 L 67.9000 37.1800 L 66.7200 39.7600 L 65.4600 40.9200 L 64.8400 41.9100 L 64.0300 42.0900 L 48.2700 41.4200 L 64.3900 37.9200 L 64.8900 36.2400 L 65.8600 34.7500 L 66.2900 32.0400 L 67.9100 29.7700 L 70.4000 28.4400 L 73.1900 28.3200 L 75.7900 27.2700 Z M 12.7500 37.4500 L 15.4600 38.5300 L 17.1400 39.9500 L 16.5400 40.2000 L 15.4700 41.0400 L 14.3000 40.3500 L 13.0900 40.0300 L 11.9500 40.3700 L 11.9500 40.2600 L 12.4000 38.9100 L 12.1600 38.1700 L 11.0200 37.3300 L 10.5500 36.7300 L 11.7000 36.3200 Z M 54.5600 4.6500 L 55.9600 6.2500 L 54.9600 6.2000 L 52.0500 7.4300 L 51.7700 7.7400 L 51.4300 7.5800 L 50.3300 7.7600 L 49.4800 8.5600 L 48.7100 9.7900 L 47.3100 9.4500 L 46.2000 9.5200 L 45.2900 10.2200 L 44.8400 11.3900 L 45.0700 12.6200 L 45.6600 13.8400 L 44.7500 14.8400 L 44.2000 15.9700 L 44.3100 17.2100 L 44.9200 18.0800 L 45.8600 18.5000 L 47.2800 18.5600 L 48.2000 21.2600 L 50.0500 23.1400 L 50.6400 24.7400 L 51.0500 25.2900 L 50.9500 25.3300 L 50.5900 27.8200 L 44.7200 40.8900 L 46.9900 24.7700 L 45.5900 23.7200 L 44.5300 22.3000 L 42.1400 20.9600 L 40.5700 18.6400 L 40.1900 15.8600 L 41.0300 13.1900 L 40.9500 10.3900 L 42.0900 7.8100 L 44.2300 6.0300 L 46.9000 5.4000 L 49.2300 3.9000 L 51.9900 3.6200 Z M 63.1400 6.8600 L 65.3100 8.5700 L 66.4800 11.0900 L 67.6700 12.3000 L 65.1800 11.3500 L 62.4000 11.5600 L 62.3200 11.2500 L 61.4900 10.5100 L 60.3900 10.3800 L 59.3400 10.9100 L 58.2600 11.8700 L 57.0100 11.1500 L 55.9200 10.9100 L 54.8600 11.3200 L 54.1000 12.3200 L 53.9700 13.5600 L 54.2000 14.9000 L 53.0500 15.6100 L 52.2000 16.5300 L 51.9500 17.7600 L 52.3000 18.7700 L 53.0800 19.4300 L 54.2700 19.8300 L 54.0800 20.2100 L 54.0700 23.5500 L 55.2400 25.9300 L 55.3300 27.7300 L 55.5800 28.4600 L 54.9600 29.8200 L 46.1900 39.5400 L 52.4100 25.7700 L 51.3500 24.3700 L 50.7400 22.7000 L 48.8200 20.7500 L 47.9600 18.0900 L 48.3800 15.3000 L 49.9400 12.9800 L 50.6500 10.2700 L 52.4600 8.1200 L 55.0200 7.0000 L 57.7500 7.1500 L 60.4100 6.3600 Z M 19.4800 23.2100 L 18.7400 24.0300 L 18.1200 25.3400 L 16.6900 25.1700 L 15.5300 25.3400 L 14.7000 26.0800 L 14.4500 27.1600 L 14.8600 28.2600 L 15.7000 29.4400 L 14.8400 30.6000 L 14.4800 31.6500 L 14.7700 32.7600 L 15.6700 33.6200 L 16.9000 33.8900 L 18.2500 33.8100 L 18.8300 35.0400 L 19.6600 35.9800 L 20.8500 36.3600 L 21.8900 36.1300 L 22.6300 35.4300 L 23.3000 34.0000 L 24.7600 34.1300 L 25.9200 33.9600 L 26.7400 33.2200 L 27.0000 32.1300 L 26.5900 31.0400 L 25.7500 29.8600 L 26.7100 28.5500 L 26.9700 27.5600 L 26.6700 26.5300 L 25.7700 25.6700 L 24.5400 25.4000 L 23.1900 25.4900 L 22.6100 24.2600 L 21.7900 23.3100 L 20.6000 22.9300 Z M 18.5200 28.1100 L 21.3200 28.2500 L 23.7900 29.5900 L 25.4100 31.8700 L 25.6000 33.1500 L 25.5600 33.2000 L 24.7500 33.3200 L 23.0700 33.2300 L 22.6600 33.5200 L 21.9700 34.9400 L 21.5100 35.3600 L 21.8000 34.4800 L 21.7400 33.4600 L 21.1400 32.5800 L 20.0200 32.0500 L 18.7700 32.1700 L 17.5100 32.6700 L 16.5700 31.6800 L 15.5200 31.0500 L 15.5600 30.9600 L 16.4000 29.8300 L 16.4800 29.2400 L 15.5700 27.8900 L 15.2800 27.1000 L 15.2800 27.0800 L 15.9300 27.0500 Z M 63.4900 16.1800 L 62.4600 16.8900 L 61.9500 18.0400 L 61.7500 19.3800 L 60.4400 19.7000 L 59.3400 20.3100 L 58.7300 21.4000 L 58.7400 22.4700 L 59.2800 23.3400 L 60.5400 24.2900 L 60.1200 25.6800 L 60.0500 26.8500 L 60.6100 27.8100 L 61.6100 28.2800 L 62.7700 28.1100 L 64.0900 27.5300 L 65.1900 28.7300 L 66.1000 29.1900 L 67.1600 29.1100 L 68.1900 28.4000 L 68.7000 27.2500 L 68.9000 25.9100 L 70.2200 25.5900 L 71.3100 24.9800 L 71.9300 23.8900 L 71.8800 22.7400 L 71.2300 21.8500 L 70.0700 20.9800 L 70.5400 19.6100 L 70.6100 18.4400 L 70.0500 17.4800 L 69.0400 17.0100 L 67.8800 17.1800 L 66.5600 17.7700 L 65.5900 16.6900 L 64.6300 16.1300 Z M 65.0700 17.3100 L 66.0400 18.3800 L 66.6000 18.5700 L 68.1100 17.9500 L 68.9000 17.8300 L 68.9300 17.8400 L 68.8400 18.4800 L 67.2800 20.8000 L 66.5700 23.5100 L 64.7600 25.6600 L 62.2000 26.7800 L 60.8900 26.7100 L 60.8600 26.6600 L 60.9100 25.8300 L 61.3100 24.5200 L 61.2900 24.0200 L 61.0700 23.6900 L 59.8700 22.7800 L 59.5300 22.2400 L 60.3700 22.7200 L 61.3800 22.8700 L 62.3600 22.4600 L 63.1200 21.4600 L 63.2500 20.2200 L 63.0200 18.8800 L 64.1800 18.1700 L 65.0000 17.2700 Z M 49.9700 9.8700 L 49.2000 12.6300 L 47.5900 15.1800 L 47.2400 17.7900 L 46.8400 17.7600 L 47.0800 17.4100 L 47.1600 16.1600 L 46.5800 15.0500 L 46.0800 14.5300 L 46.3700 14.2100 L 46.4300 13.6200 L 46.1300 12.9900 L 46.2100 12.8300 L 46.4100 11.6000 L 46.0200 10.6400 L 46.4800 10.3000 L 47.2300 10.2500 L 48.6200 10.5900 L 49.3400 10.2900 L 49.8100 9.5300 Z M 60.6200 12.5000 L 59.1800 13.3900 L 57.7000 15.6700 L 55.9500 17.0400 L 55.8400 16.4000 L 55.2500 15.1800 L 56.1600 14.1800 L 56.7100 13.0500 L 56.6000 11.8700 L 56.7200 11.9000 L 57.9500 12.6100 L 58.6400 12.5800 L 59.8000 11.5600 L 60.4500 11.2200 Z M 40.0600 8.7800 L 40.5400 9.3600 L 40.1800 10.1600 L 40.2200 13.0800 L 39.4000 15.7200 L 39.4600 16.2400 L 38.9300 15.6600 L 37.7800 14.9500 L 38.0200 13.6100 L 37.8900 12.3600 L 37.3900 11.6900 L 37.9500 11.6600 L 38.4500 11.3400 L 38.9200 9.7300 L 39.3100 9.0500 L 39.8700 8.7600 Z" fill="black" fill-rule="nonzero" stroke="none"/>
</svg>