<?xml version="1.0" encoding="UTF-8"?>
    <svg xmlns="http://www.w3.org/2000/svg" 
         viewBox="0 0 340.15747 217.80147" 
         width="340.15747px" 
         height="217.80147px">
        <path d="M 179.61 54.86 L 178.84 131.1 L 185.18 134.66 L 190.3 139.96 L 197.6 142.24 L 203.85 146.65 L 208.58 152.89 L 210.18 156.5 L 211.65 164.16 L 210.84 171.9 L 209.59 175.61 L 211.38 183.19 L 210.89 190.96 L 208.12 198.3 L 205.9 201.59 L 200.25 206.82 L 193.37 210.04 L 189.62 210.81 L 187.05 213.76 L 180.81 218.26 L 173.51 220.61 L 169.62 220.89 L 161.99 219.56 L 155.24 215.97 L 149.82 210.41 L 146.1 209.56 L 139.28 206.2 L 133.73 200.86 L 129.98 193.91 L 128.96 190.13 L 128.63 182.36 L 130.57 174.81 L 128.78 167.22 L 129.27 159.46 L 132.05 152.11 L 134.26 148.83 L 139.91 143.58 L 146.81 140.34 L 150.58 139.56 L 153.01 136.75 L 158.89 132.41 L 162.22 130.94 L 163 54.69 Z M 4.76 172.67 L 7.8 176.83 L 11.91 180.91 L 16.12 183.99 L 21.17 186.58 L 27.86 188.61 L 28.02 195.1 L 30.49 198.98 L 35.07 201.09 L 40.21 200.51 L 46.95 195.73 L 54.26 199.58 L 59.43 199.49 L 61.83 198.4 L 64.85 195.16 L 65.84 192.13 L 75.36 187.46 L 83.11 180.05 L 86.35 174.87 L 88.45 173.52 L 94.82 180.78 L 90.28 181.08 L 88.99 184.49 L 84.98 190.59 L 82.31 193.18 L 80.59 200.63 L 76.66 207.19 L 73.96 209.99 L 67.32 214.25 L 63.62 215.56 L 55.9 216.47 L 48.22 215.1 L 44.59 216.56 L 36.91 217.8 L 29.18 216.75 L 25.48 215.35 L 19 210.97 L 14.27 204.98 L 11.61 197.85 L 8.47 195.51 L 3.52 189.63 L 0.62 182.53 L 0.11 174.76 L 2.04 167.37 Z M 292.49 132.85 L 296.16 134.22 L 299.93 133.16 L 307.69 132.75 L 315.26 134.62 L 318.79 136.41 L 324.77 141.46 L 327.05 144.55 L 330.05 151.53 L 330.71 155.3 L 335.97 161 L 339.21 167.94 L 340.14 175.62 L 338.57 183.2 L 336.92 186.66 L 332.11 192.65 L 329.03 195.06 L 328.06 198.76 L 324.48 205.46 L 318.97 210.84 L 315.57 212.88 L 308.09 215.27 L 304.2 215.6 L 296.49 214.54 L 292.83 213.16 L 289.06 214.22 L 281.29 214.63 L 273.72 212.76 L 266.98 208.65 L 264.21 205.92 L 260.14 199.45 L 258.24 192.04 L 255.51 189.52 L 251.36 183.5 L 249.99 180.13 L 246.05 179.96 L 255.16 168.9 L 260.06 161.26 L 267.75 144.93 L 270.52 136.23 L 277.08 133.02 L 284.79 131.79 Z M 168.06 146.47 L 164.19 149.09 L 160.38 156.68 L 153.65 155.98 L 149.56 157.1 L 146.5 160.3 L 145.54 162.75 L 145.73 167.92 L 149.99 175 L 145.59 182 L 145.29 187.17 L 146.2 189.63 L 149.52 193.07 L 151.68 193.9 L 160.01 193.51 L 163.66 201.2 L 167.47 203.89 L 169.78 204.28 L 174.2 202.93 L 175.97 201.32 L 179.78 193.71 L 188.11 194.24 L 192.17 192.07 L 194.62 187.67 L 194.43 182.5 L 190.17 175.41 L 194.57 168.42 L 194.87 163.25 L 193.95 160.78 L 190.96 157.52 L 186.87 156.32 L 180.34 156.88 L 176.5 149.22 L 172.69 146.52 Z M 283.34 148.54 L 278.94 150.63 L 276.54 154.18 L 276.5 162.85 L 268.72 166.45 L 265.91 170.17 L 265.45 172.46 L 266.65 176.92 L 268.2 178.74 L 275.67 182.79 L 274.75 189.49 L 275.74 193.62 L 278.83 196.78 L 281.25 197.82 L 286.43 197.79 L 293.65 193.77 L 300.5 198.39 L 305.65 198.85 L 308.15 198.02 L 311.69 194.81 L 312.58 192.68 L 312.46 184.35 L 320.26 180.94 L 323.08 177.22 L 323.54 174.92 L 322.33 170.46 L 320.78 168.64 L 313.29 164.59 L 314.09 156.28 L 313.39 154.08 L 310.15 150.6 L 307.73 149.56 L 302.56 149.59 L 295.34 153.62 L 288.49 149 Z M 177.87 166.57 L 184.11 166.58 L 180.52 172.83 L 181.52 175.61 L 181.34 180.23 L 179.22 184.29 L 175.42 187.13 L 171.63 187.94 L 169.91 191.24 L 167.96 187.44 L 164.42 185.53 L 161.59 181.74 L 160.88 179.42 L 161.06 174.8 L 163.18 170.74 L 166.98 167.91 L 169.62 167.14 L 174.19 167.53 L 174.31 164.85 Z M 178.2 15.13 L 193.84 17.81 L 201.3 20.09 L 215.36 26.37 L 228.09 34.78 L 239.26 45.09 L 248.65 57.07 L 256.03 70.5 L 261.17 85.14 L 263.85 100.78 L 263.83 117.18 L 262.75 125.33 L 258.51 141.11 L 255.39 148.65 L 247.23 162.81 L 236.63 175.45 L 230.52 181.04 L 221.38 187.7 L 221.25 181.6 L 220.1 175.72 L 221.61 165.75 L 228.47 158.77 L 235.56 149.02 L 241.03 138.29 L 244.75 126.83 L 245.93 120.91 L 246.87 108.9 L 246.42 100.6 L 245.08 92.39 L 241.42 80.48 L 237.93 72.93 L 231.21 62.43 L 222.89 53.15 L 213.17 45.34 L 202.32 39.2 L 194.6 36.13 L 186.59 33.9 L 174.24 32.22 L 164.05 32.34 L 152.15 34.23 L 140.69 37.95 L 129.95 43.42 L 124.94 46.77 L 115.78 54.6 L 107.95 63.76 L 104.6 68.78 L 99.13 79.51 L 97.04 85.17 L 94.23 96.89 L 93.28 108.9 L 94.23 120.91 L 97.04 132.63 L 99.13 138.29 L 104.6 149.02 L 111.68 158.77 L 118.76 165.95 L 120.05 174.68 L 118.64 181.85 L 118.61 187.68 L 112.07 183.02 L 100.89 172.71 L 91.51 160.73 L 87.55 154.18 L 81.26 140.12 L 77.33 124.95 L 75.96 108.9 L 76.31 100.78 L 78.99 85.14 L 81.26 77.68 L 87.55 63.62 L 91.51 57.07 L 100.89 45.09 L 112.07 34.78 L 124.8 26.37 L 138.86 20.09 L 154.03 16.15 L 170.08 14.78 Z M 303.36 163.47 L 303.95 168.17 L 306.86 172.25 L 310.53 174.37 L 305.63 177.05 L 303.34 180.26 L 300.85 180.01 L 297.47 181.99 L 290.06 184.35 L 285.5 184.65 L 285.38 180.38 L 282.99 175.98 L 278.32 172.94 L 281.55 171.48 L 285.06 167.99 L 288.35 167.77 L 290.76 166.76 L 294.32 163.55 L 296.55 163.55 L 300.12 162.39 Z M 14.57 125.06 L 16.36 130.48 L 21.65 140.86 L 28.31 146.16 L 26.06 154.2 L 26.37 156.49 L 28.94 160.49 L 31.14 161.93 L 36.24 162.82 L 44.05 160.12 L 49.98 165.87 L 54.98 167.23 L 57.58 166.85 L 61.39 164.59 L 62.79 162.52 L 71.85 162.49 L 79.62 160.4 L 82.63 165.38 L 78.71 167.59 L 77.09 171.08 L 72.37 177.06 L 69.36 179.46 L 62.28 182.79 L 58.41 183.61 L 50.61 183.46 L 43.21 181.07 L 39.84 179.07 L 35.94 179.45 L 28.23 178.49 L 21.1 175.32 L 15.18 170.09 L 12.94 166.91 L 10.09 159.84 L 9.53 152.25 L 5.35 145.71 L 3.38 138.31 L 3.28 134.46 L 4.97 126.86 L 8.92 120.28 L 13.68 115.99 Z M 69.41 70.94 L 71.79 74.47 L 69.62 81.56 L 65.62 80.44 L 60.98 81.58 L 59.18 83.04 L 55.35 90.44 L 46.86 89.75 L 42.62 91.69 L 40.25 95.68 L 40.58 100.34 L 45.26 107.45 L 40.63 114.39 L 40.21 116.66 L 41.41 121.26 L 43.05 123.32 L 47.62 125.75 L 55.88 125.61 L 59.73 132.92 L 64.05 135.77 L 66.65 136.22 L 69.49 135.8 L 75.03 151.44 L 70.11 152.64 L 66.15 152.83 L 58.43 151.39 L 54.85 149.84 L 48.57 145.26 L 45.99 142.32 L 42.16 141.46 L 35.13 138.15 L 29.35 132.92 L 27.08 129.67 L 24.21 122.39 L 23.66 118.59 L 24.32 111.02 L 25.53 107.39 L 24.26 103.69 L 23.5 96.04 L 25.12 88.54 L 26.84 85.03 L 31.8 79.1 L 34.89 76.83 L 41.97 73.82 L 45.82 73.16 L 51.42 68.01 L 54.75 66.15 L 62.15 64.02 L 66.22 63.84 Z M 107.56 106.88 L 106.76 109.32 L 107.96 112.84 L 108.77 120.1 L 108.38 123.72 L 131.54 137.45 L 126.11 143.03 L 121.58 150.86 L 115.4 147.19 L 110.59 139.24 L 106.58 129.61 L 105.13 124.46 L 103.49 114.11 L 103.37 106.51 Z M 302.63 98.34 L 310.19 100.61 L 313.56 102.55 L 319.12 107.77 L 322.81 114.43 L 329.35 118.6 L 334.24 124.49 L 335.95 127.95 L 337.6 135.56 L 337 141.99 L 332 134.55 L 327.86 130.62 L 323.57 127.62 L 318.38 125.12 L 313.43 123.58 L 307.72 122.74 L 306.99 119.59 L 303.97 116.11 L 299.13 114.7 L 294.13 116.04 L 288.17 121.77 L 280.38 119.04 L 277.76 119.13 L 273.39 121.13 L 273.95 103.03 L 280.14 102.4 L 284.04 102.8 L 287.42 100.82 L 294.83 98.46 Z M 218.57 62.97 L 225.22 71.24 L 223.97 74.08 L 224.03 78.51 L 226.27 82.13 L 231.5 86.07 L 229.26 94.34 L 230.3 98.89 L 233.72 102.01 L 236.54 102.65 L 236.86 108.9 L 236.05 119.23 L 227.7 117.48 L 208.99 137.94 L 201.61 133.08 L 195.81 130.96 L 194.3 129.4 L 215.44 106.28 L 214 102.92 L 212.67 95.74 L 212.8 92.03 L 210.58 88.89 L 207.75 81.81 L 207.18 74.12 L 209.02 66.45 L 210.79 62.94 L 214.07 58.67 Z M 116.27 89.38 L 126.03 93.81 L 132.06 94.9 L 139.89 99.46 L 144.99 130.5 L 143.19 131.01 L 129.02 99.21 L 125.38 99.18 L 118.26 97.54 L 114.91 95.93 L 111.14 96.71 L 104.48 96.58 L 106.58 88.18 L 108.7 82.63 Z M 194.82 46.86 L 200.95 49.67 L 198.33 51.72 L 195.98 56.34 L 195.82 58.96 L 197.26 63.15 L 198.99 64.94 L 197.19 73.79 L 197.28 79.52 L 198.13 84.55 L 199.92 89.88 L 202.69 95.05 L 203.95 104.02 L 188.94 120.43 L 189.03 111.47 L 197.73 92.22 L 195.33 89.48 L 191.83 83.07 L 190.79 79.5 L 189.37 78.44 L 189.32 52.45 L 188.41 50.1 L 185 46.43 L 182.61 45.32 L 183.79 43.53 Z M 54.35 100.38 L 56.99 101.94 L 60.89 101.56 L 66.24 102.05 L 65.97 109.33 L 66.56 119.66 L 62.67 118.27 L 59.51 116.29 L 57.07 115.68 L 51.49 115.86 L 54.01 112.29 L 55.26 107.44 L 54.94 104.94 L 52.33 100.15 Z M 127.45 62.93 L 128.78 65.21 L 132.29 67.9 L 136.52 68.38 L 139.8 67.51 L 144.95 76.05 L 152.7 83.04 L 152.39 113.82 L 148.78 91.84 L 145.26 90.89 L 138.79 87.49 L 135.96 85.09 L 132.12 84.89 L 124.81 82.73 L 121.46 80.83 L 115.73 75.5 L 113.93 72.8 L 119.26 65.55 L 126.85 57.98 Z M 249.98 35.58 L 257.26 37.77 L 260.56 39.69 L 268.31 39.32 L 275.71 41.3 L 282.19 45.53 L 284.85 48.39 L 288.58 55.09 L 289.62 58.79 L 289.95 66.53 L 292.16 69.65 L 294.99 76.7 L 295.57 84.38 L 294.9 88.41 L 287.32 90.09 L 281.81 92.51 L 272.93 93.04 L 272.67 91.1 L 276.23 88.95 L 277.82 86.88 L 279.03 81.98 L 277.55 77.6 L 271.09 72.34 L 273.49 64.17 L 272.45 59.62 L 269.03 56.49 L 264.4 55.87 L 260.44 57.24 L 256.76 51.22 L 243.86 35.55 Z M 169.72 42.67 L 167.84 44.73 L 161.84 44.76 L 159.39 45.36 L 155.32 48.28 L 153.18 52.81 L 152.84 69.86 L 150.25 66.21 L 147.43 58.84 L 146.96 51.06 L 148 45.91 L 159.66 42.93 L 169.45 42.13 Z M 103.86 18.12 L 100.85 22.99 L 98.79 27.79 L 97.25 34.59 L 88.34 44.41 L 83.39 51.23 L 76.65 63.09 L 74.95 58.15 L 74.41 50.31 L 76.27 42.71 L 78.02 39.29 L 82.94 33.5 L 86.02 31.23 L 87.13 27.48 L 90.93 20.8 L 96.58 15.62 L 100.01 13.74 L 107.49 11.77 L 110.1 11.72 Z M 238.59 12.4 L 242.27 13.71 L 248.72 17.99 L 251.32 20.81 L 254.54 26.34 L 245.49 25.37 L 239.81 26.01 L 234.8 27.36 L 227.08 21.77 L 212.75 13.92 L 219.91 14.9 L 227.16 12.13 L 230.96 11.62 Z M 150.14 1.8 L 155.63 3.43 L 151.83 6.39 L 144.22 8.03 L 127.98 13.66 L 115.19 20.49 L 120.87 16.58 L 124.43 15.17 L 126.45 11.83 L 131.82 6.33 L 138.61 2.75 L 142.4 1.8 Z M 195.97 0.23 L 203.36 2.53 L 206.61 4.49 L 200.86 6.08 L 196.32 8.13 L 188.23 6.37 L 177.7 5.1 L 184.53 1.4 L 192.07 0.01 Z" fill="black" fill-rule="nonzero" stroke="none"/>
    </svg>