<?xml version="1.0" encoding="UTF-8"?>
<svg xmlns="http://www.w3.org/2000/svg" 
     viewBox="0 0 1748.721 1029.9691" 
     width="1748.721mm" 
     height="1029.9691mm">
    <path d="M 31.3800 7.1300 L 33.7600 8.5400 L 36.4500 9.0700 L 38.6600 10.7700 L 39.8900 13.3000 L 39.9000 14.7400 L 40.5800 12.2800 L 42.4300 10.1500 L 45.0000 9.0800 L 47.7300 9.2600 L 50.4100 8.5100 L 53.1200 9.0600 L 55.2800 10.8000 L 56.4100 13.3300 L 58.3000 15.3100 L 59.1200 17.9800 L 58.6600 20.7500 L 57.0600 23.0500 L 56.3200 25.7500 L 54.4700 27.8800 L 51.9000 28.9600 L 49.1600 28.7700 L 47.4900 29.3900 L 45.7500 29.5000 L 37.9500 46.1200 L 37.6300 45.9700 L 34.1000 46.6100 L 34.0000 46.7100 L 33.9300 46.6400 L 33.7200 46.6800 L 33.6600 46.3600 L 21.1100 33.6400 L 19.4200 34.1200 L 17.6500 34.0900 L 15.1300 35.1800 L 12.3400 35.0200 L 9.8900 33.6300 L 8.2900 31.3400 L 6.0200 29.7000 L 4.6600 27.2300 L 4.5400 24.4400 L 5.6600 21.9500 L 5.8900 19.1800 L 7.3400 16.8200 L 9.7200 15.4100 L 12.4900 15.2200 L 14.9900 14.1400 L 17.7800 14.2900 L 20.2300 15.6800 L 20.3300 15.8300 L 20.5200 14.0300 L 22.0000 11.6600 L 24.3300 10.2400 L 26.0800 8.0800 L 28.6100 6.9600 Z M 39.1200 23.9100 L 36.7700 25.3400 L 35.7700 26.8000 L 34.4100 27.9000 L 36.5300 39.7200 L 42.1200 27.8000 L 41.0900 26.3900 L 40.5000 24.7100 L 39.3600 23.5200 Z M 24.4600 27.3800 L 24.4600 29.1500 L 23.9600 30.8300 L 32.4100 39.3900 L 30.4700 28.6100 L 28.8100 28.0500 L 27.3600 27.0300 L 24.8300 26.5300 Z M 14.5700 18.7200 L 13.6500 19.8300 L 12.3000 19.3000 L 11.1400 19.1700 L 10.1500 19.6700 L 9.6300 20.6600 L 9.7400 21.8200 L 10.2600 23.1700 L 9.1300 24.0900 L 8.5100 25.0100 L 8.5100 26.1500 L 9.1700 27.2200 L 10.2900 27.7900 L 11.6200 28.0500 L 11.8600 29.3900 L 12.4200 30.5100 L 13.4700 31.1800 L 14.5400 31.2200 L 15.4400 30.7300 L 16.4500 29.5200 L 17.8300 30.0200 L 18.9900 30.1500 L 19.9800 29.6400 L 20.5000 28.6600 L 20.3800 27.4900 L 19.8700 26.1500 L 21.1300 25.1200 L 21.6400 24.2300 L 21.6100 23.1600 L 20.9500 22.1000 L 19.8400 21.5200 L 18.5100 21.2600 L 18.2600 19.9200 L 17.7000 18.8000 L 16.6500 18.1300 L 15.5000 18.1100 Z M 49.2700 13.0400 L 48.1800 13.9900 L 46.9300 13.2500 L 45.8500 13.0000 L 44.7800 13.3900 L 44.0100 14.3800 L 43.8600 15.6200 L 44.0700 16.9600 L 42.9100 17.6600 L 42.0400 18.5700 L 41.7800 19.7900 L 42.1100 20.8000 L 42.8800 21.4800 L 44.3700 22.0000 L 44.3800 23.4700 L 44.6600 24.6000 L 45.4800 25.3500 L 46.5800 25.5000 L 47.6300 24.9900 L 48.7200 24.0400 L 50.1300 24.8700 L 51.1400 25.0300 L 52.1200 24.6400 L 52.9000 23.6600 L 53.0400 22.4100 L 52.8300 21.0700 L 54.0000 20.3800 L 54.8600 19.4600 L 55.1200 18.2400 L 54.7400 17.1600 L 53.8500 16.5000 L 52.4900 16.0100 L 52.5200 14.5700 L 52.2400 13.4300 L 51.4200 12.6800 L 50.3200 12.5300 Z M 28.3300 11.4100 L 27.7700 12.4400 L 27.4300 13.8400 L 25.9900 13.9600 L 24.9600 14.3700 L 24.3100 15.3200 L 24.2500 16.5700 L 24.8500 17.6700 L 25.7900 18.6400 L 25.2400 19.8800 L 25.0700 21.1200 L 25.5600 22.2700 L 26.4100 22.9100 L 27.4400 23.0100 L 28.9500 22.5800 L 29.8100 23.7700 L 30.6900 24.5300 L 31.7900 24.6700 L 32.7800 24.1600 L 33.3400 23.1300 L 33.6800 21.7300 L 35.3100 21.5900 L 36.2200 21.1400 L 36.8000 20.2500 L 36.8600 19.0000 L 36.2700 17.9000 L 35.3200 16.9300 L 35.8700 15.6900 L 36.0500 14.4500 L 35.5600 13.3000 L 34.6200 12.6300 L 33.5100 12.6100 L 32.1200 13.0000 L 31.3100 11.8000 L 30.4200 11.0400 L 29.3200 10.8900 Z" fill="black" fill-rule="nonzero" stroke="none"/>
</svg>