<?xml version="1.0" encoding="UTF-8"?>
    <svg xmlns="http://www.w3.org/2000/svg" 
         viewBox="0 0 340.15747 217.80147" 
         width="340.15747px" 
         height="217.80147px">
        <path d="M 179.61 54.86 L 178.84 131.1 L 183.18 133.27 L 187.05 136.24 L 190.3 139.96 L 195.85 141.46 L 200.88 144.2 L 205.19 148.05 L 208.58 152.89 L 210.76 158.38 L 211.65 164.16 L 211.25 169.99 L 209.59 175.61 L 211.14 181.26 L 211.42 187.09 L 210.41 192.85 L 208.12 198.3 L 204.63 203.07 L 200.25 206.82 L 195.17 209.43 L 189.62 210.81 L 185.62 215.07 L 180.81 218.26 L 175.41 220.24 L 169.62 220.89 L 163.83 220.12 L 158.48 218.03 L 153.74 214.75 L 149.82 210.41 L 144.3 208.92 L 139.28 206.2 L 134.98 202.37 L 131.59 197.53 L 129.4 192.03 L 128.51 186.25 L 128.91 180.42 L 130.57 174.81 L 129.02 169.16 L 128.74 163.32 L 129.75 157.56 L 132.05 152.11 L 135.53 147.35 L 139.91 143.58 L 145 140.95 L 150.58 139.56 L 153.91 135.91 L 157.83 133.01 L 162.22 130.94 L 163 54.69 Z M 2.46 168.25 L 5.89 174.39 L 10.5 179.61 L 12.22 181.13 L 18.15 185.17 L 24.51 187.77 L 26.64 188.36 L 27.86 188.55 L 27.73 192.76 L 28.27 195.83 L 29.92 198.43 L 32.55 200.32 L 35.93 201.19 L 39.38 200.8 L 42.5 199.19 L 46.95 195.73 L 51.81 198.58 L 55.11 199.76 L 58.58 199.7 L 61.83 198.4 L 64.06 196.38 L 65.4 193.84 L 65.59 192.16 L 66.19 191.99 L 71.62 189.68 L 73.63 188.54 L 79.26 184.31 L 83.69 179.21 L 84.99 177.27 L 86.23 174.84 L 88.5 173.41 L 94.9 180.77 L 90.28 181.08 L 88.45 185.58 L 85.77 189.66 L 82.31 193.18 L 81.23 198.83 L 78.88 204.05 L 75.37 208.64 L 70.8 212.38 L 65.49 214.97 L 59.79 216.3 L 53.95 216.34 L 48.22 215.1 L 42.71 217.08 L 36.91 217.8 L 31.09 217.23 L 25.48 215.35 L 20.46 212.24 L 16.4 208.15 L 13.4 203.29 L 11.61 197.85 L 7.06 194.18 L 3.52 189.63 L 1.14 184.4 L 0.05 178.67 L 0.38 172.85 L 2.06 167.34 L 2.07 167.3 Z M 290.59 132.37 L 296.16 134.22 L 301.85 132.85 L 307.69 132.75 L 313.42 133.94 L 318.79 136.41 L 323.45 140.05 L 327.05 144.55 L 329.51 149.71 L 330.71 155.3 L 334.83 159.44 L 337.86 164.34 L 339.67 169.81 L 340.14 175.62 L 339.18 181.37 L 336.92 186.66 L 333.49 191.29 L 329.03 195.06 L 327.36 200.53 L 324.48 205.46 L 320.51 209.65 L 315.57 212.88 L 310.01 214.89 L 304.2 215.6 L 298.39 215.01 L 292.83 213.16 L 287.13 214.54 L 281.29 214.63 L 275.56 213.44 L 270.19 210.96 L 265.54 207.33 L 261.92 202.83 L 259.45 197.66 L 258.24 192.04 L 254.7 188.6 L 251.93 184.58 L 249.99 180.13 L 245.86 179.95 L 253.12 171.68 L 260.59 160.32 L 266.5 148.14 L 270.38 136.47 L 273.42 134.5 L 278.98 132.49 L 284.79 131.79 Z M 167.33 146.74 L 164.74 148.49 L 162.86 151.23 L 160.38 156.68 L 153.65 155.98 L 150.84 156.48 L 148.39 157.96 L 146.5 160.3 L 145.38 163.61 L 145.51 167.08 L 146.87 170.31 L 149.99 175 L 146.78 179.64 L 145.35 182.84 L 145.15 186.3 L 146.2 189.63 L 148.24 192.17 L 150.93 193.69 L 154.02 194.03 L 160.01 193.51 L 162.37 199.03 L 164.2 201.81 L 166.75 203.61 L 169.78 204.28 L 172.84 203.68 L 175.42 201.92 L 177.3 199.18 L 179.78 193.71 L 185.75 194.35 L 188.86 194.05 L 191.58 192.6 L 193.66 190.12 L 194.78 186.81 L 194.65 183.34 L 193.29 180.11 L 190.17 175.41 L 193.38 170.78 L 194.81 167.58 L 195.01 164.11 L 193.95 160.78 L 192.11 158.4 L 189.68 156.87 L 186.87 156.32 L 180.34 156.88 L 177.78 151.38 L 175.96 148.61 L 173.41 146.8 L 170.38 146.14 Z M 280.84 149.37 L 278.4 151.14 L 276.8 153.51 L 276.15 156.31 L 276.5 162.85 L 270.92 165.23 L 268.09 166.96 L 266.21 169.45 L 265.45 172.46 L 265.95 175.53 L 267.62 178.17 L 270.3 180.14 L 275.67 182.79 L 274.75 189.49 L 275.16 192.32 L 276.56 194.81 L 278.83 196.78 L 282.11 198.01 L 285.58 197.99 L 288.85 196.73 L 293.65 193.77 L 298.18 197.12 L 301.33 198.65 L 304.79 198.97 L 308.15 198.02 L 310.75 196.07 L 312.36 193.42 L 312.8 190.34 L 312.46 184.35 L 318.06 182.16 L 320.89 180.42 L 322.78 177.93 L 323.54 174.92 L 323.03 171.85 L 321.36 169.2 L 318.68 167.24 L 313.29 164.59 L 314.13 158.64 L 313.93 155.52 L 312.57 152.76 L 310.15 150.6 L 306.88 149.37 L 303.41 149.39 L 300.13 150.65 L 295.34 153.62 L 290.81 150.26 L 287.66 148.73 L 284.2 148.42 Z M 174.46 164.97 L 176.67 166.18 L 177.87 166.57 L 180.37 166.88 L 184.11 166.58 L 181.3 170.79 L 180.55 172.92 L 180.81 173.3 L 181.7 177.37 L 180.98 181.33 L 178.83 184.73 L 175.42 187.13 L 171.66 187.94 L 170.67 189.58 L 169.91 191.24 L 168.64 188.45 L 167.85 187.38 L 167.39 187.3 L 163.99 185.15 L 161.59 181.74 L 160.7 177.66 L 161.42 173.71 L 163.57 170.31 L 166.98 167.91 L 170.98 167.02 L 174.19 167.59 L 174.31 164.85 Z M 182.85 15.64 L 195.1 18.15 L 206.71 22.18 L 217.58 27.63 L 227.59 34.39 L 236.63 42.35 L 244.58 51.39 L 251.34 61.4 L 256.8 72.27 L 260.83 83.88 L 263.34 96.13 L 264.19 108.9 L 263.38 121.27 L 260.97 133.33 L 257.03 144.92 L 251.62 155.9 L 244.8 166.13 L 236.63 175.45 L 227.3 183.62 L 221.34 187.59 L 221.41 186.61 L 221.13 180.78 L 220.78 178.61 L 219.98 175.71 L 220.84 172.82 L 221.23 170.67 L 221.57 165.59 L 224.38 163.2 L 232.2 154.04 L 238.5 143.76 L 243.11 132.63 L 245.93 120.91 L 246.87 108.9 L 246.76 104.74 L 246.42 100.6 L 245.86 96.48 L 245.08 92.39 L 244.07 88.36 L 242.85 84.38 L 241.42 80.48 L 239.77 76.66 L 237.93 72.93 L 235.88 69.31 L 233.64 65.81 L 231.21 62.43 L 228.61 59.18 L 225.83 56.09 L 222.89 53.15 L 219.79 50.37 L 216.55 47.77 L 213.17 45.34 L 209.67 43.1 L 206.05 41.05 L 202.32 39.2 L 198.5 37.56 L 194.6 36.13 L 190.62 34.91 L 186.59 33.9 L 182.5 33.12 L 178.38 32.56 L 174.24 32.22 L 170.08 32.11 L 158.07 33.05 L 146.35 35.87 L 135.21 40.48 L 124.94 46.77 L 115.78 54.6 L 107.95 63.76 L 101.66 74.04 L 97.04 85.17 L 94.23 96.89 L 93.28 108.9 L 94.23 120.91 L 97.04 132.63 L 101.66 143.76 L 107.95 154.04 L 115.78 163.2 L 118.84 165.82 L 119.03 169.64 L 119.38 171.81 L 120.17 174.69 L 119.32 177.58 L 118.93 179.74 L 118.53 185.57 L 118.61 187.49 L 112.57 183.41 L 103.53 175.45 L 95.57 166.41 L 88.81 156.4 L 83.36 145.53 L 79.32 133.92 L 76.82 121.67 L 75.96 108.9 L 76.82 96.13 L 79.32 83.88 L 83.36 72.27 L 88.81 61.4 L 95.57 51.39 L 103.53 42.35 L 112.57 34.4 L 122.58 27.63 L 133.44 22.18 L 145.06 18.15 L 157.31 15.64 L 170.08 14.78 Z M 301.95 163.13 L 303.41 163.41 L 303.29 164.45 L 303.57 166.96 L 303.95 168.17 L 305.14 170.39 L 306.86 172.25 L 307.87 173 L 310.53 174.37 L 307.67 175.57 L 305.63 177.05 L 304.76 177.97 L 303.41 180.1 L 303.38 180.17 L 300.85 180.01 L 295.69 182.78 L 290.06 184.35 L 285.46 184.58 L 285.67 182.89 L 285.38 180.38 L 284.46 178.03 L 283.79 176.96 L 282.08 175.11 L 281.05 174.36 L 278.32 172.94 L 281.55 171.48 L 283.55 169.94 L 284.39 168.99 L 285.03 167.9 L 286.63 168.07 L 289.99 167.17 L 292.83 165.12 L 294.37 163.49 L 295.28 163.62 L 297.79 163.32 L 298.99 162.93 L 300.08 162.38 Z M 13.67 118.1 L 13.82 120.39 L 14.86 126.06 L 15.55 128.29 L 17.93 133.7 L 19.1 135.7 L 19.99 136.88 L 19.99 137.3 L 21.17 140.2 L 23.47 142.61 L 28.31 146.16 L 26.44 151.88 L 26.09 154.97 L 26.94 157.94 L 28.94 160.49 L 31.95 162.27 L 35.37 162.86 L 38.81 162.2 L 44.05 160.12 L 47.92 164.22 L 50.75 166.28 L 54.1 167.19 L 57.58 166.85 L 60.29 165.54 L 62.29 163.48 L 62.76 162.37 L 65.96 162.83 L 72.89 162.28 L 75.15 161.82 L 79.67 160.33 L 80.52 162 L 82.76 165.32 L 78.71 167.59 L 76.09 172.71 L 72.37 177.06 L 67.71 180.48 L 62.28 182.79 L 56.45 183.79 L 50.61 183.46 L 44.99 181.87 L 39.84 179.07 L 33.99 179.42 L 28.23 178.49 L 22.79 176.31 L 17.94 172.93 L 14 168.54 L 11.24 163.47 L 9.73 157.97 L 9.53 152.25 L 6.2 147.45 L 4.08 142.09 L 3.25 136.39 L 3.82 130.59 L 5.77 125.09 L 8.92 120.28 L 13.12 116.33 L 13.79 115.93 Z M 66.25 63.85 L 66.41 64.43 L 67.19 66.47 L 69.87 71.66 L 71.1 73.5 L 72.04 74.62 L 69.62 81.58 L 69.03 81.19 L 65.62 80.44 L 62.4 80.93 L 59.73 82.49 L 57.89 85 L 55.35 90.44 L 49.38 89.72 L 46.07 89.91 L 43.22 91.21 L 41.13 93.5 L 40.12 96.44 L 40.34 99.57 L 41.77 102.57 L 45.26 107.45 L 41.71 112.3 L 40.41 115.14 L 40.31 118.22 L 41.41 121.26 L 43.71 123.89 L 46.78 125.52 L 50.26 125.96 L 55.88 125.61 L 58.28 130.71 L 60.34 133.55 L 63.24 135.46 L 66.65 136.22 L 69.57 135.82 L 69.85 137.14 L 74.42 150.01 L 75.08 151.31 L 72.03 152.32 L 66.15 152.83 L 60.3 151.97 L 54.85 149.84 L 50.01 146.57 L 45.99 142.32 L 40.32 140.83 L 35.13 138.15 L 30.65 134.39 L 27.08 129.67 L 24.7 124.26 L 23.66 118.59 L 23.94 112.89 L 25.53 107.39 L 23.85 101.79 L 23.5 96.04 L 24.49 90.37 L 26.84 85.03 L 30.4 80.41 L 34.89 76.83 L 40.11 74.37 L 45.82 73.16 L 49.88 69.13 L 54.75 66.15 L 60.23 64.34 L 66.11 63.83 Z M 107.48 106.78 L 106.76 109.32 L 108.24 114.03 L 108.78 118.88 L 108.38 123.72 L 131.65 137.52 L 128.1 140.65 L 123.98 146.21 L 122.84 148.22 L 121.69 150.93 L 115.52 147.27 L 110.6 139.21 L 106.56 129.48 L 104.14 119.37 L 103.31 108.9 L 103.49 106.5 Z M 306.49 99.18 L 311.92 101.52 L 316.55 104.96 L 320.23 109.32 L 322.81 114.43 L 327.85 117.38 L 332.02 121.36 L 335.16 126.18 L 337.08 131.69 L 337.62 137.49 L 336.93 142.09 L 336.08 140.25 L 334.86 138.3 L 331.26 133.8 L 329.61 132.17 L 324.95 128.53 L 322.97 127.32 L 317.6 124.85 L 315.45 124.15 L 309.72 122.96 L 307.72 122.76 L 307.62 121.86 L 306.64 118.9 L 304.62 116.57 L 301.74 115.09 L 298.26 114.74 L 294.9 115.63 L 292.06 117.69 L 288.17 121.77 L 282.94 119.67 L 279.5 118.99 L 276.08 119.57 L 273.33 121.18 L 274.17 109.55 L 273.74 103.12 L 278.19 102.42 L 284.04 102.8 L 289.2 100.03 L 294.83 98.46 L 300.67 98.15 Z M 216.01 60.41 L 220.92 65.58 L 225.23 71.25 L 223.97 74.08 L 223.75 77.08 L 224.54 79.84 L 226.27 82.13 L 231.5 86.07 L 229.74 91.87 L 229.25 95.15 L 229.95 98.2 L 231.77 100.72 L 234.44 102.3 L 236.46 102.57 L 236.76 105.28 L 236.85 108.66 L 236.03 119.2 L 232.36 118.86 L 227.7 117.48 L 208.91 138.02 L 206.55 135.96 L 199.49 132.14 L 195.83 131.1 L 194.25 129.46 L 215.44 106.28 L 213.64 101.77 L 212.75 96.97 L 212.8 92.03 L 209.67 87.21 L 207.75 81.81 L 207.1 76.07 L 207.81 70.21 L 209.84 64.66 L 213.04 59.76 L 214.11 58.7 Z M 113.77 87.58 L 119.53 91.22 L 121.61 92.2 L 128.25 94.36 L 132.03 94.77 L 135.15 97.04 L 139.9 99.5 L 145.01 130.64 L 143.24 131.12 L 129.02 99.21 L 124.17 99.05 L 119.42 97.96 L 114.91 95.93 L 109.24 96.88 L 104.58 96.55 L 106.56 88.31 L 108.86 82.76 Z M 184.38 43.65 L 191.38 45.6 L 198.11 48.27 L 200.95 49.67 L 200.37 50.04 L 197.77 52.4 L 196.2 55.49 L 195.82 58.96 L 196.56 61.88 L 198.16 64.26 L 199.11 64.92 L 198.42 66.77 L 197.88 69.01 L 197.17 74.87 L 197.16 77.2 L 198.03 84.18 L 200.25 90.56 L 201.28 92.66 L 202.76 94.95 L 202.92 98.79 L 203.92 104.05 L 188.94 120.43 L 189.03 111.47 L 197.73 92.22 L 194.62 88.49 L 192.28 84.21 L 190.79 79.5 L 189.37 78.35 L 189.61 54.96 L 189.32 52.45 L 188.41 50.1 L 186.93 48.05 L 185 46.43 L 182.75 45.36 L 183.69 43.58 L 183.73 43.52 Z M 53.98 100.3 L 56.99 101.94 L 62.84 101.59 L 66.43 102.17 L 65.98 109.57 L 66.73 119.84 L 64.88 118.74 L 62.77 118.37 L 62.71 118.3 L 61.73 117.5 L 59.51 116.29 L 57.07 115.68 L 55.8 115.61 L 51.49 115.86 L 54.01 112.29 L 54.55 111.15 L 55.18 108.7 L 55.18 106.18 L 54.55 103.74 L 54 102.6 L 52.33 100.15 Z M 126.76 58.66 L 127.16 62.11 L 128.78 65.21 L 131 67.23 L 133.66 68.32 L 136.52 68.38 L 139.82 67.5 L 143.08 73.58 L 147.51 78.78 L 149.19 80.33 L 152.71 82.83 L 152.39 113.83 L 148.78 91.84 L 144.12 90.46 L 139.8 88.19 L 135.96 85.09 L 130.23 84.56 L 124.81 82.73 L 119.9 79.68 L 115.73 75.5 L 114.1 72.85 L 116.06 69.65 L 122.87 61.69 L 126.85 58.27 Z M 249.98 35.58 L 255.51 37.02 L 260.56 39.69 L 266.39 39.19 L 272.09 40.02 L 277.44 42.15 L 282.19 45.53 L 285.98 49.95 L 288.58 55.09 L 289.92 60.69 L 289.95 66.53 L 293.07 71.33 L 294.99 76.7 L 295.64 82.43 L 294.95 88.3 L 294.94 88.3 L 294.88 88.44 L 294.3 88.47 L 292.14 88.83 L 285.32 90.81 L 281.83 92.63 L 277.57 92.44 L 272.93 93.13 L 272.5 91.12 L 274.89 90.06 L 277.35 87.61 L 278.79 84.43 L 278.97 81.18 L 277.97 78.25 L 275.9 75.94 L 271.09 72.34 L 273.01 66.64 L 273.5 63.36 L 272.8 60.31 L 270.98 57.79 L 268.31 56.2 L 265.21 55.79 L 261.98 56.57 L 260.38 57.27 L 259.63 55.8 L 252.87 45.79 L 243.84 35.52 L 244.21 35.45 Z M 169.72 42.67 L 167.84 44.73 L 163.1 44.69 L 160.6 44.98 L 159.39 45.36 L 157.17 46.56 L 155.32 48.28 L 153.96 50.41 L 153.49 51.58 L 153.02 54.06 L 152.85 69.68 L 151.29 67.87 L 148.56 62.64 L 147.1 56.91 L 146.96 51.06 L 147.97 46.01 L 149.45 45.4 L 159.62 42.95 L 169.48 42.18 Z M 108.61 12.97 L 106.94 14.58 L 102.52 20.05 L 99.4 26.26 L 98.61 28.46 L 97.29 34.22 L 97.23 34.66 L 96.02 35.74 L 87.28 45.79 L 80.52 55.8 L 76.75 63.19 L 76.08 61.88 L 74.59 56.22 L 74.41 50.31 L 75.6 44.52 L 78.02 39.29 L 81.55 34.8 L 86.02 31.23 L 87.89 25.69 L 90.93 20.8 L 95.01 16.74 L 100.01 13.74 L 105.59 12.03 L 110.22 11.76 Z M 236.71 11.98 L 242.27 13.71 L 247.26 16.74 L 251.32 20.81 L 254.34 25.72 L 254.58 26.46 L 252.5 25.9 L 250.21 25.58 L 243.17 25.5 L 236.36 26.9 L 234.73 27.44 L 233.19 26.1 L 223.18 19.34 L 212.59 14.03 L 214.27 13.93 L 219.91 14.9 L 225.29 12.61 L 230.96 11.62 Z M 153.87 2.7 L 155.74 3.56 L 152.47 5.76 L 151.64 6.61 L 141.78 8.7 L 128.95 13.24 L 118.09 18.69 L 114.56 21.04 L 114.65 20.94 L 119.2 17.49 L 124.43 15.17 L 127.64 10.29 L 131.82 6.33 L 136.8 3.44 L 142.4 1.8 L 148.23 1.57 Z M 195.97 0.23 L 201.6 1.74 L 206.65 4.51 L 206.67 4.53 L 205.67 4.71 L 200.15 6.38 L 198.02 7.3 L 196.44 8.21 L 184.86 5.84 L 177.62 5.35 L 179.35 3.94 L 184.53 1.4 L 190.14 0.13 Z" fill="black" fill-rule="nonzero" stroke="none"/>
    </svg>