<?xml version="1.0" encoding="UTF-8"?>
<svg xmlns="http://www.w3.org/2000/svg" 
     viewBox="0 0 1748.721 1029.9691" 
     width="1748.721mm" 
     height="1029.9691mm">
    <path d="M 53.9600 5.4900 L 55.7000 7.4600 L 56.7900 8.0800 L 57.9100 8.1400 L 60.4700 7.3800 L 62.7000 7.7900 L 64.5000 9.2100 L 65.6800 11.7000 L 67.5200 13.5600 L 67.6800 14.0700 L 70.0300 14.1900 L 72.0600 15.2900 L 73.3200 17.1800 L 73.7100 20.0300 L 74.8200 22.2700 L 74.8200 24.5800 L 73.7600 26.6900 L 71.5800 28.4200 L 70.9300 29.4100 L 73.4400 29.2900 L 75.9500 28.2800 L 78.3000 28.4200 L 80.3200 29.5900 L 81.8300 31.8300 L 83.9500 33.4300 L 84.9500 35.4900 L 84.8900 37.7700 L 83.6500 40.0800 L 83.4600 41.1600 L 83.5700 41.4800 L 85.2100 43.5500 L 85.6700 45.8000 L 85.0200 48.0000 L 83.2400 49.9100 L 82.1000 52.4200 L 80.3100 53.9000 L 78.0400 54.4500 L 75.3100 53.8900 L 72.6300 54.2200 L 70.3800 53.4800 L 68.7400 51.8600 L 67.7900 49.2100 L 66.6000 47.9400 L 65.7100 46.2300 L 65.1600 45.9400 L 47.6900 45.2000 L 47.7200 44.4300 L 46.4200 45.0100 L 45.3500 44.8900 L 44.5400 44.3700 L 44.3000 44.7800 L 43.7500 44.4500 L 43.7900 45.0200 L 26.2900 46.1900 L 25.6900 46.6300 L 24.9400 48.2000 L 23.7100 49.6600 L 22.9100 52.1500 L 21.2800 53.8400 L 19.0600 54.6200 L 16.4300 54.3600 L 13.6800 54.9800 L 11.3500 54.4800 L 9.5600 53.0500 L 8.3900 50.6000 L 6.5200 48.6900 L 5.8300 46.5000 L 6.2200 44.2800 L 7.8800 42.0600 L 8.2100 40.9900 L 8.0600 39.9800 L 6.7700 37.5200 L 6.7200 35.2300 L 7.7400 33.1800 L 9.9300 31.5300 L 11.3800 29.3400 L 11.8800 29.0500 L 11.4800 26.7600 L 12.1500 24.5500 L 13.7300 22.9300 L 16.2300 22.1000 L 18.4200 20.4200 L 20.6800 19.9500 L 22.9700 20.5600 L 25.1000 22.3400 L 26.2100 22.7700 L 25.5700 20.3500 L 24.0700 18.1000 L 23.7400 15.7600 L 24.4600 13.5500 L 26.2800 11.7200 L 27.4900 9.2100 L 29.3000 7.8000 L 31.5300 7.4000 L 33.9700 8.1400 L 35.2100 8.1000 L 35.3400 8.0300 L 37.1500 5.9100 L 39.2500 5.0100 L 41.5400 5.1900 L 43.7800 6.5600 L 45.0800 6.8400 L 47.2100 6.3500 L 49.5700 4.8600 L 51.8300 4.6300 Z M 21.5100 45.4500 L 19.5000 46.5900 L 17.1500 46.7200 L 14.4400 45.6800 L 11.8700 45.5500 L 9.8000 44.4300 L 9.3500 43.8000 L 8.2600 44.6600 L 7.8300 46.5700 L 8.4500 48.0100 L 10.5000 49.2200 L 10.8800 51.5100 L 12.3600 52.7600 L 13.8800 53.0000 L 16.1800 51.9000 L 18.4000 52.6900 L 20.3200 52.1000 L 21.3000 51.0000 L 21.6300 49.6400 L 21.4800 48.5100 L 23.4400 46.8400 L 23.7700 45.4200 L 23.3000 44.0100 L 22.7600 43.6400 Z M 68.3400 43.3900 L 67.7300 45.2200 L 68.1100 46.6100 L 70.0800 48.1500 L 69.9500 49.1700 L 70.2700 50.5700 L 71.5500 51.8600 L 73.0400 52.2800 L 75.4500 51.4200 L 77.8300 52.4700 L 79.4600 52.1300 L 80.7300 50.9500 L 81.0800 48.6100 L 83.0700 47.3900 L 83.6900 45.5400 L 83.3000 44.1600 L 82.6000 43.6000 L 81.8400 44.6700 L 79.7700 45.7800 L 76.9900 45.9400 L 74.4700 46.9300 L 72.1200 46.7900 L 70.1000 45.6200 L 68.5300 43.3300 L 68.4800 43.2900 Z M 73.5900 38.3000 L 71.8700 38.6900 L 70.8400 39.5800 L 70.2900 41.1300 L 70.3100 41.6700 L 70.4800 41.7100 L 70.6500 42.8600 L 71.4600 44.1900 L 72.5900 44.8600 L 74.2100 44.9600 L 76.5000 43.5200 L 78.8100 43.9700 L 80.3500 43.3300 L 81.4300 41.7800 L 81.4400 41.7200 L 81.0700 40.0700 L 80.0900 39.0400 L 78.5400 38.5300 L 75.9600 39.3400 L 73.7200 38.3000 Z M 17.5700 38.7400 L 15.3800 39.8200 L 13.1800 39.0300 L 11.2400 39.6300 L 10.3200 40.6700 L 10.2500 41.6700 L 11.0400 42.8900 L 12.4800 43.6500 L 15.1400 43.3000 L 17.1700 44.7200 L 18.8200 44.7300 L 20.3900 43.7800 L 21.0400 42.5400 L 21.0800 42.1800 L 21.0900 41.3500 L 20.6400 40.1300 L 19.2200 38.9700 L 17.6900 38.7300 Z M 24.3600 42.1700 L 24.5600 42.3500 L 25.5400 43.8500 L 26.2100 44.1700 L 38.6200 43.3500 L 26.3200 40.6600 Z M 53.1600 43.4200 L 65.3000 43.9300 L 65.8600 43.6600 L 66.8100 42.1200 L 65.7600 40.9700 L 65.1500 40.8300 Z M 58.9800 31.0900 L 48.8900 42.1000 L 48.8500 42.3100 L 64.8900 38.7900 L 66.7800 35.1500 L 67.2400 32.4100 L 67.5500 31.9600 L 65.7800 32.1300 L 63.1700 31.1700 L 61.4100 31.2600 L 59.6900 30.8500 Z M 29.9200 27.2300 L 29.5000 29.9000 L 29.9500 31.7200 L 29.9300 33.6200 L 30.1800 34.0600 L 43.4000 41.9200 L 36.6900 26.8800 L 36.2000 26.5000 L 34.3400 26.3200 L 32.5500 25.6600 L 29.9000 25.7700 L 29.3900 25.5500 Z M 28.4500 35.8700 L 26.9600 36.7500 L 26.0300 36.9800 L 26.5300 38.4100 L 38.1000 41.1200 L 29.1900 35.8500 Z M 23.0300 38.8700 L 22.1800 39.0400 L 22.9900 40.7200 L 23.5300 40.4900 L 24.2900 38.9500 L 24.1900 37.9800 Z M 76.1700 30.2600 L 73.9200 31.6900 L 71.6200 31.2500 L 69.8000 32.1200 L 69.0000 33.3400 L 68.8800 34.7400 L 69.1900 35.8100 L 67.5000 37.7800 L 67.3900 39.2400 L 68.0600 40.5600 L 68.2500 40.6800 L 69.3000 38.3400 L 71.0900 36.8600 L 73.3700 36.3200 L 75.9000 36.8600 L 78.7800 36.5400 L 81.0300 37.2800 L 82.0900 38.3300 L 82.9500 37.3300 L 83.0500 35.9700 L 82.3600 34.6600 L 80.7800 33.6800 L 79.9400 33.5000 L 79.8300 32.6100 L 78.9500 31.0400 L 77.8400 30.3600 L 76.2200 30.2600 Z M 45.2100 23.2500 L 43.7400 24.4700 L 43.5700 24.9400 L 45.9200 39.4600 L 47.9900 24.7300 L 47.6900 24.0500 L 46.3000 23.0000 L 45.8300 22.4000 Z M 11.7400 33.2700 L 9.5600 34.1200 L 8.6200 35.8300 L 8.7600 37.2700 L 9.7800 38.4000 L 10.2900 37.8800 L 12.5100 37.0900 L 15.1400 37.3700 L 16.4700 37.0600 L 16.3400 36.9500 L 13.8200 35.9700 L 12.2000 34.2600 L 11.7800 32.9300 Z M 55.6800 26.4800 L 55.2800 26.7800 L 50.4400 37.4400 L 57.5200 29.6800 L 57.6700 29.0700 L 57.0900 27.2900 L 57.0500 26.3400 Z M 14.2400 30.0500 L 14.1400 30.0900 L 13.4900 31.5300 L 13.9900 33.3900 L 15.2200 34.5100 L 17.6300 34.8400 L 19.2400 36.8900 L 20.9400 37.3600 L 22.3700 37.0100 L 23.0900 36.3400 L 22.4700 35.6500 L 22.8000 34.5500 L 22.6300 33.0100 L 21.8700 31.9000 L 20.4500 31.1500 L 17.7700 31.4800 L 15.4900 30.0400 Z M 52.1100 23.8100 L 50.2300 24.6300 L 48.3100 37.2300 L 53.3800 26.0100 L 53.2800 25.2700 L 52.2300 23.8700 L 52.1800 23.7500 Z M 38.5400 25.6100 L 43.4900 37.0600 L 41.5600 25.3400 L 41.0700 24.7900 L 39.4800 24.2200 Z M 20.4800 21.9400 L 18.8300 22.4500 L 17.5200 24.2600 L 14.9600 24.5200 L 13.8800 25.5100 L 13.4800 26.9300 L 13.9600 28.1500 L 15.7500 28.0600 L 18.1400 29.0400 L 21.0300 29.2300 L 23.1000 30.3500 L 24.4500 32.2600 L 24.8800 34.8900 L 24.9400 34.9800 L 26.2700 34.9000 L 27.6800 33.5700 L 27.9900 32.0200 L 26.9800 29.8700 L 27.6400 28.9200 L 27.9600 27.4000 L 27.5800 26.1100 L 26.4600 24.9500 L 23.7900 24.4400 L 22.2100 22.4000 L 20.6100 21.9300 Z M 68.1600 16.1800 L 67.8800 18.1000 L 66.3500 20.4300 L 65.6500 23.0300 L 64.1400 24.8300 L 62.0100 25.7600 L 59.2700 25.6700 L 59.1300 27.2400 L 60.0700 28.6500 L 61.3800 29.2500 L 63.8300 28.7300 L 64.6300 29.5600 L 66.0500 30.1900 L 67.3800 30.0900 L 68.7900 29.2000 L 69.7900 26.7200 L 72.1100 25.5800 L 72.8700 24.2200 L 72.8800 22.7000 L 71.9300 21.1300 L 71.2500 20.6100 L 71.5300 18.0500 L 70.7800 16.7900 L 69.4600 16.1000 Z M 31.5000 9.4100 L 29.8400 9.7700 L 28.8100 10.7600 L 28.3700 13.1200 L 26.3800 14.2700 L 25.7000 16.0900 L 26.0000 17.5900 L 27.8300 19.3800 L 27.8600 21.7300 L 29.0800 23.3400 L 30.3200 23.8500 L 31.8400 23.7100 L 32.8300 23.1700 L 34.8500 24.4100 L 36.7800 24.1300 L 37.8400 23.1700 L 37.8400 23.1300 L 37.7500 23.0700 L 35.2700 22.5400 L 33.4700 21.1000 L 32.4700 18.9700 L 32.4800 16.3100 L 31.5800 13.6100 L 31.8500 11.2900 L 32.6800 9.9900 L 31.6300 9.4000 Z M 53.9400 22.6200 L 54.0100 22.9800 L 55.4900 24.2400 L 56.4400 24.3200 L 55.8200 23.0200 L 55.8200 22.1700 Z M 64.5900 15.1300 L 63.2700 15.2000 L 61.8600 16.0900 L 60.8500 18.5600 L 58.4700 19.8200 L 57.8000 21.0400 L 57.8300 22.8900 L 58.2900 23.6100 L 59.0800 23.1300 L 60.1000 23.6800 L 61.5200 23.8600 L 62.8800 23.3200 L 64.0100 21.9300 L 64.1200 19.3700 L 65.8700 17.7900 L 66.1700 15.8800 L 64.7100 15.1300 Z M 42.2500 20.2800 L 40.3100 22.3000 L 40.2900 22.3400 L 40.4100 22.4700 L 42.3400 22.7000 L 43.6200 22.0400 L 44.1500 20.9400 L 42.8300 20.2000 L 42.4500 19.6400 Z M 48.6200 20.3500 L 47.5100 21.0200 L 47.9400 21.8000 L 49.2600 22.4200 L 50.7400 22.2500 L 51.2200 21.7700 L 49.6900 20.2200 L 49.3600 19.2000 Z M 34.5800 10.6800 L 33.7600 11.8600 L 33.5800 13.4800 L 34.9000 15.8300 L 34.3400 18.2500 L 34.9500 19.7700 L 36.4100 20.8800 L 37.6800 21.0300 L 38.3000 20.8800 L 38.3400 20.7200 L 39.4200 20.3200 L 40.4200 19.4800 L 41.0200 17.7500 L 40.7200 16.2400 L 38.8800 14.4500 L 38.7600 11.8700 L 37.6200 10.4800 L 36.4800 10.0700 Z M 54.5000 10.3900 L 53.2100 11.8500 L 53.0900 14.4000 L 51.2500 16.2100 L 50.9500 17.7100 L 51.3600 19.1000 L 52.6400 20.3300 L 52.8900 20.4200 L 53.7900 20.6100 L 55.3100 20.3200 L 56.3500 19.4900 L 57.0000 18.0000 L 56.4400 15.3500 L 57.6700 13.3400 L 57.4700 11.3200 L 56.5800 10.1400 L 55.8400 9.9300 Z M 45.3800 8.9000 L 44.5600 9.5400 L 43.9100 11.0300 L 44.4600 13.6700 L 43.2000 15.9300 L 43.3700 17.5600 L 44.2000 18.7800 L 45.6900 19.4900 L 46.1800 19.5000 L 47.2500 18.9500 L 47.9800 17.8400 L 48.1600 16.2200 L 46.8300 13.8700 L 47.3800 11.3400 L 46.6300 9.7100 L 45.5300 8.9000 Z M 60.3000 9.3800 L 58.9700 10.1500 L 59.3800 10.7500 L 59.7000 13.0800 L 58.8700 15.7500 L 58.9000 16.9900 L 59.0700 16.8700 L 60.5300 14.6000 L 62.5300 13.3600 L 63.8300 13.2400 L 63.6100 13.1100 L 63.2100 10.8000 L 61.7300 9.5400 L 60.4300 9.3800 Z M 51.3900 6.5800 L 49.9600 6.8300 L 48.2700 8.6000 L 49.2600 10.7300 L 49.3100 13.6300 L 49.7700 14.9900 L 50.8700 13.3500 L 51.5600 10.7400 L 53.0700 8.9400 L 53.7400 8.6400 L 52.9700 7.2200 L 51.5200 6.5800 Z M 39.6500 6.9400 L 37.9400 7.8500 L 37.6700 8.4200 L 38.9200 8.9700 L 40.4300 10.7900 L 41.1500 13.4800 L 41.7000 14.3100 L 42.0300 13.2900 L 41.9500 10.5700 L 42.7500 8.7300 L 41.2300 7.1800 L 39.7700 6.9400 Z" fill="black" fill-rule="nonzero" stroke="none"/>
</svg>