<?xml version="1.0" encoding="UTF-8"?>
    <svg xmlns="http://www.w3.org/2000/svg" 
         viewBox="0 0 340.15747 217.80147" 
         width="340.15747px" 
         height="217.80147px">
        <path d="M 179.61 54.86 L 178.84 131.1 L 182.14 132.65 L 185.18 134.66 L 187.92 137.11 L 190.3 139.96 L 194.05 140.82 L 197.6 142.24 L 200.88 144.2 L 203.85 146.65 L 206.43 149.56 L 208.58 152.89 L 210.18 156.5 L 211.2 160.29 L 211.65 164.16 L 211.53 168.06 L 210.84 171.9 L 209.59 175.61 L 210.76 179.34 L 211.38 183.19 L 211.42 187.09 L 210.89 190.96 L 209.79 194.72 L 208.12 198.3 L 205.9 201.59 L 203.26 204.44 L 200.25 206.82 L 196.93 208.69 L 193.37 210.04 L 189.62 210.81 L 187.05 213.76 L 184.09 216.26 L 180.81 218.26 L 177.26 219.72 L 173.51 220.61 L 169.62 220.89 L 165.72 220.53 L 161.99 219.56 L 158.48 218.03 L 155.24 215.97 L 152.33 213.41 L 149.82 210.41 L 146.1 209.56 L 142.56 208.14 L 139.28 206.2 L 136.32 203.76 L 133.73 200.86 L 131.59 197.53 L 129.98 193.91 L 128.96 190.13 L 128.51 186.25 L 128.63 182.36 L 129.32 178.52 L 130.57 174.81 L 129.4 171.07 L 128.78 167.22 L 128.74 163.32 L 129.27 159.46 L 130.37 155.7 L 132.05 152.11 L 134.26 148.83 L 136.9 145.97 L 139.91 143.58 L 143.24 141.69 L 146.81 140.34 L 150.58 139.56 L 153.01 136.75 L 155.8 134.36 L 158.89 132.41 L 162.22 130.94 L 163 54.69 Z M 4.76 172.67 L 7.8 176.83 L 11.91 180.91 L 16.12 183.99 L 21.17 186.58 L 27.86 188.61 L 27.73 192.76 L 28.02 195.1 L 28.96 197.2 L 30.49 198.98 L 32.55 200.32 L 35.07 201.09 L 37.68 201.15 L 40.21 200.51 L 42.5 199.19 L 46.95 195.73 L 51.81 198.58 L 54.26 199.58 L 56.85 199.89 L 59.43 199.49 L 61.83 198.4 L 63.58 196.94 L 64.85 195.16 L 65.84 192.13 L 70.92 190.08 L 75.36 187.46 L 79.72 183.84 L 83.11 180.05 L 86.35 174.87 L 88.45 173.52 L 94.82 180.78 L 90.28 181.08 L 88.99 184.49 L 87.21 187.68 L 84.98 190.59 L 82.31 193.18 L 81.74 196.98 L 80.59 200.63 L 78.88 204.05 L 76.66 207.19 L 73.96 209.99 L 70.8 212.38 L 67.32 214.25 L 63.62 215.56 L 59.79 216.3 L 55.9 216.47 L 52.02 216.07 L 48.22 215.1 L 44.59 216.56 L 40.79 217.46 L 36.91 217.8 L 33.02 217.57 L 29.18 216.75 L 25.48 215.35 L 22.04 213.39 L 19 210.97 L 16.4 208.15 L 14.27 204.98 L 12.67 201.53 L 11.61 197.85 L 8.47 195.51 L 5.76 192.75 L 3.52 189.63 L 1.8 186.21 L 0.62 182.53 L 0.05 178.67 L 0.11 174.76 L 0.8 170.97 L 2.04 167.37 Z M 288.67 132.04 L 292.49 132.85 L 296.16 134.22 L 299.93 133.16 L 303.8 132.67 L 307.69 132.75 L 311.54 133.4 L 315.26 134.62 L 318.79 136.41 L 322.01 138.73 L 324.77 141.46 L 327.05 144.55 L 328.82 147.93 L 330.05 151.53 L 330.71 155.3 L 333.57 157.97 L 335.97 161 L 337.86 164.34 L 339.21 167.94 L 339.98 171.71 L 340.14 175.62 L 339.65 179.5 L 338.57 183.2 L 336.92 186.66 L 334.75 189.83 L 332.11 192.65 L 329.03 195.06 L 328.06 198.76 L 326.53 202.25 L 324.48 205.46 L 321.95 208.35 L 318.97 210.84 L 315.57 212.88 L 311.9 214.37 L 308.09 215.27 L 304.2 215.6 L 300.31 215.35 L 296.49 214.54 L 292.83 213.16 L 289.06 214.22 L 285.19 214.71 L 281.29 214.63 L 277.44 213.98 L 273.72 212.76 L 270.19 210.96 L 266.98 208.65 L 264.21 205.92 L 261.92 202.83 L 260.14 199.45 L 258.9 195.83 L 258.24 192.04 L 255.51 189.52 L 253.21 186.65 L 251.36 183.5 L 249.99 180.13 L 246.05 179.96 L 249.6 176.09 L 255.16 168.9 L 260.06 161.26 L 264.26 153.26 L 267.75 144.93 L 270.52 136.23 L 273.42 134.5 L 277.08 133.02 L 280.9 132.11 L 284.79 131.79 Z M 168.06 146.47 L 165.96 147.48 L 164.19 149.09 L 162.86 151.23 L 160.38 156.68 L 153.65 155.98 L 151.52 156.26 L 149.56 157.1 L 147.86 158.47 L 146.5 160.3 L 145.54 162.75 L 145.29 165.35 L 145.73 167.92 L 146.87 170.31 L 149.99 175 L 146.78 179.64 L 145.59 182 L 145.09 184.57 L 145.29 187.17 L 146.2 189.63 L 147.66 191.63 L 149.52 193.07 L 151.68 193.9 L 154.02 194.03 L 160.01 193.51 L 162.37 199.03 L 163.66 201.2 L 165.4 202.84 L 167.47 203.89 L 169.78 204.28 L 172.11 203.94 L 174.2 202.93 L 175.97 201.32 L 177.3 199.18 L 179.78 193.71 L 185.75 194.35 L 188.11 194.24 L 190.28 193.46 L 192.17 192.07 L 193.66 190.12 L 194.62 187.67 L 194.87 185.07 L 194.43 182.5 L 193.29 180.11 L 190.17 175.41 L 193.38 170.78 L 194.57 168.42 L 195.07 165.85 L 194.87 163.25 L 193.95 160.78 L 192.63 158.92 L 190.96 157.52 L 189.01 156.64 L 186.87 156.32 L 180.34 156.88 L 176.5 149.22 L 174.76 147.57 L 172.69 146.52 L 170.38 146.14 Z M 283.34 148.54 L 280.84 149.37 L 278.94 150.63 L 277.49 152.26 L 276.54 154.18 L 276.15 156.31 L 276.5 162.85 L 268.72 166.45 L 267.02 168.13 L 265.91 170.17 L 265.45 172.46 L 265.71 174.79 L 266.65 176.92 L 268.2 178.74 L 270.3 180.14 L 275.67 182.79 L 274.75 189.49 L 274.96 191.63 L 275.74 193.62 L 277.05 195.36 L 278.83 196.78 L 281.25 197.82 L 283.84 198.15 L 286.43 197.79 L 288.85 196.73 L 293.65 193.77 L 298.18 197.12 L 300.5 198.39 L 303.05 198.96 L 305.65 198.85 L 308.15 198.02 L 310.19 196.63 L 311.69 194.81 L 312.58 192.68 L 312.8 190.34 L 312.46 184.35 L 318.06 182.16 L 320.26 180.94 L 321.96 179.26 L 323.08 177.22 L 323.54 174.92 L 323.28 172.59 L 322.33 170.46 L 320.78 168.64 L 318.68 167.24 L 313.29 164.59 L 314.13 158.64 L 314.09 156.28 L 313.39 154.08 L 312.06 152.15 L 310.15 150.6 L 307.73 149.56 L 305.14 149.22 L 302.56 149.59 L 300.13 150.65 L 295.34 153.62 L 290.81 150.26 L 288.49 149 L 285.94 148.42 Z M 177.87 166.57 L 180.37 166.88 L 184.11 166.58 L 181.3 170.79 L 180.52 172.83 L 181.52 175.61 L 181.69 177.95 L 181.34 180.23 L 180.5 182.38 L 179.22 184.29 L 177.51 185.9 L 175.42 187.13 L 173.11 187.84 L 171.63 187.94 L 169.91 191.24 L 167.96 187.44 L 166.34 186.82 L 164.42 185.53 L 162.81 183.83 L 161.59 181.74 L 160.88 179.42 L 160.71 177.08 L 161.06 174.8 L 161.9 172.66 L 163.18 170.74 L 164.89 169.13 L 166.98 167.91 L 169.62 167.14 L 172.34 167.08 L 174.19 167.53 L 174.31 164.85 Z M 178.2 15.13 L 186.13 16.15 L 193.84 17.81 L 201.3 20.09 L 208.48 22.95 L 215.36 26.37 L 221.91 30.33 L 228.09 34.78 L 233.89 39.72 L 239.26 45.09 L 244.19 50.89 L 248.65 57.07 L 252.61 63.62 L 256.03 70.5 L 258.89 77.68 L 261.17 85.14 L 262.83 92.85 L 263.85 100.78 L 264.19 108.9 L 263.83 117.18 L 262.75 125.33 L 260.97 133.33 L 258.51 141.11 L 255.39 148.65 L 251.62 155.9 L 247.23 162.81 L 242.22 169.34 L 236.63 175.45 L 230.52 181.04 L 223.99 186.05 L 221.38 187.7 L 221.25 181.6 L 220.1 175.72 L 221.52 168.57 L 221.61 165.75 L 228.47 158.77 L 232.2 154.04 L 235.56 149.02 L 238.5 143.76 L 241.03 138.29 L 243.11 132.63 L 244.75 126.83 L 245.93 120.91 L 246.63 114.93 L 246.87 108.9 L 246.42 100.6 L 245.08 92.39 L 242.85 84.38 L 241.42 80.48 L 237.93 72.93 L 235.88 69.31 L 231.21 62.43 L 228.61 59.18 L 222.89 53.15 L 219.79 50.37 L 213.17 45.34 L 206.05 41.05 L 202.32 39.2 L 194.6 36.13 L 186.59 33.9 L 182.5 33.12 L 174.24 32.22 L 164.05 32.34 L 158.07 33.05 L 152.15 34.23 L 146.35 35.87 L 140.69 37.95 L 135.21 40.48 L 129.95 43.42 L 124.94 46.77 L 120.21 50.51 L 115.78 54.6 L 111.68 59.03 L 107.95 63.76 L 104.6 68.78 L 101.66 74.04 L 99.13 79.51 L 97.04 85.17 L 95.41 90.97 L 94.23 96.89 L 93.52 102.88 L 93.28 108.9 L 93.52 114.93 L 94.23 120.91 L 95.41 126.83 L 97.04 132.63 L 99.13 138.29 L 101.66 143.76 L 104.6 149.02 L 107.95 154.04 L 111.68 158.77 L 118.76 165.95 L 118.91 168.81 L 120.05 174.68 L 118.64 181.85 L 118.61 187.68 L 112.07 183.02 L 106.27 178.08 L 100.89 172.71 L 95.96 166.91 L 91.51 160.73 L 87.55 154.18 L 84.13 147.3 L 81.26 140.12 L 78.99 132.66 L 77.33 124.95 L 76.31 117.02 L 75.96 108.9 L 76.31 100.78 L 77.33 92.85 L 78.99 85.14 L 81.26 77.68 L 84.13 70.5 L 87.55 63.62 L 91.51 57.07 L 95.96 50.89 L 100.89 45.09 L 106.27 39.72 L 112.07 34.78 L 118.25 30.33 L 124.8 26.37 L 131.68 22.95 L 138.86 20.09 L 146.32 17.81 L 154.03 16.15 L 161.96 15.13 L 170.08 14.78 Z M 303.36 163.47 L 303.35 165.72 L 303.95 168.17 L 305.14 170.39 L 306.86 172.25 L 310.53 174.37 L 307.67 175.57 L 305.63 177.05 L 303.34 180.26 L 300.85 180.01 L 297.47 181.99 L 293.85 183.44 L 290.06 184.35 L 285.5 184.65 L 285.67 182.89 L 285.38 180.38 L 284.46 178.03 L 282.99 175.98 L 281.05 174.36 L 278.32 172.94 L 281.55 171.48 L 283.55 169.94 L 285.06 167.99 L 288.35 167.77 L 290.76 166.76 L 294.32 163.55 L 296.55 163.55 L 300.12 162.39 Z M 13.76 120.02 L 14.57 125.06 L 16.36 130.48 L 18.71 135.14 L 19.99 136.99 L 20.44 138.8 L 21.65 140.86 L 23.47 142.61 L 28.31 146.16 L 26.44 151.88 L 26.06 154.2 L 26.37 156.49 L 27.34 158.62 L 28.94 160.49 L 31.14 161.93 L 33.63 162.72 L 36.24 162.82 L 38.81 162.2 L 44.05 160.12 L 47.92 164.22 L 49.98 165.87 L 52.39 166.89 L 54.98 167.23 L 57.58 166.85 L 59.67 165.94 L 61.39 164.59 L 62.79 162.52 L 66.63 162.82 L 71.85 162.49 L 75.93 161.66 L 79.62 160.4 L 82.63 165.38 L 78.71 167.59 L 77.09 171.08 L 74.96 174.25 L 72.37 177.06 L 69.36 179.46 L 65.98 181.38 L 62.28 182.79 L 58.41 183.61 L 54.49 183.83 L 50.61 183.46 L 46.82 182.54 L 43.21 181.07 L 39.84 179.07 L 35.94 179.45 L 32.05 179.25 L 28.23 178.49 L 24.55 177.17 L 21.1 175.32 L 17.94 172.93 L 15.18 170.09 L 12.94 166.91 L 11.24 163.47 L 10.09 159.84 L 9.52 156.07 L 9.53 152.25 L 7.18 149.12 L 5.35 145.71 L 4.08 142.09 L 3.38 138.31 L 3.28 134.46 L 3.82 130.59 L 4.97 126.86 L 6.69 123.41 L 8.92 120.28 L 11.61 117.54 L 13.68 115.99 Z M 66.95 65.96 L 69.41 70.94 L 71.79 74.47 L 69.62 81.56 L 68.21 80.89 L 65.62 80.44 L 63.16 80.7 L 60.98 81.58 L 59.18 83.04 L 57.89 85 L 55.35 90.44 L 49.38 89.72 L 46.86 89.75 L 44.57 90.43 L 42.62 91.69 L 41.13 93.5 L 40.25 95.68 L 40.08 98 L 40.58 100.34 L 41.77 102.57 L 45.26 107.45 L 41.71 112.3 L 40.63 114.39 L 40.21 116.66 L 40.47 118.99 L 41.41 121.26 L 43.05 123.32 L 45.17 124.84 L 47.62 125.75 L 50.26 125.96 L 55.88 125.61 L 58.28 130.71 L 59.73 132.92 L 61.7 134.64 L 64.05 135.77 L 66.65 136.22 L 69.49 135.8 L 71.97 143.83 L 75.03 151.44 L 70.11 152.64 L 66.15 152.83 L 62.22 152.4 L 58.43 151.39 L 54.85 149.84 L 51.54 147.78 L 48.57 145.26 L 45.99 142.32 L 42.16 141.46 L 38.52 140.06 L 35.13 138.15 L 32.05 135.75 L 29.35 132.92 L 27.08 129.67 L 25.35 126.11 L 24.21 122.39 L 23.66 118.59 L 23.7 114.78 L 24.32 111.02 L 25.53 107.39 L 24.26 103.69 L 23.59 99.88 L 23.5 96.04 L 24.01 92.24 L 25.12 88.54 L 26.84 85.03 L 29.1 81.84 L 31.8 79.1 L 34.89 76.83 L 38.3 75.06 L 41.97 73.82 L 45.82 73.16 L 48.43 70.36 L 51.42 68.01 L 54.75 66.15 L 58.35 64.81 L 62.15 64.02 L 66.22 63.84 Z M 107.56 106.88 L 106.76 109.32 L 107.96 112.84 L 108.63 116.45 L 108.77 120.1 L 108.38 123.72 L 131.54 137.45 L 129.55 139.19 L 126.11 143.03 L 123.76 146.52 L 121.58 150.86 L 115.4 147.19 L 110.59 139.24 L 108.34 134.37 L 106.58 129.61 L 105.13 124.46 L 104.11 119.31 L 103.49 114.11 L 103.37 106.51 Z M 302.63 98.34 L 306.49 99.18 L 310.19 100.61 L 313.56 102.55 L 316.55 104.96 L 319.12 107.77 L 321.22 110.95 L 322.81 114.43 L 326.26 116.28 L 329.35 118.6 L 332.02 121.36 L 334.24 124.49 L 335.95 127.95 L 337.08 131.69 L 337.6 135.56 L 337.49 139.41 L 337 141.99 L 335.1 138.61 L 332 134.55 L 327.86 130.62 L 323.57 127.62 L 318.38 125.12 L 313.43 123.58 L 307.72 122.74 L 306.99 119.59 L 305.74 117.64 L 303.97 116.11 L 301.74 115.09 L 299.13 114.7 L 296.54 115.03 L 294.13 116.04 L 292.06 117.69 L 288.17 121.77 L 282.94 119.67 L 280.38 119.04 L 277.76 119.13 L 275.27 119.9 L 273.39 121.13 L 273.82 117.61 L 274.18 108.48 L 273.95 103.03 L 276.25 102.59 L 280.14 102.4 L 284.04 102.8 L 287.42 100.82 L 291.04 99.37 L 294.83 98.46 L 298.71 98.11 Z M 218.57 62.97 L 225.22 71.24 L 223.97 74.08 L 223.71 76.35 L 224.03 78.51 L 224.89 80.47 L 226.27 82.13 L 231.5 86.07 L 229.26 94.34 L 229.45 96.72 L 230.3 98.89 L 231.77 100.72 L 233.72 102.01 L 236.54 102.65 L 236.86 108.9 L 236.65 114.15 L 236.05 119.23 L 231.17 118.6 L 227.7 117.48 L 208.99 137.94 L 206.01 135.62 L 201.61 133.08 L 195.81 130.96 L 194.3 129.4 L 215.44 106.28 L 214 102.92 L 213.08 99.39 L 212.67 95.74 L 212.8 92.03 L 210.58 88.89 L 208.89 85.46 L 207.75 81.81 L 207.17 78.01 L 207.18 74.12 L 207.81 70.21 L 209.02 66.45 L 210.79 62.94 L 214.07 58.67 Z M 112.19 86.23 L 116.27 89.38 L 121.25 92.07 L 126.03 93.81 L 132.06 94.9 L 136.63 97.92 L 139.89 99.46 L 144.99 130.5 L 143.19 131.01 L 129.02 99.21 L 125.38 99.18 L 121.77 98.62 L 118.26 97.54 L 114.91 95.93 L 111.14 96.71 L 107.33 96.89 L 104.48 96.58 L 106.58 88.18 L 108.7 82.63 Z M 187.95 44.55 L 194.82 46.86 L 200.95 49.67 L 198.33 51.72 L 196.84 53.87 L 195.98 56.34 L 195.82 58.96 L 196.29 61.2 L 197.26 63.15 L 198.99 64.94 L 197.94 68.62 L 197.19 73.79 L 197.28 79.52 L 198.13 84.55 L 199.92 89.88 L 202.69 95.05 L 203.14 100.51 L 203.95 104.02 L 188.94 120.43 L 189.03 111.47 L 197.73 92.22 L 195.33 89.48 L 193.35 86.41 L 191.83 83.07 L 190.79 79.5 L 189.37 78.44 L 189.61 54.96 L 189.32 52.45 L 188.41 50.1 L 186.93 48.05 L 185 46.43 L 182.61 45.32 L 183.79 43.53 Z M 54.35 100.38 L 56.99 101.94 L 60.89 101.56 L 66.24 102.05 L 65.97 109.33 L 66.56 119.66 L 65.68 119.08 L 62.67 118.27 L 59.51 116.29 L 57.07 115.68 L 51.49 115.86 L 54.01 112.29 L 54.94 109.95 L 55.26 107.44 L 54.94 104.94 L 54 102.6 L 52.33 100.15 Z M 126.81 60.4 L 127.45 62.93 L 128.78 65.21 L 130.4 66.81 L 132.29 67.9 L 134.36 68.44 L 136.52 68.38 L 139.8 67.51 L 141.98 71.83 L 144.95 76.05 L 148.87 80.09 L 152.7 83.04 L 152.39 113.82 L 148.78 91.84 L 145.26 90.89 L 141.91 89.43 L 138.79 87.49 L 135.96 85.09 L 132.12 84.89 L 128.38 84.09 L 124.81 82.73 L 121.46 80.83 L 118.42 78.41 L 115.73 75.5 L 113.93 72.8 L 119.26 65.55 L 122.84 61.68 L 126.85 57.98 Z M 249.98 35.58 L 253.71 36.4 L 257.26 37.77 L 260.56 39.69 L 264.45 39.21 L 268.31 39.32 L 272.09 40.02 L 275.71 41.3 L 279.1 43.14 L 282.19 45.53 L 284.85 48.39 L 286.99 51.6 L 288.58 55.09 L 289.62 58.79 L 290.08 62.62 L 289.95 66.53 L 292.16 69.65 L 293.85 73.07 L 294.99 76.7 L 295.57 80.5 L 295.57 84.38 L 294.9 88.41 L 292.68 88.69 L 287.32 90.09 L 281.81 92.51 L 279.65 92.41 L 272.93 93.04 L 272.67 91.1 L 274.15 90.53 L 276.23 88.95 L 277.82 86.88 L 278.79 84.43 L 279.03 81.98 L 278.61 79.66 L 277.55 77.6 L 275.9 75.94 L 271.09 72.34 L 273.01 66.64 L 273.49 64.17 L 273.3 61.79 L 272.45 59.62 L 270.98 57.79 L 269.03 56.49 L 266.79 55.85 L 264.4 55.87 L 260.44 57.24 L 256.76 51.22 L 251.81 44.41 L 246.88 38.61 L 243.86 35.55 L 246.15 35.35 Z M 169.72 42.67 L 167.84 44.73 L 161.84 44.76 L 159.39 45.36 L 157.17 46.56 L 155.32 48.28 L 153.96 50.41 L 153.18 52.81 L 152.84 69.86 L 150.25 66.21 L 148.56 62.64 L 147.43 58.84 L 146.91 54.96 L 146.96 51.06 L 148 45.91 L 154.43 43.97 L 159.66 42.93 L 169.45 42.13 Z M 107.2 14.27 L 103.86 18.12 L 100.85 22.99 L 98.79 27.79 L 97.25 34.59 L 93.27 38.61 L 88.34 44.41 L 83.39 51.23 L 78.99 58.45 L 76.65 63.09 L 74.95 58.15 L 74.38 54.27 L 74.41 50.31 L 75.06 46.4 L 76.27 42.71 L 78.02 39.29 L 80.26 36.2 L 82.94 33.5 L 86.02 31.23 L 87.13 27.48 L 88.78 23.98 L 90.93 20.8 L 93.54 17.99 L 96.58 15.62 L 100.01 13.74 L 103.7 12.44 L 107.49 11.77 L 110.1 11.72 Z M 234.8 11.71 L 238.59 12.4 L 242.27 13.71 L 245.69 15.61 L 248.72 17.99 L 251.32 20.81 L 253.46 24 L 254.54 26.34 L 250.58 25.6 L 245.49 25.37 L 239.81 26.01 L 234.8 27.36 L 227.08 21.77 L 220.53 17.81 L 212.75 13.92 L 216.17 14.1 L 219.91 14.9 L 223.45 13.23 L 227.16 12.13 L 230.96 11.62 Z M 150.14 1.8 L 155.63 3.43 L 151.83 6.39 L 144.22 8.03 L 135.16 10.8 L 127.98 13.66 L 119.63 17.81 L 115.19 20.49 L 117.59 18.52 L 120.87 16.58 L 124.43 15.17 L 126.45 11.83 L 128.94 8.86 L 131.82 6.33 L 135.07 4.27 L 138.61 2.75 L 142.4 1.8 L 146.29 1.49 Z M 195.97 0.23 L 199.78 1.09 L 203.36 2.53 L 206.61 4.49 L 200.86 6.08 L 196.32 8.13 L 188.23 6.37 L 177.7 5.1 L 181.02 2.96 L 184.53 1.4 L 188.24 0.41 L 192.07 0.01 Z" fill="black" fill-rule="nonzero" stroke="none"/>
    </svg>