<?xml version="1.0" encoding="UTF-8"?>
    <svg xmlns="http://www.w3.org/2000/svg" 
         viewBox="0 0 340.15747 217.80147" 
         width="340.15747px" 
         height="217.80147px">
        <path d="M 9.11 159.09 L 9.42 160.45 L 9.8 161.83 L 10.24 163.1 L 10.77 164.43 L 11.34 165.66 L 12.03 166.93 L 12.73 168.1 L 13.54 169.27 L 14.43 170.43 L 15.33 171.48 L 16.36 172.56 L 17.39 173.52 L 17.43 173.54 L 17.47 173.57 L 17.24 174.06 L 16.98 174.73 L 16.79 175.42 L 16.67 176.13 L 16.61 176.85 L 16.63 177.58 L 16.71 178.31 L 16.86 179.02 L 17.08 179.7 L 17.35 180.36 L 17.69 181 L 18.09 181.6 L 18.54 182.16 L 19.04 182.7 L 19.6 183.19 L 20.2 183.63 L 20.85 184.04 L 21.54 184.39 L 22.28 184.69 L 27.92 186.75 L 27.73 192.76 L 27.75 193.55 L 27.85 194.34 L 28.02 195.1 L 28.27 195.83 L 28.58 196.53 L 28.96 197.2 L 29.41 197.84 L 29.92 198.43 L 30.49 198.98 L 31.12 199.48 L 31.81 199.93 L 32.55 200.32 L 33.3 200.63 L 34.08 200.88 L 34.87 201.06 L 35.67 201.17 L 36.47 201.21 L 37.28 201.19 L 38.08 201.1 L 38.87 200.94 L 39.64 200.72 L 40.4 200.43 L 41.13 200.08 L 41.83 199.67 L 42.5 199.19 L 46.95 195.73 L 51.81 198.58 L 52.54 198.96 L 53.29 199.28 L 54.06 199.53 L 54.85 199.72 L 55.65 199.84 L 56.45 199.89 L 57.25 199.87 L 58.05 199.79 L 58.85 199.64 L 59.62 199.43 L 60.38 199.15 L 61.12 198.81 L 61.83 198.4 L 62.46 197.95 L 63.05 197.46 L 63.58 196.94 L 64.06 196.38 L 64.48 195.78 L 64.85 195.16 L 65.15 194.51 L 65.4 193.84 L 65.58 193.15 L 65.7 192.44 L 65.76 191.72 L 65.74 190.99 L 64.69 184.53 L 69.98 181.56 L 70.67 181.16 L 71.31 180.72 L 71.9 180.24 L 72.44 179.72 L 72.93 179.16 L 73.35 178.57 L 73.73 177.95 L 74.04 177.3 L 74.29 176.63 L 74.43 176.11 L 75.29 175.12 L 76.17 174 L 76.94 172.89 L 77.69 171.66 L 78.33 170.46 L 78.94 169.16 L 79.33 168.17 L 80.32 167.71 L 81.54 167.06 L 82.69 166.37 L 83.87 165.56 L 84.93 164.75 L 85.98 163.85 L 87 162.88 L 87.87 161.96 L 87.98 162.14 L 88.62 163.3 L 89.19 164.5 L 92.96 164.25 L 93.8 165.41 L 95.34 167.43 L 96.97 169.44 L 98.61 171.37 L 100.34 173.29 L 102.1 175.15 L 103.89 176.94 L 105.75 178.69 L 107.17 179.97 L 90.28 181.08 L 89.87 182.34 L 89.39 183.58 L 88.85 184.79 L 88.24 185.97 L 87.57 187.12 L 86.84 188.23 L 86.05 189.31 L 85.2 190.34 L 84.29 191.33 L 83.33 192.28 L 82.31 193.18 L 82.18 194.54 L 81.97 195.88 L 81.69 197.2 L 81.33 198.51 L 80.91 199.79 L 80.41 201.04 L 79.85 202.27 L 79.22 203.46 L 78.53 204.63 L 77.77 205.75 L 76.95 206.84 L 76.07 207.88 L 75.13 208.88 L 74.13 209.84 L 73.08 210.74 L 71.97 211.59 L 70.8 212.38 L 69.6 213.1 L 68.37 213.76 L 67.1 214.34 L 65.82 214.86 L 64.51 215.3 L 63.18 215.67 L 61.83 215.98 L 60.47 216.21 L 59.11 216.37 L 57.73 216.46 L 56.36 216.48 L 54.98 216.43 L 53.61 216.3 L 52.24 216.11 L 50.89 215.85 L 49.55 215.51 L 48.22 215.1 L 46.96 215.68 L 45.68 216.19 L 44.37 216.63 L 43.04 217 L 41.7 217.3 L 40.34 217.53 L 38.97 217.69 L 37.6 217.78 L 36.22 217.8 L 34.85 217.75 L 33.47 217.62 L 32.11 217.43 L 30.75 217.16 L 29.41 216.82 L 28.08 216.4 L 26.77 215.91 L 25.48 215.35 L 24.22 214.72 L 23.01 214.02 L 21.85 213.26 L 20.73 212.45 L 19.67 211.58 L 18.67 210.66 L 17.72 209.69 L 16.82 208.67 L 15.99 207.61 L 15.21 206.51 L 14.5 205.37 L 13.85 204.19 L 13.26 202.98 L 12.75 201.74 L 12.3 200.47 L 11.92 199.17 L 11.61 197.85 L 10.52 197.12 L 9.47 196.34 L 8.47 195.51 L 7.52 194.64 L 6.62 193.72 L 5.76 192.75 L 4.96 191.75 L 4.21 190.71 L 3.52 189.63 L 2.89 188.52 L 2.31 187.38 L 1.8 186.21 L 1.34 185.01 L 0.95 183.78 L 0.62 182.53 L 0.36 181.26 L 0.17 179.97 L 0.05 178.67 L 0 177.36 L 0.02 176.05 L 0.11 174.76 L 0.27 173.48 L 0.5 172.21 L 0.8 170.97 L 1.16 169.74 L 1.58 168.53 L 2.06 167.34 L 2.61 166.19 L 3.21 165.06 L 3.88 163.96 L 4.6 162.89 L 5.37 161.86 L 6.2 160.87 L 7.08 159.92 L 8.02 159.01 L 8.95 158.17 Z M 286.85 131.85 L 288.22 131.98 L 289.58 132.18 L 290.93 132.45 L 292.27 132.78 L 293.59 133.19 L 294.88 133.67 L 296.16 134.22 L 297.47 133.78 L 298.8 133.41 L 300.15 133.12 L 301.51 132.89 L 302.88 132.74 L 304.25 132.65 L 305.63 132.64 L 307.01 132.7 L 308.38 132.83 L 309.74 133.03 L 311.09 133.3 L 312.43 133.64 L 313.75 134.05 L 315.05 134.54 L 316.33 135.09 L 317.57 135.72 L 318.79 136.41 L 319.98 137.18 L 321.11 138 L 322.18 138.88 L 323.2 139.81 L 324.16 140.79 L 325.06 141.81 L 325.91 142.88 L 326.69 143.98 L 327.4 145.13 L 328.05 146.31 L 328.64 147.52 L 329.16 148.76 L 329.61 150.03 L 329.99 151.32 L 330.3 152.63 L 330.54 153.96 L 330.71 155.3 L 331.71 156.14 L 332.67 157.03 L 333.57 157.97 L 334.43 158.94 L 335.23 159.95 L 335.97 161 L 336.66 162.08 L 337.29 163.2 L 337.86 164.34 L 338.37 165.52 L 338.82 166.71 L 339.21 167.94 L 339.53 169.18 L 339.79 170.44 L 339.98 171.71 L 340.1 173 L 340.16 174.31 L 340.14 175.62 L 340.04 176.93 L 339.88 178.22 L 339.65 179.5 L 339.36 180.75 L 338.99 181.98 L 338.57 183.2 L 338.08 184.38 L 337.53 185.53 L 336.92 186.66 L 336.25 187.75 L 335.53 188.81 L 334.75 189.83 L 333.92 190.81 L 333.04 191.76 L 332.11 192.65 L 331.13 193.5 L 330.1 194.31 L 329.03 195.06 L 328.75 196.39 L 328.4 197.69 L 327.98 198.97 L 327.5 200.23 L 326.94 201.45 L 326.32 202.64 L 325.63 203.8 L 324.88 204.92 L 324.07 206 L 323.2 207.03 L 322.27 208.03 L 321.29 208.97 L 320.25 209.86 L 319.15 210.7 L 318.01 211.49 L 316.82 212.22 L 315.57 212.88 L 314.29 213.47 L 313 213.99 L 311.68 214.44 L 310.34 214.81 L 308.99 215.11 L 307.63 215.34 L 306.26 215.5 L 304.89 215.58 L 303.51 215.59 L 302.13 215.54 L 300.76 215.41 L 299.4 215.21 L 298.05 214.94 L 296.72 214.6 L 295.4 214.19 L 294.1 213.71 L 292.83 213.16 L 291.51 213.6 L 290.18 213.97 L 288.83 214.27 L 287.47 214.49 L 286.1 214.65 L 284.73 214.73 L 283.35 214.74 L 281.98 214.68 L 280.61 214.55 L 279.24 214.35 L 277.89 214.08 L 276.55 213.74 L 275.23 213.33 L 273.93 212.84 L 272.66 212.29 L 271.41 211.66 L 270.19 210.96 L 269.01 210.2 L 267.88 209.38 L 266.8 208.5 L 265.78 207.57 L 264.82 206.6 L 263.92 205.57 L 263.07 204.51 L 262.29 203.4 L 261.57 202.25 L 260.91 201.07 L 260.32 199.86 L 259.8 198.61 L 259.34 197.34 L 258.96 196.05 L 258.64 194.73 L 258.4 193.39 L 258.24 192.04 L 257.2 191.17 L 256.22 190.24 L 255.29 189.27 L 254.41 188.25 L 253.6 187.2 L 252.84 186.1 L 252.14 184.97 L 251.51 183.8 L 250.94 182.6 L 250.43 181.38 L 249.99 180.13 L 233.58 179.43 L 234.52 178.59 L 237.18 176.03 L 239.12 174.03 L 240.99 172 L 242.78 169.93 L 244.49 167.83 L 246.17 165.64 L 247.76 163.45 L 247.78 163.4 L 250.69 163.53 L 251.23 162.32 L 251.84 161.14 L 252.51 159.99 L 253.24 158.89 L 254.03 157.82 L 254.88 156.79 L 255.78 155.8 L 256.73 154.86 L 257.74 153.97 L 258.8 153.13 L 259.91 152.35 L 260.19 151.02 L 260.54 149.71 L 260.96 148.42 L 261.45 147.16 L 262.02 145.93 L 262.64 144.74 L 263.33 143.58 L 264.09 142.46 L 264.9 141.38 L 265.78 140.34 L 266.71 139.35 L 267.7 138.4 L 268.74 137.51 L 269.83 136.67 L 270.98 135.89 L 272.17 135.16 L 273.42 134.5 L 274.69 133.91 L 275.99 133.39 L 277.3 132.95 L 278.64 132.57 L 279.99 132.27 L 281.35 132.05 L 282.72 131.89 L 284.1 131.8 L 285.47 131.79 Z M 175.43 14.93 L 178.12 15.12 L 180.78 15.39 L 183.43 15.72 L 186.05 16.13 L 188.65 16.62 L 191.22 17.17 L 193.77 17.79 L 196.29 18.48 L 198.77 19.24 L 201.23 20.06 L 203.66 20.95 L 206.06 21.91 L 208.42 22.93 L 210.76 24 L 213.05 25.15 L 215.31 26.35 L 217.53 27.61 L 219.72 28.92 L 221.86 30.3 L 223.97 31.73 L 226.03 33.22 L 228.05 34.75 L 230.03 36.35 L 231.97 37.99 L 233.85 39.69 L 235.7 41.43 L 237.49 43.22 L 239.24 45.06 L 240.93 46.95 L 242.58 48.88 L 244.17 50.86 L 245.71 52.88 L 247.2 54.94 L 248.63 57.05 L 250.01 59.19 L 251.33 61.37 L 252.59 63.6 L 253.8 65.85 L 254.94 68.15 L 256.02 70.48 L 257.04 72.84 L 258 75.24 L 258.89 77.66 L 259.71 80.12 L 260.47 82.61 L 261.17 85.13 L 261.79 87.67 L 262.35 90.24 L 262.83 92.84 L 263.24 95.46 L 263.58 98.11 L 263.85 100.77 L 264.04 103.46 L 264.16 106.17 L 264.19 108.9 L 264.12 112.57 L 263.98 115.29 L 263.75 118 L 263.45 120.7 L 263.08 123.38 L 262.62 126.04 L 262.09 128.69 L 261.49 131.31 L 260.81 133.92 L 260.06 136.5 L 259.23 139.06 L 258.33 141.59 L 257.36 144.1 L 256.32 146.58 L 255.21 149.02 L 254.03 151.44 L 252.78 153.82 L 251.47 156.17 L 250.08 158.48 L 248.63 160.75 L 247.11 162.98 L 245.52 165.17 L 243.87 167.32 L 242.16 169.42 L 240.38 171.48 L 238.53 173.49 L 236.63 175.45 L 233.98 178 L 231.96 179.82 L 229.88 181.57 L 227.76 183.27 L 225.6 184.9 L 223.4 186.46 L 221.15 187.96 L 218.87 189.39 L 216.54 190.75 L 214.18 192.04 L 211.79 193.27 L 209.37 194.42 L 206.91 195.51 L 204.42 196.53 L 201.91 197.47 L 199.36 198.34 L 196.8 199.14 L 194.21 199.87 L 191.59 200.53 L 188.96 201.1 L 186.31 201.61 L 183.64 202.04 L 180.95 202.39 L 178.25 202.66 L 175.54 202.86 L 172.81 202.98 L 170.08 203.02 L 164.73 202.87 L 162.04 202.68 L 159.37 202.41 L 156.73 202.08 L 154.1 201.67 L 151.51 201.18 L 148.93 200.63 L 146.39 200.01 L 143.87 199.32 L 141.38 198.56 L 138.92 197.74 L 136.49 196.85 L 134.1 195.89 L 131.73 194.88 L 129.4 193.8 L 127.11 192.66 L 124.85 191.45 L 122.62 190.19 L 120.44 188.88 L 118.29 187.5 L 116.19 186.07 L 114.12 184.58 L 112.1 183.05 L 110.12 181.45 L 108.19 179.81 L 106.3 178.11 L 104.46 176.37 L 102.67 174.58 L 100.92 172.74 L 99.22 170.85 L 97.58 168.92 L 95.98 166.94 L 94.44 164.92 L 92.95 162.86 L 91.52 160.75 L 90.15 158.61 L 88.83 156.43 L 87.56 154.2 L 86.36 151.95 L 85.22 149.65 L 84.14 147.32 L 83.12 144.96 L 82.16 142.56 L 81.27 140.14 L 80.44 137.68 L 79.68 135.19 L 78.99 132.67 L 78.37 130.13 L 77.81 127.56 L 77.33 124.96 L 76.91 122.34 L 76.57 119.69 L 76.31 117.03 L 76.12 114.34 L 76 111.63 L 75.96 108.9 L 76.11 103.55 L 76.3 100.86 L 76.56 98.2 L 76.9 95.55 L 77.31 92.93 L 77.79 90.33 L 78.35 87.76 L 78.97 85.21 L 79.66 82.69 L 80.42 80.21 L 81.24 77.75 L 82.13 75.32 L 83.09 72.92 L 84.1 70.55 L 85.18 68.22 L 86.32 65.93 L 87.52 63.67 L 88.78 61.45 L 90.1 59.26 L 91.48 57.12 L 92.91 55.01 L 94.39 52.95 L 95.93 50.93 L 97.53 48.95 L 99.17 47.01 L 100.86 45.13 L 102.61 43.28 L 104.4 41.49 L 106.24 39.74 L 108.13 38.05 L 110.06 36.4 L 112.04 34.81 L 114.06 33.27 L 116.12 31.78 L 118.22 30.35 L 120.37 28.97 L 122.55 27.65 L 124.77 26.39 L 127.03 25.18 L 129.33 24.04 L 131.66 22.96 L 134.02 21.94 L 136.41 20.98 L 138.84 20.09 L 141.3 19.27 L 143.79 18.51 L 146.31 17.81 L 148.85 17.19 L 151.42 16.63 L 154.02 16.15 L 156.64 15.74 L 159.29 15.4 L 161.95 15.13 L 164.64 14.94 L 167.35 14.82 L 170.08 14.78 Z M 283.94 148.45 L 283.14 148.57 L 282.35 148.77 L 281.59 149.03 L 280.84 149.37 L 280.16 149.74 L 279.52 150.16 L 278.94 150.63 L 278.4 151.14 L 277.92 151.68 L 277.49 152.26 L 277.11 152.87 L 276.8 153.51 L 276.54 154.18 L 276.34 154.87 L 276.21 155.58 L 276.15 156.31 L 276.5 162.85 L 270.92 165.23 L 270.19 165.55 L 269.51 165.92 L 268.87 166.34 L 268.28 166.8 L 267.74 167.3 L 267.25 167.84 L 266.81 168.42 L 266.43 169.03 L 266.11 169.67 L 265.85 170.34 L 265.65 171.03 L 265.51 171.74 L 265.45 172.46 L 265.45 173.2 L 265.53 173.92 L 265.66 174.62 L 265.87 175.31 L 266.14 175.97 L 266.46 176.61 L 266.85 177.22 L 267.29 177.8 L 267.79 178.35 L 268.34 178.86 L 268.95 179.33 L 269.6 179.76 L 270.3 180.14 L 275.67 182.79 L 274.75 189.49 L 274.75 190.22 L 274.82 190.93 L 274.96 191.63 L 275.16 192.32 L 275.42 192.98 L 275.74 193.62 L 276.12 194.23 L 276.56 194.81 L 277.05 195.36 L 277.59 195.87 L 278.19 196.35 L 278.83 196.78 L 279.55 197.17 L 280.29 197.5 L 281.06 197.76 L 281.84 197.96 L 282.64 198.09 L 283.44 198.15 L 284.25 198.14 L 285.05 198.07 L 285.84 197.94 L 286.63 197.74 L 287.39 197.47 L 288.14 197.13 L 288.85 196.73 L 293.65 193.77 L 298.18 197.12 L 298.86 197.58 L 299.57 197.98 L 300.31 198.31 L 301.07 198.58 L 301.85 198.78 L 302.65 198.92 L 303.45 198.99 L 304.25 199 L 305.05 198.94 L 305.85 198.81 L 306.63 198.61 L 307.4 198.35 L 308.15 198.02 L 308.83 197.64 L 309.46 197.22 L 310.05 196.75 L 310.58 196.24 L 311.07 195.7 L 311.5 195.12 L 311.87 194.51 L 312.18 193.86 L 312.43 193.2 L 312.62 192.51 L 312.75 191.8 L 312.81 191.08 L 312.8 190.34 L 312.46 184.35 L 318.06 182.16 L 318.79 181.84 L 319.47 181.47 L 320.11 181.05 L 320.7 180.59 L 321.25 180.08 L 321.74 179.54 L 322.18 178.96 L 322.56 178.35 L 322.88 177.71 L 323.14 177.05 L 323.34 176.36 L 323.47 175.65 L 323.54 174.92 L 323.53 174.19 L 323.46 173.46 L 323.32 172.76 L 323.12 172.07 L 322.85 171.41 L 322.52 170.77 L 322.13 170.16 L 321.69 169.57 L 321.19 169.03 L 320.64 168.52 L 320.03 168.05 L 319.38 167.62 L 318.68 167.24 L 313.29 164.59 L 314.13 158.64 L 314.19 157.84 L 314.18 157.05 L 314.09 156.28 L 313.93 155.52 L 313.69 154.79 L 313.39 154.08 L 313.01 153.4 L 312.57 152.76 L 312.06 152.15 L 311.48 151.59 L 310.85 151.07 L 310.15 150.6 L 309.44 150.21 L 308.69 149.88 L 307.93 149.62 L 307.14 149.42 L 306.35 149.29 L 305.55 149.23 L 304.74 149.24 L 303.94 149.31 L 303.14 149.44 L 302.36 149.65 L 301.6 149.91 L 300.85 150.25 L 300.13 150.65 L 295.34 153.62 L 290.81 150.26 L 290.13 149.8 L 289.42 149.4 L 288.68 149.07 L 287.92 148.8 L 287.14 148.6 L 286.34 148.46 L 285.54 148.39 L 284.74 148.38 Z M 167.67 32.14 L 165.26 32.26 L 162.85 32.45 L 160.45 32.71 L 158.07 33.05 L 155.69 33.47 L 153.33 33.96 L 150.98 34.52 L 148.65 35.16 L 146.35 35.87 L 144.06 36.65 L 141.81 37.5 L 139.58 38.42 L 137.38 39.42 L 135.21 40.48 L 133.08 41.61 L 130.99 42.8 L 128.93 44.06 L 126.92 45.39 L 124.94 46.77 L 123.01 48.22 L 121.13 49.73 L 119.29 51.3 L 117.51 52.92 L 115.78 54.6 L 114.1 56.33 L 112.47 58.12 L 110.91 59.95 L 109.4 61.83 L 107.95 63.76 L 106.56 65.74 L 105.24 67.75 L 103.98 69.81 L 102.78 71.9 L 101.66 74.04 L 100.59 76.2 L 99.6 78.4 L 98.68 80.63 L 97.83 82.89 L 97.04 85.17 L 96.33 87.48 L 95.7 89.8 L 95.13 92.15 L 94.65 94.51 L 94.23 96.89 L 93.89 99.28 L 93.63 101.67 L 93.44 104.08 L 93.32 106.49 L 93.28 108.9 L 93.32 111.31 L 93.44 113.72 L 93.63 116.13 L 93.89 118.52 L 94.23 120.91 L 94.65 123.29 L 95.13 125.65 L 95.7 128 L 96.33 130.32 L 97.04 132.63 L 97.83 134.91 L 98.68 137.17 L 99.6 139.4 L 100.59 141.6 L 101.66 143.76 L 102.78 145.9 L 103.98 147.99 L 105.24 150.05 L 106.56 152.06 L 107.95 154.04 L 109.4 155.97 L 110.91 157.85 L 112.47 159.68 L 114.1 161.47 L 115.78 163.2 L 117.51 164.88 L 119.29 166.5 L 121.13 168.07 L 123.01 169.58 L 124.94 171.03 L 126.92 172.41 L 128.93 173.74 L 130.99 175 L 133.08 176.19 L 135.21 177.32 L 137.38 178.39 L 139.58 179.38 L 141.81 180.3 L 144.06 181.15 L 146.35 181.93 L 148.65 182.64 L 150.98 183.28 L 153.33 183.84 L 155.69 184.33 L 158.07 184.75 L 160.45 185.09 L 162.85 185.35 L 165.26 185.54 L 167.67 185.65 L 170.08 185.69 L 172.49 185.65 L 174.9 185.54 L 177.3 185.35 L 179.7 185.09 L 182.09 184.75 L 184.47 184.33 L 186.83 183.84 L 189.18 183.28 L 191.5 182.64 L 193.81 181.93 L 196.09 181.15 L 198.35 180.3 L 200.58 179.38 L 202.77 178.39 L 204.94 177.32 L 207.07 176.19 L 209.17 175 L 211.23 173.74 L 213.24 172.41 L 215.22 171.03 L 217.15 169.58 L 219.03 168.07 L 220.86 166.5 L 222.65 164.88 L 224.38 163.2 L 226.06 161.47 L 227.68 159.68 L 229.25 157.85 L 230.76 155.97 L 232.2 154.04 L 233.59 152.06 L 234.92 150.05 L 236.18 147.99 L 237.37 145.9 L 238.5 143.76 L 239.56 141.6 L 240.56 139.4 L 241.48 137.17 L 242.33 134.91 L 243.11 132.63 L 243.82 130.32 L 244.46 128 L 245.02 125.65 L 245.51 123.29 L 245.93 120.91 L 246.27 118.52 L 246.53 116.13 L 246.72 113.72 L 246.83 111.31 L 246.87 108.9 L 246.84 106.82 L 246.76 104.74 L 246.62 102.67 L 246.42 100.6 L 246.17 98.53 L 245.86 96.48 L 245.5 94.43 L 245.08 92.39 L 244.6 90.37 L 244.07 88.36 L 243.49 86.36 L 242.85 84.38 L 242.16 82.42 L 241.42 80.48 L 240.62 78.55 L 239.77 76.66 L 238.87 74.78 L 237.93 72.93 L 236.93 71.11 L 235.88 69.31 L 234.78 67.54 L 233.64 65.81 L 232.45 64.1 L 231.21 62.43 L 229.93 60.79 L 228.61 59.18 L 227.24 57.62 L 225.83 56.09 L 224.38 54.6 L 222.89 53.15 L 221.36 51.74 L 219.79 50.37 L 218.19 49.05 L 216.55 47.77 L 214.88 46.53 L 213.17 45.34 L 211.44 44.2 L 209.67 43.1 L 207.87 42.05 L 206.05 41.05 L 204.2 40.1 L 202.32 39.2 L 200.42 38.36 L 198.5 37.56 L 196.56 36.82 L 194.6 36.13 L 192.62 35.49 L 190.62 34.91 L 188.61 34.38 L 186.59 33.9 L 184.55 33.48 L 182.5 33.12 L 180.44 32.81 L 178.38 32.56 L 176.31 32.36 L 174.24 32.22 L 172.16 32.14 L 170.08 32.11 Z M 277.35 161.7 L 277.54 162.4 L 277.79 163.07 L 278.1 163.71 L 278.47 164.32 L 278.89 164.9 L 279.36 165.44 L 279.88 165.93 L 280.45 166.38 L 281.07 166.79 L 281.72 167.15 L 282.42 167.45 L 283.15 167.71 L 283.95 167.91 L 284.75 168.03 L 285.56 168.09 L 286.37 168.08 L 287.17 168.01 L 287.96 167.86 L 288.74 167.66 L 289.5 167.38 L 290.23 167.05 L 290.94 166.66 L 291.61 166.2 L 292.24 165.69 L 292.83 165.12 L 296.72 161.03 L 301.95 163.13 L 302.73 163.41 L 303.52 163.61 L 304.32 163.74 L 305.12 163.81 L 305.93 163.81 L 306.73 163.74 L 307.53 163.6 L 308.3 163.41 L 309.06 163.14 L 309.8 162.82 L 310.51 162.43 L 311.19 161.98 L 311.83 161.47 L 312.39 160.93 L 312.89 160.36 L 313.12 160.04 L 312.49 164.58 L 312.51 164.78 L 312.54 164.88 L 312.7 165.13 L 312.94 165.31 L 318.33 167.96 L 318.94 168.28 L 319.59 168.72 L 320.1 169.11 L 320.65 169.62 L 321.07 170.08 L 321.49 170.64 L 321.81 171.13 L 322.14 171.78 L 322.35 172.29 L 322.55 172.98 L 322.66 173.53 L 322.7 174.01 L 321.69 174.86 L 320.57 175.69 L 319.41 176.46 L 318.21 177.16 L 316.98 177.79 L 315.72 178.35 L 314.43 178.85 L 313.13 179.28 L 311.8 179.65 L 310.45 179.94 L 309.09 180.16 L 307.73 180.31 L 306.35 180.4 L 304.97 180.41 L 303.59 180.35 L 302.22 180.21 L 300.85 180.01 L 299.69 180.76 L 298.49 181.46 L 297.26 182.09 L 296 182.65 L 294.72 183.15 L 293.41 183.58 L 292.08 183.94 L 290.74 184.23 L 289.38 184.45 L 288.01 184.6 L 286.63 184.68 L 285.25 184.69 L 283.87 184.63 L 282.49 184.49 L 281.12 184.28 L 279.75 183.99 L 278.39 183.62 L 277.06 183.18 L 276.45 182.94 L 276.47 182.8 L 276.45 182.6 L 276.42 182.5 L 276.32 182.32 L 276.26 182.25 L 276.02 182.07 L 270.64 179.42 L 270.04 179.09 L 269.39 178.66 L 268.87 178.26 L 268.33 177.76 L 267.88 177.26 L 267.49 176.74 L 267.18 176.25 L 266.86 175.61 L 266.64 175.08 L 266.44 174.43 L 266.32 173.77 L 266.25 173.11 L 266.25 172.53 L 266.31 171.81 L 266.3 171.8 L 266.42 171.25 L 266.6 170.63 L 266.83 170.03 L 267.15 169.39 L 267.14 169.38 L 267.45 168.9 L 267.84 168.38 L 268.28 167.89 L 268.82 167.39 L 269.31 167.01 L 269.95 166.59 L 269.94 166.58 L 270.51 166.28 L 271.22 165.96 L 271.23 165.97 L 276.81 163.59 L 276.99 163.48 L 277.06 163.42 L 277.19 163.26 L 277.27 163.07 L 277.3 162.81 L 277.14 159.92 Z M 23.86 105.2 L 24.28 106.43 L 24.66 107.38 L 24.29 108.36 L 23.86 109.69 L 23.49 111.07 L 23.2 112.44 L 22.99 113.81 L 22.86 115.14 L 22.81 116.54 L 22.82 117.97 L 22.91 119.31 L 23.09 120.75 L 23.32 122.09 L 23.65 123.5 L 24.04 124.82 L 24.5 126.15 L 25.06 127.48 L 25.48 128.36 L 25.19 128.46 L 24.49 128.76 L 23.82 129.11 L 23.2 129.51 L 22.62 129.96 L 22.09 130.45 L 21.61 130.98 L 21.18 131.56 L 20.8 132.17 L 20.48 132.81 L 20.23 133.49 L 20.03 134.2 L 19.91 134.92 L 19.86 135.64 L 19.87 136.36 L 19.95 137.07 L 20.1 137.77 L 20.31 138.46 L 20.58 139.13 L 20.92 139.78 L 21.31 140.41 L 21.77 141.01 L 22.28 141.58 L 22.84 142.11 L 23.47 142.61 L 28.31 146.16 L 26.44 151.88 L 26.23 152.65 L 26.11 153.43 L 26.06 154.2 L 26.09 154.97 L 26.19 155.74 L 26.37 156.49 L 26.62 157.22 L 26.94 157.94 L 27.34 158.62 L 27.8 159.28 L 28.34 159.9 L 28.94 160.49 L 29.58 161 L 30.25 161.45 L 30.96 161.85 L 31.69 162.17 L 32.45 162.44 L 33.23 162.64 L 34.03 162.78 L 34.83 162.85 L 35.64 162.86 L 36.44 162.8 L 37.24 162.66 L 38.03 162.47 L 38.81 162.2 L 44.05 160.12 L 47.92 164.22 L 48.51 164.79 L 49.14 165.31 L 49.81 165.76 L 50.51 166.16 L 51.25 166.5 L 52 166.77 L 52.78 166.99 L 53.57 167.13 L 54.37 167.21 L 55.18 167.23 L 55.98 167.17 L 56.79 167.05 L 57.58 166.85 L 58.32 166.6 L 59.01 166.3 L 59.67 165.94 L 60.29 165.54 L 60.86 165.09 L 61.39 164.59 L 61.87 164.06 L 62.29 163.48 L 62.66 162.87 L 62.97 162.23 L 63.23 161.55 L 63.42 160.84 L 64.22 154.34 L 67.31 153.63 L 67.6 153.63 L 69.04 153.56 L 70.42 153.41 L 71.83 153.18 L 73.26 152.87 L 74.57 152.5 L 75.89 152.06 L 77.25 151.53 L 78.48 150.96 L 79.74 150.29 L 80.9 149.6 L 82.09 148.79 L 83.2 147.95 L 83.44 147.73 L 84.49 149.99 L 85.65 152.33 L 86.86 154.6 L 88.13 156.83 L 88.15 156.84 L 89.33 158.8 L 89 159.3 L 88.19 160.36 L 87.33 161.37 L 86.42 162.33 L 85.46 163.24 L 84.44 164.11 L 83.38 164.92 L 82.28 165.68 L 81.13 166.37 L 79.94 167.01 L 78.71 167.59 L 78.2 168.86 L 77.62 170.08 L 76.98 171.28 L 76.28 172.43 L 75.51 173.54 L 74.68 174.6 L 73.8 175.62 L 72.86 176.6 L 71.87 177.52 L 70.82 178.38 L 69.73 179.2 L 68.59 179.95 L 67.41 180.65 L 66.18 181.28 L 64.92 181.85 L 63.62 182.36 L 62.28 182.79 L 60.92 183.15 L 59.55 183.43 L 58.18 183.64 L 56.79 183.77 L 55.41 183.83 L 54.03 183.81 L 52.66 183.73 L 51.29 183.57 L 49.93 183.34 L 48.59 183.04 L 47.26 182.67 L 45.95 182.24 L 44.67 181.74 L 43.42 181.17 L 42.19 180.53 L 41 179.83 L 39.84 179.07 L 38.47 179.27 L 37.09 179.4 L 35.71 179.46 L 34.33 179.44 L 32.96 179.35 L 31.59 179.19 L 30.24 178.96 L 28.89 178.66 L 27.57 178.3 L 26.26 177.86 L 24.98 177.36 L 23.72 176.78 L 22.49 176.15 L 21.3 175.44 L 20.14 174.67 L 19.02 173.83 L 17.94 172.93 L 16.91 171.97 L 15.94 170.96 L 15.04 169.91 L 14.2 168.82 L 13.42 167.69 L 12.72 166.52 L 12.07 165.32 L 11.5 164.09 L 11 162.84 L 10.56 161.57 L 10.2 160.27 L 9.9 158.96 L 9.68 157.63 L 9.53 156.3 L 9.46 154.95 L 9.46 153.6 L 9.53 152.25 L 8.69 151.24 L 7.91 150.2 L 7.18 149.12 L 6.51 148.01 L 5.9 146.88 L 5.35 145.71 L 4.86 144.52 L 4.44 143.32 L 4.08 142.09 L 3.78 140.84 L 3.55 139.58 L 3.38 138.31 L 3.28 137.04 L 3.25 135.75 L 3.28 134.46 L 3.39 133.17 L 3.57 131.88 L 3.82 130.59 L 4.14 129.32 L 4.52 128.07 L 4.97 126.86 L 5.49 125.67 L 6.06 124.52 L 6.69 123.41 L 7.38 122.33 L 8.13 121.28 L 8.92 120.28 L 9.77 119.33 L 10.67 118.41 L 11.61 117.54 L 12.6 116.72 L 13.64 115.95 L 14.71 115.23 L 15.83 114.56 L 16.98 113.95 L 18.17 113.4 L 18.67 112.14 L 19.25 110.92 L 19.88 109.73 L 20.59 108.59 L 21.35 107.48 L 22.17 106.41 L 23.05 105.4 L 23.71 104.7 Z M 224.03 162.4 L 223.82 162.63 L 222.11 164.29 L 220.34 165.89 L 218.51 167.46 L 216.67 168.94 L 214.76 170.37 L 212.78 171.75 L 210.81 173.06 L 208.78 174.3 L 206.7 175.48 L 204.59 176.6 L 202.44 177.66 L 201.5 178.08 L 173.81 176.91 L 174.51 160.31 Z M 160.18 174.68 L 162.93 176.31 L 138.3 177.92 L 137.71 177.66 L 135.56 176.6 L 133.48 175.49 L 131.38 174.3 L 129.35 173.06 L 127.38 171.75 L 125.39 170.37 L 123.49 168.94 L 121.65 167.46 L 119.81 165.89 L 119.53 165.64 Z M 96.06 94.73 L 97.38 95.38 L 98.64 95.91 L 100.01 96.41 L 101.31 96.8 L 102.71 97.14 L 104.04 97.39 L 105.47 97.57 L 106.82 97.68 L 108.25 97.7 L 108.57 97.69 L 108.65 98.75 L 108.67 100.11 L 108.62 101.45 L 108.49 102.8 L 108.29 104.13 L 108.02 105.46 L 107.67 106.76 L 107.25 108.05 L 106.76 109.32 L 107.25 110.59 L 107.68 111.87 L 108.04 113.16 L 108.33 114.47 L 108.55 115.79 L 108.7 117.11 L 108.77 118.44 L 108.78 119.77 L 108.72 121.09 L 108.58 122.41 L 108.38 123.72 L 150.09 148.46 L 159.34 169.18 L 159.44 169.35 L 159.59 169.49 L 159.76 169.59 L 160.06 169.65 L 160.26 169.63 L 160.36 169.6 L 165.96 167.09 L 167.49 166.83 L 170.05 169.17 L 165.49 176.9 L 99.91 138.01 L 99.89 138.01 L 99.42 136.86 L 98.58 134.63 L 97.79 132.37 L 97.09 130.08 L 96.48 127.81 L 95.9 125.46 L 95.44 123.15 L 95.02 120.77 L 94.69 118.43 L 94.43 116.04 L 94.24 113.66 L 94.12 111.27 L 94.08 108.91 L 94.12 106.53 L 94.24 104.14 L 94.43 101.76 L 94.69 99.37 L 94.68 99.36 L 95.02 97.03 L 95.44 94.65 L 95.43 94.64 L 95.47 94.4 Z M 112.07 146.15 L 157.99 173.38 L 118.35 164.56 L 118.05 164.29 L 116.34 162.63 L 114.67 160.91 L 113.06 159.14 L 111.51 157.33 L 110.02 155.47 L 108.59 153.56 L 107.23 151.62 L 105.91 149.61 L 104.66 147.57 L 103.47 145.5 L 102.72 144.07 Z M 222.35 53.74 L 223.82 55.17 L 225.24 56.62 L 226.64 58.14 L 227.99 59.68 L 229.31 61.3 L 230.57 62.9 L 231.79 64.55 L 232.98 66.27 L 233.14 66.51 L 231.06 67.01 L 230.27 67.24 L 229.51 67.53 L 228.78 67.88 L 228.08 68.29 L 227.43 68.76 L 226.81 69.28 L 226.24 69.85 L 225.72 70.46 L 225.25 71.12 L 224.84 71.81 L 224.48 72.53 L 224.19 73.29 L 223.97 74.08 L 223.82 74.84 L 223.73 75.6 L 223.71 76.35 L 223.75 77.08 L 223.86 77.8 L 224.03 78.51 L 224.25 79.19 L 224.54 79.84 L 224.89 80.47 L 225.29 81.06 L 225.75 81.62 L 226.27 82.13 L 231.5 86.07 L 229.74 91.87 L 229.52 92.64 L 229.36 93.4 L 229.27 94.15 L 229.25 94.9 L 229.28 95.64 L 229.38 96.37 L 229.54 97.07 L 229.77 97.76 L 230.05 98.41 L 230.39 99.04 L 230.79 99.64 L 231.25 100.2 L 231.77 100.72 L 232.33 101.18 L 232.93 101.59 L 233.56 101.94 L 234.21 102.22 L 234.9 102.44 L 235.6 102.6 L 236.31 102.7 L 237.04 102.73 L 237.78 102.7 L 238.53 102.61 L 239.28 102.45 L 240.02 102.23 L 240.76 101.94 L 245.52 99.83 L 245.62 100.67 L 245.82 102.75 L 245.96 104.79 L 246.04 106.85 L 246.07 108.91 L 246.03 111.27 L 245.92 113.66 L 245.73 116.04 L 245.47 118.43 L 245.16 120.59 L 244.45 120.24 L 243.27 119.57 L 242.13 118.82 L 240.79 119.06 L 239.45 119.22 L 238.11 119.3 L 236.77 119.32 L 235.44 119.26 L 234.11 119.14 L 232.79 118.94 L 231.49 118.68 L 230.21 118.35 L 228.94 117.95 L 227.7 117.48 L 194.97 153.29 L 172.83 158.12 L 172.64 158.19 L 172.47 158.3 L 172.4 158.37 L 172.29 158.54 L 172.25 158.63 L 172.2 158.83 L 172.22 159.07 L 173.51 165.01 L 173.25 171.01 L 164.01 162.57 L 215.44 106.28 L 214.86 105.08 L 214.35 103.86 L 213.9 102.61 L 213.52 101.34 L 213.21 100.05 L 212.96 98.74 L 212.79 97.41 L 212.68 96.08 L 212.65 94.73 L 212.69 93.38 L 212.8 92.03 L 211.96 90.96 L 211.18 89.85 L 210.46 88.7 L 209.82 87.51 L 209.24 86.29 L 208.73 85.04 L 208.28 83.77 L 207.91 82.47 L 207.6 81.15 L 207.37 79.82 L 207.21 78.46 L 207.12 77.1 L 207.11 75.73 L 207.17 74.35 L 207.3 72.97 L 207.52 71.59 L 207.81 70.21 L 208.17 68.86 L 208.61 67.53 L 209.11 66.23 L 209.69 64.97 L 210.33 63.74 L 211.03 62.55 L 211.79 61.4 L 212.61 60.3 L 213.48 59.23 L 214.41 58.22 L 215.39 57.25 L 216.42 56.33 L 217.49 55.47 L 218.61 54.67 L 219.77 53.92 L 220.97 53.23 L 221.5 52.96 Z M 101.71 77.43 L 102.29 78 L 102.92 78.52 L 103.55 78.96 L 104.22 79.34 L 104.89 79.66 L 105.59 79.92 L 106.29 80.11 L 107 80.24 L 107.71 80.3 L 108.43 80.3 L 109.14 80.23 L 109.84 80.1 L 110.54 79.9 L 111.22 79.63 L 115.91 76.96 L 116.05 77.13 L 117.01 78.15 L 118.03 79.14 L 119.15 80.11 L 120.26 80.96 L 121.38 81.74 L 122.59 82.47 L 123.82 83.13 L 125.12 83.75 L 126.42 84.28 L 127.69 84.72 L 129.03 85.1 L 130.42 85.42 L 131.81 85.66 L 133.15 85.81 L 134.55 85.89 L 135.65 85.89 L 136.41 86.6 L 137.51 87.52 L 138.63 88.36 L 139.77 89.12 L 140.92 89.8 L 142.14 90.44 L 143.37 91.01 L 144.7 91.54 L 144.97 91.63 L 144.19 92.44 L 150.32 106.19 L 160.37 167.3 L 160.45 167.48 L 160.51 167.57 L 160.66 167.71 L 160.83 167.81 L 161.03 167.86 L 161.23 167.87 L 162.87 167.6 L 160.07 168.85 L 129.02 99.21 L 127.7 99.26 L 126.37 99.24 L 125.05 99.15 L 123.73 98.99 L 122.42 98.76 L 121.12 98.46 L 119.84 98.09 L 118.57 97.66 L 117.33 97.15 L 116.1 96.58 L 114.91 95.93 L 113.59 96.28 L 112.26 96.55 L 110.92 96.74 L 109.58 96.86 L 108.23 96.9 L 106.88 96.88 L 105.53 96.77 L 104.19 96.6 L 102.86 96.35 L 101.54 96.03 L 100.24 95.64 L 98.95 95.17 L 97.69 94.64 L 96.45 94.03 L 95.64 93.57 L 95.9 92.33 L 95.91 92.34 L 96.48 89.99 L 96.47 89.98 L 97.1 87.69 L 97.09 87.68 L 97.79 85.42 L 97.8 85.43 L 98.59 83.15 L 98.58 83.14 L 99.42 80.94 L 100.34 78.71 L 100.33 78.7 L 101.18 76.82 Z M 129.98 50.14 L 127.62 55.26 L 127.31 56.02 L 127.06 56.8 L 126.89 57.59 L 126.78 58.39 L 126.74 59.2 L 126.77 60 L 126.86 60.8 L 127.02 61.59 L 127.24 62.36 L 127.53 63.12 L 127.88 63.84 L 128.3 64.54 L 128.78 65.21 L 129.28 65.8 L 129.82 66.33 L 130.4 66.81 L 131 67.23 L 131.63 67.6 L 132.29 67.9 L 132.96 68.14 L 133.66 68.32 L 134.36 68.44 L 135.08 68.49 L 135.8 68.47 L 136.52 68.38 L 142.86 66.71 L 146.33 71.69 L 146.79 72.33 L 147.29 72.93 L 147.83 73.47 L 148.4 73.95 L 149 74.38 L 149.63 74.75 L 150.29 75.06 L 150.96 75.31 L 151.65 75.49 L 152.36 75.61 L 153.07 75.67 L 153.8 75.65 L 154.52 75.57 L 155.24 75.42 L 155.93 75.2 L 156.59 74.92 L 156.89 74.75 L 157.26 75.02 L 158.39 75.76 L 159.59 76.46 L 160.88 77.11 L 162.16 77.68 L 163.43 78.16 L 164.47 78.48 L 164.99 79.39 L 165.76 80.6 L 166.55 81.69 L 167.44 82.79 L 168.36 83.83 L 169.3 84.77 L 169.34 84.79 L 170.09 85.46 L 169.47 86.05 L 168.46 86.91 L 167.4 87.71 L 166.31 88.45 L 165.17 89.14 L 170.08 119.01 L 164.14 161.23 L 163.42 162.03 L 163.3 162.2 L 163.23 162.38 L 163.21 162.48 L 163.22 162.69 L 163.27 162.88 L 163.37 163.05 L 163.44 163.13 L 163.83 163.48 L 163.82 163.57 L 163.84 163.77 L 163.87 163.87 L 164.03 164.12 L 164.19 164.25 L 164.37 164.34 L 164.47 164.37 L 164.85 164.42 L 166.74 166.14 L 161.14 167.07 L 148.78 91.84 L 147.48 91.55 L 146.21 91.2 L 144.95 90.78 L 143.71 90.29 L 142.51 89.73 L 141.33 89.11 L 140.18 88.43 L 139.07 87.69 L 137.99 86.88 L 136.95 86.01 L 135.96 85.09 L 134.6 85.09 L 133.24 85.01 L 131.9 84.86 L 130.56 84.63 L 129.25 84.33 L 127.95 83.96 L 126.68 83.52 L 125.42 83.01 L 124.2 82.43 L 123.01 81.79 L 121.84 81.08 L 120.72 80.3 L 119.63 79.47 L 118.59 78.57 L 117.59 77.6 L 116.63 76.58 L 115.73 75.5 L 114.89 74.38 L 114.12 73.21 L 113.42 72.01 L 112.78 70.78 L 112.21 69.52 L 111.71 68.23 L 111.28 66.92 L 110.92 65.59 L 110.62 64.25 L 110.4 62.89 L 110.29 61.96 L 111.51 60.46 L 111.52 60.47 L 113.08 58.64 L 113.07 58.63 L 114.69 56.87 L 114.68 56.86 L 116.34 55.17 L 118.05 53.51 L 119.81 51.91 L 121.65 50.34 L 121.64 50.33 L 123.49 48.86 L 125.39 47.42 L 125.4 47.43 L 126.6 46.58 Z M 236.67 145.5 L 235.48 147.59 L 234.25 149.61 L 232.92 151.62 L 231.56 153.56 L 230.12 155.49 L 228.64 157.33 L 227.09 159.14 L 225.49 160.91 L 224.79 161.62 L 174.44 159.51 L 174.15 159.59 L 173.98 159.71 L 173.91 159.78 L 173.8 159.94 L 173.73 160.13 L 173.71 160.23 L 173.64 161.83 L 173 158.9 L 236.94 144.97 Z M 166.26 33.7 L 166.32 34.5 L 166.45 35.3 L 166.64 36.09 L 166.9 36.86 L 167.23 37.62 L 169.72 42.67 L 165.94 46.85 L 165.41 47.49 L 164.95 48.16 L 164.54 48.86 L 164.2 49.6 L 163.92 50.35 L 163.71 51.13 L 163.56 51.92 L 163.48 52.72 L 163.46 53.52 L 163.51 54.33 L 163.63 55.13 L 163.82 55.92 L 164.07 56.69 L 164.38 57.41 L 164.74 58.08 L 165.15 58.71 L 165.6 59.29 L 166.09 59.83 L 166.63 60.31 L 167.2 60.75 L 167.81 61.12 L 168.44 61.44 L 169.11 61.7 L 169.81 61.9 L 170.52 62.04 L 177.07 62.33 L 178.9 68.11 L 179.14 68.86 L 179.45 69.58 L 179.8 70.26 L 180.2 70.89 L 180.65 71.48 L 181.14 72.02 L 181.67 72.51 L 182.24 72.95 L 182.85 73.33 L 183.32 73.58 L 184.14 74.65 L 185.02 75.67 L 186.01 76.71 L 186.99 77.64 L 188.1 78.57 L 189.18 79.38 L 190.08 79.98 L 190.34 81.05 L 190.72 82.34 L 191.21 83.68 L 191.74 84.97 L 192.32 86.17 L 193 87.41 L 193.7 88.54 L 194.44 89.61 L 194.24 89.69 L 192.97 90.07 L 191.69 90.39 L 188.98 109.64 L 167.22 157.86 L 165.09 160.19 L 175.24 88.08 L 174.08 87.42 L 172.97 86.7 L 171.89 85.92 L 170.86 85.09 L 169.87 84.2 L 168.93 83.26 L 168.04 82.26 L 167.2 81.22 L 166.41 80.13 L 165.68 78.99 L 165.01 77.82 L 163.71 77.41 L 162.44 76.93 L 161.2 76.38 L 159.99 75.77 L 158.83 75.09 L 157.7 74.35 L 156.61 73.55 L 155.57 72.69 L 154.57 71.78 L 153.63 70.81 L 152.73 69.78 L 151.89 68.71 L 151.1 67.58 L 150.37 66.41 L 149.7 65.2 L 149.1 63.94 L 148.56 62.64 L 148.09 61.31 L 147.7 59.97 L 147.39 58.62 L 147.15 57.25 L 146.98 55.88 L 146.89 54.5 L 146.86 53.12 L 146.91 51.74 L 147.03 50.37 L 147.22 49.01 L 147.49 47.66 L 147.82 46.32 L 148.22 45 L 148.68 43.71 L 149.22 42.43 L 149.82 41.19 L 150.49 39.98 L 150.18 38.63 L 149.94 37.26 L 149.78 35.89 L 149.76 35.67 L 151.16 35.29 L 151.17 35.3 L 153.52 34.74 L 153.51 34.73 L 155.82 34.25 L 155.83 34.26 L 158.21 33.84 L 158.2 33.83 L 160.53 33.5 L 160.54 33.51 L 162.94 33.25 L 162.93 33.24 L 165.32 33.06 L 165.31 33.05 L 166.26 33 Z M 301.02 98.17 L 302.4 98.31 L 303.77 98.53 L 305.14 98.81 L 306.49 99.18 L 307.83 99.62 L 309.14 100.13 L 310.4 100.71 L 311.62 101.35 L 312.8 102.05 L 313.93 102.81 L 315.01 103.63 L 316.05 104.5 L 317.03 105.42 L 317.96 106.4 L 318.84 107.42 L 319.65 108.49 L 320.41 109.6 L 321.11 110.75 L 321.74 111.94 L 322.31 113.17 L 322.81 114.43 L 323.99 114.99 L 325.14 115.6 L 326.26 116.28 L 327.33 117 L 328.36 117.78 L 329.35 118.6 L 330.29 119.48 L 331.18 120.4 L 332.02 121.36 L 332.82 122.36 L 333.56 123.41 L 334.24 124.49 L 334.87 125.61 L 335.44 126.76 L 335.95 127.95 L 336.39 129.17 L 336.77 130.41 L 337.08 131.69 L 337.33 132.98 L 337.5 134.27 L 337.6 135.56 L 337.63 136.85 L 337.59 138.14 L 337.49 139.41 L 337.32 140.68 L 337.08 141.94 L 336.78 143.18 L 336.41 144.41 L 335.98 145.62 L 335.48 146.8 L 334.93 147.96 L 334.32 149.1 L 333.64 150.2 L 332.91 151.27 L 332.12 152.31 L 331.28 153.31 L 331.29 153.59 L 331.09 152.49 L 330.76 151.09 L 330.38 149.8 L 329.9 148.45 L 329.38 147.21 L 328.75 145.92 L 328.1 144.74 L 327.37 143.56 L 326.54 142.38 L 325.69 141.31 L 324.76 140.26 L 323.74 139.22 L 322.69 138.26 L 321.62 137.38 L 321.02 136.94 L 321.03 136.66 L 320.97 135.94 L 320.85 135.22 L 320.66 134.51 L 320.41 133.83 L 320.1 133.19 L 319.72 132.58 L 319.3 132 L 318.82 131.46 L 318.28 130.97 L 317.71 130.52 L 317.09 130.12 L 316.42 129.76 L 315.72 129.46 L 314.98 129.21 L 314.21 129.02 L 308.32 127.83 L 307.62 121.86 L 307.48 121.07 L 307.27 120.31 L 306.99 119.59 L 306.64 118.9 L 306.22 118.25 L 305.74 117.64 L 305.21 117.08 L 304.62 116.57 L 303.97 116.11 L 303.27 115.71 L 302.53 115.37 L 301.74 115.09 L 300.94 114.89 L 300.14 114.77 L 299.33 114.71 L 298.53 114.72 L 297.72 114.79 L 296.93 114.94 L 296.15 115.15 L 295.4 115.42 L 294.66 115.75 L 293.96 116.15 L 293.28 116.6 L 292.65 117.11 L 292.06 117.69 L 288.17 121.77 L 282.94 119.67 L 282.17 119.4 L 281.38 119.2 L 280.58 119.06 L 279.77 119 L 278.96 119 L 278.16 119.07 L 277.37 119.2 L 276.59 119.4 L 275.83 119.66 L 275.09 119.99 L 274.38 120.38 L 273.71 120.83 L 273.07 121.34 L 272.5 121.87 L 272 122.44 L 271.55 123.04 L 271.16 123.67 L 270.83 124.32 L 270.56 124.99 L 270.35 125.67 L 270.21 126.37 L 270.13 127.08 L 270.11 127.8 L 270.17 128.52 L 270.29 129.24 L 271.93 134.37 L 271.8 134.45 L 270.56 135.21 L 269.38 136.01 L 268.22 136.9 L 267.18 137.79 L 266.13 138.8 L 265.17 139.82 L 264.29 140.86 L 263.45 141.98 L 262.64 143.17 L 261.95 144.33 L 261.29 145.59 L 260.72 146.82 L 260.21 148.13 L 259.78 149.46 L 259.42 150.81 L 259.19 151.87 L 258.3 152.5 L 257.24 153.34 L 256.2 154.26 L 255.19 155.26 L 254.26 156.28 L 253.41 157.31 L 252.57 158.45 L 251.84 159.55 L 251.66 159.84 L 251.04 158.92 L 250.7 158.99 L 250.77 158.89 L 252.16 156.58 L 253.48 154.21 L 254.74 151.81 L 255.94 149.35 L 257.06 146.89 L 258.11 144.39 L 259.08 141.88 L 259.99 139.31 L 260.83 136.72 L 261.58 134.14 L 262.27 131.49 L 262.87 128.87 L 263.41 126.18 L 263.87 123.52 L 264.25 120.79 L 264.55 118.09 L 264.78 115.36 L 264.92 112.61 L 264.99 108.92 L 264.96 106.69 L 265.48 106.35 L 266.68 105.65 L 267.91 105.02 L 269.17 104.45 L 270.45 103.95 L 271.76 103.52 L 273.09 103.16 L 274.44 102.87 L 275.79 102.65 L 277.16 102.49 L 278.54 102.41 L 279.92 102.4 L 281.29 102.46 L 282.67 102.59 L 284.04 102.8 L 285.2 102.04 L 286.4 101.35 L 287.63 100.72 L 288.88 100.16 L 290.17 99.66 L 291.48 99.23 L 292.8 98.87 L 294.15 98.58 L 295.51 98.35 L 296.88 98.2 L 298.25 98.12 L 299.63 98.11 Z M 188.43 35.16 L 190.4 35.67 L 192.4 36.26 L 194.35 36.89 L 196.27 37.56 L 198.21 38.31 L 200.11 39.1 L 201.97 39.91 L 203.85 40.82 L 204.12 40.96 L 204.2 41.54 L 205.17 47.09 L 200.37 50.04 L 199.69 50.5 L 199.05 51.01 L 198.47 51.58 L 197.94 52.18 L 197.46 52.83 L 197.03 53.52 L 196.67 54.23 L 196.36 54.98 L 196.12 55.75 L 195.94 56.53 L 195.83 57.33 L 195.79 58.15 L 195.82 58.96 L 195.92 59.73 L 196.07 60.48 L 196.29 61.2 L 196.56 61.88 L 196.88 62.54 L 197.26 63.15 L 197.69 63.73 L 198.16 64.26 L 198.69 64.75 L 199.25 65.18 L 199.86 65.57 L 200.52 65.9 L 206.72 68.01 L 206.78 71.18 L 206.73 71.46 L 206.5 72.89 L 206.37 74.27 L 206.31 75.7 L 206.32 77.15 L 206.41 78.51 L 206.58 79.96 L 206.81 81.29 L 207.14 82.69 L 207.51 83.99 L 207.99 85.34 L 208.5 86.59 L 209.12 87.89 L 209.78 89.12 L 210.5 90.27 L 211.33 91.45 L 211.97 92.27 L 211.89 93.32 L 211.85 94.71 L 211.88 96.15 L 211.99 97.48 L 212.17 98.89 L 212.4 100.1 L 204.99 116.52 L 168.96 155.96 L 197.73 92.22 L 196.81 91.26 L 195.95 90.26 L 195.13 89.21 L 194.38 88.12 L 193.68 86.99 L 193.04 85.82 L 192.46 84.62 L 191.95 83.38 L 191.49 82.11 L 191.11 80.82 L 190.79 79.5 L 189.66 78.74 L 188.58 77.93 L 187.54 77.06 L 186.56 76.13 L 185.63 75.15 L 184.75 74.13 L 183.93 73.05 L 183.17 71.94 L 182.47 70.78 L 181.84 69.58 L 181.26 68.34 L 180.75 67.08 L 180.31 65.78 L 179.94 64.45 L 179.64 63.09 L 179.41 61.71 L 179.26 60.31 L 179.19 58.91 L 179.19 57.52 L 179.27 56.13 L 179.42 54.75 L 179.64 53.38 L 179.94 52.03 L 180.31 50.71 L 180.74 49.4 L 181.24 48.12 L 181.81 46.86 L 182.43 45.64 L 183.13 44.45 L 183.88 43.29 L 184.69 42.18 L 185.56 41.11 L 186.49 40.08 L 187.47 39.11 L 187.55 37.72 L 187.71 36.35 L 187.93 35.03 Z M 30.83 135.71 L 31.84 136.65 L 32.95 137.56 L 34.12 138.43 L 35.3 139.21 L 36.48 139.91 L 37.77 140.59 L 39.02 141.17 L 40.38 141.71 L 41.68 142.16 L 43.09 142.55 L 44.48 142.87 L 45.54 143.05 L 46.22 143.9 L 47.16 144.96 L 48.19 146.01 L 49.24 146.97 L 50.3 147.85 L 51.48 148.72 L 52.65 149.5 L 53.83 150.19 L 53.2 150.27 L 52.41 150.42 L 51.63 150.64 L 50.88 150.93 L 50.14 151.28 L 49.44 151.69 L 48.77 152.17 L 44.32 155.63 L 39.46 152.78 L 38.73 152.39 L 37.98 152.08 L 37.21 151.83 L 36.42 151.64 L 35.62 151.52 L 34.82 151.47 L 34.02 151.49 L 33.22 151.57 L 32.43 151.71 L 31.65 151.93 L 30.89 152.21 L 30.15 152.55 L 29.45 152.96 L 28.81 153.41 L 28.23 153.9 L 27.7 154.42 L 27.22 154.99 L 26.94 155.37 L 26.89 154.94 L 26.86 154.25 L 26.91 153.48 L 27.02 152.77 L 27.2 152.13 L 29.1 146.31 L 29.11 146.11 L 29.07 145.91 L 28.98 145.73 L 28.85 145.57 L 23.94 141.96 L 23.34 141.48 L 22.84 141.01 L 22.37 140.48 L 21.97 139.96 L 21.6 139.36 L 21.29 138.76 L 21.2 138.54 L 21.68 138.26 L 22.91 137.6 L 24.17 137.02 L 25.46 136.5 L 26.77 136.06 L 28.1 135.68 L 29.45 135.38 L 30.35 135.22 Z M 67.52 63.91 L 68.9 64.07 L 70.28 64.3 L 71.63 64.61 L 72.96 64.98 L 74.27 65.42 L 75.55 65.93 L 76.8 66.51 L 77.81 67.04 L 78.31 67.81 L 79.14 68.97 L 80.03 70.07 L 80.95 71.1 L 81.74 71.9 L 81.81 73.03 L 81.89 73.76 L 81.38 75.04 L 80.49 77.47 L 79.66 79.96 L 78.89 82.48 L 78.19 85.02 L 77.57 87.57 L 77 90.18 L 76.84 91.02 L 76.38 91.05 L 73.98 85.94 L 73.6 85.22 L 73.15 84.53 L 72.66 83.89 L 72.12 83.29 L 71.52 82.74 L 70.89 82.25 L 70.22 81.8 L 69.51 81.42 L 68.78 81.09 L 68.02 80.83 L 67.23 80.63 L 66.43 80.5 L 65.62 80.44 L 64.84 80.45 L 64.08 80.52 L 63.34 80.65 L 62.63 80.85 L 61.95 81.1 L 61.3 81.41 L 60.68 81.77 L 60.1 82.19 L 59.56 82.66 L 59.07 83.17 L 58.62 83.74 L 58.23 84.35 L 57.89 85 L 55.35 90.44 L 49.38 89.72 L 48.59 89.66 L 47.81 89.66 L 47.05 89.73 L 46.31 89.85 L 45.59 90.04 L 44.9 90.28 L 44.24 90.58 L 43.62 90.94 L 43.03 91.35 L 42.48 91.81 L 41.98 92.33 L 41.53 92.89 L 41.13 93.5 L 40.78 94.15 L 40.51 94.82 L 40.3 95.51 L 40.15 96.21 L 40.07 96.92 L 40.06 97.64 L 40.11 98.36 L 40.23 99.09 L 40.41 99.81 L 40.65 100.52 L 40.96 101.22 L 41.33 101.9 L 41.77 102.57 L 45.26 107.45 L 41.71 112.3 L 41.28 112.97 L 40.91 113.67 L 40.63 114.39 L 40.41 115.14 L 40.27 115.89 L 40.21 116.66 L 40.22 117.44 L 40.31 118.22 L 40.47 118.99 L 40.7 119.76 L 41.02 120.52 L 41.41 121.26 L 41.85 121.95 L 42.35 122.59 L 42.9 123.18 L 43.5 123.72 L 44.14 124.21 L 44.82 124.65 L 45.53 125.02 L 46.27 125.34 L 47.03 125.6 L 47.82 125.79 L 48.62 125.91 L 49.44 125.97 L 50.26 125.96 L 55.88 125.61 L 58.28 130.71 L 58.67 131.44 L 59.11 132.13 L 59.6 132.77 L 60.15 133.37 L 60.74 133.91 L 61.37 134.41 L 62.04 134.85 L 62.75 135.24 L 63.48 135.57 L 64.25 135.83 L 65.03 136.03 L 65.83 136.16 L 66.65 136.22 L 67.42 136.21 L 68.18 136.14 L 68.92 136.01 L 69.63 135.82 L 70.32 135.57 L 70.97 135.26 L 71.59 134.9 L 72.17 134.48 L 72.71 134.02 L 73.21 133.5 L 73.66 132.94 L 74.06 132.33 L 76.79 126.5 L 77.02 127.71 L 77.59 130.32 L 78.21 132.86 L 78.91 135.42 L 79.67 137.91 L 80.51 140.4 L 81.41 142.84 L 82.38 145.26 L 83.11 146.96 L 82.68 147.34 L 81.61 148.15 L 80.49 148.91 L 79.33 149.6 L 78.14 150.23 L 76.91 150.8 L 75.64 151.3 L 74.35 151.73 L 73.04 152.1 L 71.7 152.39 L 70.33 152.61 L 68.95 152.76 L 67.56 152.83 L 66.15 152.83 L 64.75 152.75 L 63.36 152.59 L 61.99 152.36 L 60.64 152.05 L 59.31 151.68 L 58 151.24 L 56.72 150.73 L 55.47 150.15 L 54.25 149.51 L 53.06 148.81 L 51.92 148.05 L 50.81 147.23 L 49.75 146.35 L 48.73 145.42 L 47.76 144.43 L 46.85 143.4 L 45.99 142.32 L 44.62 142.08 L 43.27 141.77 L 41.94 141.4 L 40.64 140.95 L 39.36 140.44 L 38.11 139.86 L 36.89 139.22 L 35.71 138.52 L 34.56 137.76 L 33.46 136.94 L 32.39 136.06 L 31.38 135.12 L 30.41 134.14 L 29.49 133.09 L 28.63 132 L 27.83 130.86 L 27.08 129.67 L 26.4 128.43 L 25.8 127.17 L 25.26 125.89 L 24.81 124.59 L 24.42 123.27 L 24.11 121.95 L 23.88 120.61 L 23.71 119.26 L 23.62 117.92 L 23.61 116.57 L 23.66 115.22 L 23.79 113.89 L 23.99 112.56 L 24.27 111.24 L 24.62 109.94 L 25.04 108.65 L 25.53 107.39 L 25.04 106.17 L 24.62 104.94 L 24.26 103.69 L 23.97 102.43 L 23.75 101.16 L 23.59 99.88 L 23.49 98.6 L 23.47 97.32 L 23.5 96.04 L 23.61 94.76 L 23.78 93.49 L 24.01 92.24 L 24.32 90.99 L 24.69 89.76 L 25.12 88.54 L 25.63 87.35 L 26.2 86.18 L 26.84 85.03 L 27.54 83.92 L 28.29 82.86 L 29.1 81.84 L 29.95 80.88 L 30.86 79.96 L 31.8 79.1 L 32.79 78.29 L 33.83 77.53 L 34.89 76.83 L 36 76.18 L 37.14 75.59 L 38.3 75.06 L 39.5 74.58 L 40.72 74.17 L 41.97 73.82 L 43.24 73.54 L 44.52 73.31 L 45.82 73.16 L 46.69 72.12 L 47.62 71.14 L 48.59 70.21 L 49.62 69.34 L 50.69 68.52 L 51.8 67.77 L 52.95 67.07 L 54.14 66.44 L 55.37 65.87 L 56.62 65.37 L 57.91 64.94 L 59.23 64.57 L 60.56 64.28 L 61.92 64.05 L 63.3 63.9 L 64.7 63.83 L 66.11 63.83 Z M 42.8 97.2 L 44.17 97.28 L 45.54 97.44 L 46.9 97.67 L 48.24 97.97 L 49.57 98.34 L 50.88 98.77 L 52.16 99.28 L 53.41 99.84 L 54.64 100.48 L 55.83 101.18 L 56.99 101.94 L 58.36 101.74 L 59.74 101.61 L 61.12 101.56 L 62.5 101.57 L 63.87 101.66 L 65.24 101.82 L 66.59 102.05 L 67.94 102.35 L 69.26 102.72 L 70.57 103.16 L 71.85 103.66 L 73.11 104.23 L 74.34 104.87 L 75.25 105.41 L 75.16 108.88 L 75.2 111.67 L 75.32 114.4 L 75.51 117.11 L 75.77 119.77 L 76.12 122.47 L 76.54 125.11 L 76.63 125.62 L 76.62 125.63 L 76.35 125.77 L 76.21 125.92 L 76.16 126 L 73.39 131.89 L 73.02 132.46 L 72.63 132.95 L 72.19 133.41 L 71.7 133.83 L 71.11 134.25 L 70.58 134.56 L 70.02 134.83 L 69.42 135.05 L 68.97 135.16 L 68.55 134.86 L 70.63 128.42 L 70.75 127.71 L 70.81 126.99 L 70.8 126.28 L 70.72 125.57 L 70.58 124.87 L 70.38 124.18 L 70.11 123.51 L 69.78 122.86 L 69.4 122.24 L 68.95 121.64 L 68.45 121.07 L 67.89 120.53 L 67.25 120.02 L 66.57 119.56 L 65.87 119.17 L 65.13 118.84 L 64.37 118.57 L 63.59 118.37 L 62.8 118.23 L 62 118.16 L 61.19 118.16 L 60.38 118.22 L 59.58 118.35 L 58.79 118.55 L 58.01 118.82 L 52.77 120.89 L 48.9 116.79 L 48.32 116.22 L 47.68 115.7 L 47.01 115.25 L 46.31 114.85 L 45.58 114.51 L 44.82 114.24 L 44.04 114.03 L 43.25 113.88 L 42.45 113.8 L 41.75 113.78 L 41.99 113.34 L 41.98 113.33 L 42.35 112.76 L 42.36 112.77 L 45.91 107.92 L 46 107.75 L 46.06 107.45 L 46 107.15 L 45.96 107.06 L 42.42 102.1 L 42 101.46 L 41.66 100.84 L 41.41 100.26 L 41.17 99.55 L 41.01 98.9 L 40.9 98.28 L 40.86 97.65 L 40.86 97.2 L 41.42 97.18 Z M 247.96 35.38 L 249.31 35.5 L 250.65 35.68 L 251.97 35.94 L 253.28 36.27 L 254.56 36.67 L 255.82 37.14 L 257.05 37.68 L 258.26 38.28 L 259.43 38.95 L 260.56 39.69 L 261.86 39.46 L 263.15 39.3 L 264.45 39.21 L 265.74 39.18 L 267.03 39.22 L 268.31 39.32 L 269.59 39.49 L 270.85 39.72 L 272.09 40.02 L 273.32 40.38 L 274.53 40.81 L 275.71 41.3 L 276.87 41.85 L 278 42.46 L 279.1 43.14 L 280.17 43.87 L 281.2 44.67 L 282.19 45.53 L 283.13 46.44 L 284.02 47.39 L 284.85 48.39 L 285.62 49.42 L 286.33 50.49 L 286.99 51.6 L 287.58 52.73 L 288.11 53.9 L 288.58 55.09 L 288.99 56.3 L 289.34 57.53 L 289.62 58.79 L 289.84 60.05 L 289.99 61.33 L 290.08 62.62 L 290.1 63.92 L 290.06 65.23 L 289.95 66.53 L 290.79 67.6 L 291.56 68.7 L 292.27 69.85 L 292.92 71.03 L 293.5 72.24 L 294.01 73.48 L 294.45 74.75 L 294.83 76.05 L 295.14 77.36 L 295.37 78.69 L 295.53 80.04 L 295.62 81.4 L 295.64 82.77 L 295.58 84.15 L 295.45 85.53 L 295.24 86.92 L 294.95 88.3 L 294.94 88.3 L 294.58 89.65 L 294.14 90.98 L 293.64 92.28 L 293.06 93.54 L 292.43 94.77 L 291.73 95.96 L 290.96 97.11 L 290.15 98.22 L 289.43 99.08 L 288.59 99.41 L 287.3 99.99 L 286 100.66 L 284.76 101.37 L 283.85 101.96 L 282.75 101.79 L 281.37 101.66 L 279.96 101.6 L 278.49 101.61 L 277.11 101.69 L 275.66 101.86 L 274.31 102.08 L 272.92 102.38 L 271.51 102.76 L 270.16 103.2 L 268.88 103.7 L 267.58 104.29 L 266.28 104.96 L 265.04 105.68 L 264.94 105.74 L 264.84 103.4 L 264.66 100.89 L 264.74 100.74 L 265.03 99.98 L 265.25 99.19 L 265.4 98.38 L 266.21 92.81 L 271.69 91.49 L 272.48 91.27 L 273.25 90.98 L 273.98 90.62 L 274.67 90.21 L 275.33 89.74 L 275.94 89.22 L 276.51 88.66 L 277.03 88.05 L 277.5 87.39 L 277.92 86.7 L 278.27 85.97 L 278.56 85.22 L 278.79 84.43 L 278.94 83.67 L 279.02 82.91 L 279.04 82.16 L 278.99 81.42 L 278.89 80.7 L 278.72 80 L 278.49 79.32 L 278.2 78.67 L 277.85 78.05 L 277.45 77.46 L 276.98 76.91 L 276.47 76.4 L 275.9 75.94 L 271.09 72.34 L 273.01 66.64 L 273.23 65.88 L 273.39 65.12 L 273.48 64.36 L 273.51 63.61 L 273.47 62.87 L 273.37 62.14 L 273.21 61.44 L 272.99 60.75 L 272.7 60.09 L 272.36 59.47 L 271.96 58.87 L 271.5 58.31 L 270.98 57.79 L 270.42 57.32 L 269.82 56.92 L 269.19 56.57 L 268.54 56.29 L 267.85 56.06 L 267.15 55.9 L 266.43 55.81 L 265.7 55.77 L 264.96 55.8 L 264.22 55.9 L 263.47 56.06 L 262.72 56.28 L 261.98 56.57 L 256.49 59 L 252.47 54.54 L 251.9 53.97 L 251.29 53.48 L 250.64 53.05 L 249.95 52.69 L 249.24 52.4 L 248.5 52.18 L 247.74 52.03 L 246.96 51.96 L 246.16 51.96 L 246.03 51.97 L 244.81 50.37 L 243.19 48.36 L 241.54 46.43 L 239.84 44.53 L 238.06 42.65 L 236.27 40.86 L 234.39 39.1 L 233.95 38.7 L 234.59 38.34 L 235.84 37.72 L 237.12 37.16 L 238.44 36.68 L 239.79 36.26 L 241.14 35.93 L 242.51 35.67 L 243.87 35.48 L 245.24 35.38 L 246.6 35.34 Z M 230.79 79.56 L 231.47 79.83 L 232.16 80.03 L 232.86 80.17 L 233.56 80.24 L 234.28 80.24 L 234.99 80.18 L 235.7 80.06 L 236.4 79.87 L 237.09 79.62 L 237.77 79.3 L 238.43 78.93 L 239.07 78.49 L 239.54 78.1 L 239.88 78.85 L 240.67 80.76 L 241.41 82.71 L 242.09 84.62 L 242.72 86.57 L 243.3 88.58 L 243.82 90.54 L 244.3 92.57 L 244.67 94.4 L 244.23 94.62 L 242.97 95.15 L 241.68 95.61 L 240.37 95.99 L 239.05 96.31 L 237.72 96.55 L 236.38 96.72 L 235.03 96.81 L 233.69 96.84 L 232.34 96.79 L 230.99 96.66 L 230.23 96.54 L 230.16 96.19 L 230.07 95.6 L 230.05 94.92 L 230.07 94.17 L 230.06 94.16 L 230.14 93.56 L 230.29 92.86 L 232.27 86.3 L 232.3 86 L 232.22 85.71 L 232.1 85.54 L 232.03 85.47 L 226.78 81.51 L 226.36 81.1 L 225.91 80.55 L 225.58 80.07 L 225.24 79.45 L 224.98 78.86 L 224.81 78.32 L 224.64 77.61 L 224.54 77.01 L 224.51 76.56 L 224.91 76.21 Z M 251.33 54.53 L 251.9 55.11 L 255.97 59.61 L 256.05 59.67 L 256.23 59.76 L 256.43 59.8 L 256.63 59.79 L 256.81 59.73 L 262.3 57.3 L 262.29 57.29 L 262.94 57.04 L 262.95 57.05 L 263.7 56.83 L 263.69 56.82 L 264.36 56.68 L 264.99 56.59 L 265.68 56.57 L 266.39 56.61 L 266.97 56.68 L 267.41 56.78 L 267.32 57.33 L 267.03 58.68 L 266.66 60.01 L 266.23 61.31 L 265.73 62.6 L 265.16 63.85 L 264.53 65.07 L 263.84 66.26 L 263.09 67.42 L 262.27 68.53 L 261.4 69.6 L 260.48 70.63 L 259.49 71.6 L 259.41 72.99 L 259.25 74.36 L 259.03 75.72 L 258.75 74.96 L 257.78 72.54 L 256.75 70.14 L 255.67 67.81 L 254.52 65.49 L 253.29 63.21 L 252.03 60.98 L 250.68 58.76 L 249.8 57.39 L 249.93 57.19 L 250.3 56.47 L 250.6 55.73 L 250.85 54.96 L 250.99 54.26 Z M 148.98 35.94 L 149.15 37.4 L 149.39 38.77 L 149.64 39.85 L 149.12 40.8 L 148.48 42.12 L 147.94 43.4 L 147.45 44.77 L 147.05 46.09 L 146.71 47.47 L 146.43 48.9 L 146.23 50.3 L 146.11 51.67 L 146.06 53.09 L 146.09 54.55 L 146.18 55.93 L 146.36 57.39 L 146.6 58.76 L 146.93 60.19 L 147.32 61.53 L 147.82 62.95 L 148.36 64.25 L 149 65.59 L 149.67 66.8 L 150.44 68.04 L 151.23 69.17 L 152.13 70.31 L 153.03 71.34 L 154.03 72.37 L 155.06 73.31 L 156.1 74.17 L 156.17 74.22 L 155.62 74.46 L 155.03 74.65 L 154.43 74.77 L 153.71 74.85 L 153.11 74.86 L 152.43 74.81 L 151.77 74.7 L 151.24 74.56 L 150.57 74.31 L 150.04 74.06 L 149.41 73.69 L 148.87 73.3 L 148.4 72.9 L 147.85 72.36 L 147.44 71.86 L 146.98 71.22 L 143.52 66.25 L 143.38 66.1 L 143.3 66.04 L 143.12 65.95 L 142.92 65.91 L 142.72 65.92 L 139.99 66.63 L 141.56 66.11 L 142.2 65.78 L 142.81 65.4 L 143.38 64.96 L 143.9 64.48 L 144.38 63.95 L 144.81 63.38 L 145.19 62.77 L 145.51 62.12 L 145.79 61.43 L 146 60.72 L 146.16 59.97 L 146.26 59.2 L 146.29 58.39 L 146.25 57.57 L 146.15 56.77 L 145.97 55.98 L 145.74 55.21 L 145.43 54.47 L 145.07 53.75 L 144.65 53.06 L 144.18 52.41 L 143.65 51.8 L 143.06 51.23 L 142.43 50.72 L 141.75 50.25 L 136.96 47.28 L 137.95 41.73 L 138.06 40.92 L 138.1 40.1 L 138.09 39.97 L 139.89 39.16 L 142.12 38.24 L 142.11 38.23 L 144.31 37.4 L 144.32 37.41 L 146.61 36.63 L 146.6 36.62 L 148.86 35.93 L 148.97 35.89 Z M 111.33 11.7 L 112.6 11.81 L 113.87 11.99 L 115.13 12.23 L 116.38 12.53 L 117.62 12.9 L 118.84 13.34 L 120.04 13.84 L 121.21 14.4 L 122.37 15.02 L 122.64 14.94 L 121.59 15.37 L 120.29 15.98 L 119.07 16.64 L 117.92 17.34 L 116.78 18.12 L 115.64 18.99 L 114.62 19.87 L 113.59 20.87 L 112.62 21.89 L 111.75 22.94 L 110.88 24.1 L 110.1 25.27 L 109.4 26.45 L 108.72 27.77 L 108.43 28.39 L 108.15 28.45 L 107.46 28.65 L 106.78 28.91 L 106.12 29.24 L 105.51 29.63 L 104.94 30.07 L 104.42 30.56 L 103.94 31.09 L 103.51 31.67 L 103.14 32.29 L 102.81 32.95 L 102.55 33.64 L 102.34 34.36 L 102.18 35.11 L 102.09 35.88 L 102.06 36.68 L 102.08 42.66 L 102.04 42.7 L 96.39 44.59 L 95.65 44.88 L 94.95 45.25 L 94.3 45.67 L 93.69 46.15 L 93.14 46.69 L 92.64 47.28 L 92.2 47.92 L 91.82 48.61 L 91.51 49.33 L 91.26 50.1 L 91.07 50.9 L 90.96 51.73 L 90.93 52.54 L 90.97 53.36 L 91.08 54.16 L 91.25 54.95 L 91.48 55.69 L 90.82 56.67 L 89.41 58.85 L 88.09 61.04 L 86.81 63.29 L 85.61 65.55 L 84.45 67.88 L 83.37 70.21 L 82.56 72.11 L 82.53 71.56 L 81.55 70.57 L 80.63 69.54 L 79.76 68.47 L 78.96 67.35 L 78.21 66.19 L 77.52 65 L 76.9 63.78 L 76.34 62.52 L 75.84 61.23 L 75.41 59.92 L 75.05 58.59 L 74.76 57.24 L 74.55 55.88 L 74.4 54.5 L 74.33 53.11 L 74.33 51.71 L 74.41 50.31 L 74.57 48.91 L 74.81 47.53 L 75.11 46.18 L 75.49 44.85 L 75.94 43.55 L 76.45 42.29 L 77.03 41.06 L 77.68 39.87 L 78.38 38.72 L 79.15 37.61 L 79.97 36.55 L 80.85 35.53 L 81.78 34.56 L 82.77 33.64 L 83.8 32.78 L 84.89 31.98 L 86.02 31.23 L 86.33 29.96 L 86.7 28.7 L 87.13 27.48 L 87.62 26.28 L 88.17 25.11 L 88.78 23.98 L 89.44 22.88 L 90.16 21.82 L 90.93 20.8 L 91.75 19.82 L 92.62 18.88 L 93.54 17.99 L 94.51 17.15 L 95.53 16.35 L 96.58 15.62 L 97.69 14.93 L 98.83 14.31 L 100.01 13.74 L 101.22 13.24 L 102.45 12.81 L 103.7 12.44 L 104.95 12.15 L 106.22 11.93 L 107.49 11.77 L 108.77 11.68 L 110.05 11.66 Z M 174.19 33.01 L 176.23 33.15 L 178.3 33.36 L 180.32 33.59 L 182.36 33.9 L 184.41 34.27 L 186.41 34.67 L 187.15 34.85 L 187.15 34.86 L 186.92 36.22 L 186.75 37.67 L 186.68 38.76 L 185.9 39.54 L 184.97 40.57 L 184.04 41.71 L 183.23 42.82 L 182.44 44.04 L 181.74 45.23 L 181.08 46.53 L 180.49 47.83 L 179.99 49.11 L 179.54 50.49 L 179.17 51.81 L 178.85 53.25 L 178.62 54.66 L 178.47 56.04 L 178.39 57.47 L 178.39 58.95 L 178.46 60.4 L 178.61 61.8 L 178.85 63.22 L 179.16 64.62 L 179.55 66.04 L 179.99 67.34 L 180.52 68.64 L 181.13 69.95 L 181.76 71.15 L 182.23 71.93 L 182.19 71.9 L 181.68 71.43 L 181.29 70.99 L 180.84 70.4 L 180.48 69.83 L 180.16 69.21 L 179.87 68.54 L 177.8 61.99 L 177.69 61.82 L 177.54 61.68 L 177.46 61.63 L 177.27 61.56 L 177.11 61.53 L 172.94 61.34 L 173.14 61.19 L 173.66 60.69 L 174.14 60.14 L 174.58 59.55 L 174.97 58.91 L 175.31 58.23 L 175.6 57.51 L 175.84 56.73 L 176.01 55.94 L 176.11 55.13 L 176.14 54.33 L 176.11 53.52 L 176 52.72 L 175.84 51.94 L 175.61 51.17 L 175.31 50.41 L 174.95 49.69 L 174.53 48.99 L 174.05 48.33 L 173.51 47.71 L 169.78 43.78 L 170.38 43.13 L 170.47 42.95 L 170.52 42.75 L 170.49 42.45 L 170.46 42.36 L 170.33 42.1 L 172 38.51 L 172.31 37.75 L 172.55 36.97 L 172.73 36.17 L 172.84 35.37 L 172.88 34.57 L 172.85 33.76 L 172.76 32.96 L 172.75 32.95 Z M 212.71 45.99 L 214.42 47.19 L 216.07 48.41 L 217.68 49.66 L 219.28 50.99 L 220.83 52.34 L 220.87 52.37 L 220.61 52.51 L 219.37 53.23 L 218.15 54.02 L 216.99 54.85 L 215.89 55.73 L 214.86 56.65 L 213.82 57.68 L 212.89 58.68 L 212.95 58.05 L 212.96 57.25 L 212.9 56.44 L 212.78 55.64 L 212.58 54.85 L 212.32 54.08 L 211.99 53.33 L 209.51 48.27 L 211.99 45.51 Z M 233.52 11.61 L 234.8 11.71 L 236.07 11.87 L 237.34 12.1 L 238.59 12.4 L 239.84 12.77 L 241.06 13.21 L 242.27 13.71 L 243.45 14.29 L 244.59 14.92 L 245.69 15.61 L 246.75 16.35 L 247.76 17.15 L 248.72 17.99 L 249.64 18.89 L 250.51 19.83 L 251.32 20.81 L 252.09 21.84 L 252.8 22.9 L 253.46 24 L 254.06 25.14 L 254.61 26.31 L 255.09 27.51 L 255.52 28.73 L 255.88 29.99 L 256.18 31.26 L 257.31 32.01 L 258.39 32.82 L 259.42 33.69 L 260.4 34.61 L 261.33 35.58 L 262.2 36.6 L 263.02 37.67 L 263.56 38.46 L 263.09 38.5 L 261.72 38.67 L 260.73 38.84 L 259.87 38.28 L 258.62 37.56 L 257.41 36.96 L 256.1 36.39 L 254.84 35.92 L 253.48 35.49 L 252.17 35.16 L 250.76 34.89 L 249.38 34.7 L 248.03 34.58 L 246.62 34.54 L 245.18 34.58 L 243.81 34.68 L 242.36 34.88 L 240.99 35.14 L 240.03 35.37 L 240 35.07 L 239.85 34.32 L 239.65 33.6 L 239.38 32.91 L 239.06 32.25 L 238.69 31.63 L 238.26 31.05 L 237.79 30.51 L 237.27 30.02 L 236.7 29.58 L 236.09 29.19 L 235.44 28.86 L 234.76 28.59 L 234.06 28.39 L 233.36 28.25 L 232.64 28.19 L 231.93 28.19 L 231.21 28.25 L 230.5 28.39 L 229.79 28.58 L 229.1 28.84 L 228.42 29.16 L 227.76 29.55 L 227.12 29.99 L 226.51 30.5 L 225.22 31.65 L 224.44 31.08 L 222.31 29.64 L 220.13 28.23 L 217.94 26.92 L 215.69 25.64 L 213.43 24.44 L 211.09 23.27 L 208.75 22.2 L 206.36 21.17 L 203.94 20.2 L 201.51 19.31 L 199.02 18.48 L 198.69 18.38 L 199.09 18.1 L 200.28 17.36 L 201.49 16.69 L 202.73 16.09 L 204 15.56 L 205.29 15.11 L 206.59 14.72 L 207.91 14.41 L 209.24 14.17 L 210.57 14.01 L 211.92 13.91 L 213.26 13.89 L 214.6 13.95 L 215.94 14.07 L 217.28 14.27 L 218.6 14.55 L 219.91 14.9 L 221.06 14.28 L 222.24 13.72 L 223.45 13.23 L 224.67 12.8 L 225.91 12.43 L 227.16 12.13 L 228.42 11.9 L 229.69 11.73 L 230.96 11.62 L 232.24 11.59 Z M 147.58 1.52 L 148.87 1.63 L 150.14 1.8 L 151.4 2.03 L 152.64 2.34 L 153.87 2.7 L 155.07 3.13 L 156.25 3.63 L 157.41 4.18 L 158.54 4.79 L 159.64 5.46 L 160.71 6.19 L 161.75 6.98 L 162.74 7.82 L 163.7 8.72 L 165.05 8.72 L 165.18 8.72 L 164.03 9.22 L 162.78 9.84 L 161.6 10.51 L 160.39 11.29 L 159.28 12.09 L 158.14 13.01 L 157.09 13.96 L 156.11 14.94 L 156.03 15.02 L 153.87 15.36 L 151.27 15.84 L 148.66 16.41 L 146.12 17.03 L 143.56 17.74 L 141.07 18.5 L 138.56 19.34 L 136.13 20.23 L 133.72 21.2 L 131.32 22.23 L 128.99 23.31 L 126.65 24.47 L 124.39 25.68 L 122.16 26.95 L 119.94 28.3 L 117.77 29.69 L 115.65 31.13 L 113.57 32.63 L 111.55 34.17 L 109.54 35.79 L 107.61 37.44 L 106.91 38.06 L 106.94 37.48 L 107.08 36.1 L 107.29 34.73 L 107.57 33.37 L 107.93 32.02 L 108.36 30.69 L 108.87 29.37 L 109.45 28.1 L 110.09 26.86 L 110.79 25.68 L 111.55 24.54 L 112.37 23.45 L 113.24 22.4 L 114.17 21.42 L 115.14 20.48 L 116.16 19.6 L 117.23 18.78 L 118.34 18.02 L 119.49 17.32 L 120.67 16.68 L 121.89 16.11 L 123.15 15.61 L 124.43 15.17 L 125.05 14.02 L 125.73 12.9 L 126.45 11.83 L 127.23 10.79 L 128.06 9.8 L 128.94 8.86 L 129.86 7.97 L 130.82 7.12 L 131.82 6.33 L 132.87 5.59 L 133.95 4.9 L 135.07 4.27 L 136.22 3.71 L 137.4 3.2 L 138.61 2.75 L 139.85 2.37 L 141.11 2.05 L 142.4 1.8 L 143.7 1.63 L 145 1.52 L 146.29 1.49 Z M 231.13 29.64 L 231.52 30.98 L 231.84 32.33 L 232.08 33.7 L 232.25 35.07 L 232.34 36.45 L 232.35 37.26 L 230.55 35.74 L 228.53 34.11 L 226.5 32.57 L 225.88 32.12 L 227.02 31.11 L 227.57 30.65 L 228.17 30.24 L 228.83 29.85 L 228.82 29.84 L 229.38 29.59 L 230.07 29.33 L 230.71 29.16 L 230.7 29.15 L 230.94 29.1 Z M 194.67 0.09 L 195.97 0.23 L 197.26 0.45 L 198.54 0.74 L 199.78 1.09 L 201 1.51 L 202.2 1.99 L 203.36 2.53 L 204.49 3.13 L 205.59 3.79 L 206.65 4.51 L 207.67 5.28 L 208.65 6.1 L 209.59 6.97 L 210.49 7.89 L 211.34 8.86 L 212.14 9.88 L 212.9 10.94 L 213.6 12.04 L 214.21 13.12 L 213.3 13.09 L 211.86 13.11 L 210.51 13.21 L 209.1 13.38 L 207.77 13.62 L 206.36 13.95 L 205.06 14.34 L 203.74 14.8 L 202.42 15.35 L 201.1 15.99 L 199.89 16.66 L 198.67 17.42 L 197.72 18.08 L 196.56 17.72 L 196.38 17.61 L 195.74 17.29 L 195.07 17.02 L 194.38 16.82 L 193.66 16.68 L 192.93 16.62 L 192.36 16.62 L 191.41 16.39 L 188.8 15.83 L 186.2 15.34 L 183.55 14.93 L 180.86 14.59 L 178.2 14.32 L 175.49 14.13 L 170.1 13.98 L 167.31 14.02 L 164.58 14.14 L 161.87 14.33 L 159.21 14.6 L 157.34 14.84 L 157.66 14.53 L 158.68 13.6 L 159.75 12.74 L 160.86 11.94 L 162 11.21 L 163.18 10.54 L 164.39 9.94 L 165.62 9.41 L 166.89 8.94 L 168.17 8.54 L 169.48 8.22 L 170.8 7.96 L 172.13 7.78 L 173.48 7.67 L 174.83 7.64 L 175.77 6.72 L 176.75 5.86 L 177.76 5.05 L 178.81 4.29 L 179.9 3.6 L 181.02 2.96 L 182.16 2.38 L 183.33 1.86 L 184.53 1.4 L 185.75 1 L 186.98 0.67 L 188.24 0.41 L 189.5 0.2 L 190.78 0.07 L 192.07 0.01 L 193.37 0.01 Z" fill="black" fill-rule="nonzero" stroke="none"/>
    </svg>